<svg fill="none" height="48" viewBox="0 0 105 48" width="105" xmlns="http://www.w3.org/2000/svg" xmlns:xlink="http://www.w3.org/1999/xlink"><clipPath id="a"><path d="m.5 0h104v48h-104z"/></clipPath><clipPath id="b"><path d="m.097656 8h103.911v28h-103.911z"/></clipPath><g clip-path="url(#a)"><g clip-path="url(#b)" clip-rule="evenodd" fill="#343c54" fill-rule="evenodd"><path d="m13.5683 25.2436c-.5619-.3414-1.1612-.617-1.7861-.8214-.5372-.1905-1.09-.3339-1.652-.4287-.68318-.1204-1.37521-.1836-2.0689-.1888-.96002-.0008-1.91593.1253-2.84293.3749-.87953.233-1.71117.6191-2.45685 1.1405-.70456.4977-1.29324 1.1418-1.72573 1.8881-.450333.8014-.676752 1.7091-.655516 2.628-.019302.9213.206946 1.8311.655516 2.636.42495.7467 1.00299 1.395 1.69617 1.9025.71596.5191 1.52468.8963 2.38249 1.1113.88016.241 1.78763.3681 2.70014.378.79396.0096 1.58667-.0591 2.36751-.2047.672-.1344 1.3321-.322 1.9744-.561 0 0 .6822-.28 1.4802-.7059l-1.5667-1.5717c-.3338.1807-.678.3416-1.0307.4816-.4937.1873-1.0013.3354-1.51827.4427-.61445.1229-1.23942.1856-1.86604.1873-.57745-.0004-1.15094-.0953-1.69774-.2809-.54432-.1811-1.04974-.4629-1.48991-.8307-.4356-.3628-.79473-.8085-1.05653-1.3113-.27445-.5344-.41274-1.1283-.40258-1.7289-.01169-.5914.11085-1.1779.3584-1.7151.23202-.4936.57843-.9247 1.01049-1.2576.45874-.3502.98002-.6098 1.53596-.765.63425-.1751 1.28992-.2604 1.94786-.2535.62534-.0044 1.25036.0451 1.86729.1481.27036.0528.52017.1126.75197.1788.5352.1661 1.0461.4019 1.5198.7013zm4.0914 10.523h-2.6217v-11.8088h2.6217zm28.1074 0h-11.1661v-11.8088h10.905v1.9942h-8.2696v2.945h5.6358v1.9777h-5.6358v2.9151h8.5307v1.9765zm10.8344-7.1568c.387-.186.5784-.5656.5784-1.1396.0219-.2287-.0207-.4589-.1229-.6647-.1022-.2057-.26-.3788-.4555-.4995-.4432-.2372-.9412-.3531-1.4435-.336h-4.7737v2.9214h4.7737c.4962.0158.9896-.0804 1.4435-.2816zm2.0039-3.8435c.8026.518 1.204 1.4193 1.204 2.7039.0006 1.288-.4007 2.1768-1.204 2.6672-.8046.4921-2.0098.7382-3.6161.7382h-4.605l.0062 4.8764h-2.6364v-11.7619h7.2352c1.6051-.0015 2.8103.2573 3.6161.7762zm14.3316 11.014h-11.5438v-11.8222l2.5913-.0063v9.8536h8.9525zm13.1373-.0137h-11.1667v-11.8088h10.9057v1.9942h-8.2693v2.9328h5.6354v1.9778h-5.6354v2.9272h8.5303v1.9765zm17.0017-11.0774c.047.0015.094-.0038.139-.0165.025-.0098.047-.0273.061-.0501.015-.0229.022-.0497.021-.0768.002-.0229-.001-.0461-.01-.0671-.01-.0209-.025-.0389-.044-.0518-.055-.0241-.114-.0344-.174-.0299h-.121v.2925h.128zm.241.0678c.024.0135.045.0318.062.0538.026.0366.042.08.044.1251v.1198c.001.0146.004.029.007.0432l.005.0097h-.134v-.0078c-.002-.0029-.003-.0063-.002-.0097l-.005-.0258v-.0641c0-.0933-.023-.1555-.074-.1857-.051-.0207-.106-.0296-.16-.0258h-.112v.3189h-.144v-.8089h.286c.074-.0038.147.0062.218.0286.04.0157.075.0443.098.0813.023.0371.033.0806.029.124.002.0312-.004.0623-.018.0902s-.035.0516-.062.0685c-.035.0213-.075.035-.117.0401.028.0026.055.011.079.0246zm.373.1938c.031-.0778.046-.1605.045-.2442 0-.1047-.026-.2079-.075-.3003s-.12-.1713-.207-.2295c-.132-.0866-.291-.1213-.446-.0973-.156.024-.297.1048-.397.227-.099.1221-.15.2768-.142.4341.009.1573.075.3059.186.4171.058.0604.128.1082.205.1405.077.0322.16.0481.243.0468.084.0011.167-.0149.245-.0471.077-.0322.147-.0799.206-.1402.059-.0591.106-.1294.137-.2069zm.026-.6533c.069.1033.111.2224.122.3463s-.01.2485-.06.3623c-.05.1137-.128.2129-.227.2883s-.216.1246-.339.1429-.248.0052-.365-.0381c-.116-.0434-.22-.1155-.301-.2097s-.138-.2074-.163-.3291c-.026-.1217-.02-.2479.016-.3669.03-.0982.08-.1891.147-.2668.068-.0777.15-.1405.243-.1844s.194-.068.297-.0706c.102-.0027.204.0161.299.0551.135.0557.25.1497.331.2707zm-4.8457 11.4255-4.1903-4.256-4.1904 4.256h-3.2097l5.7975-5.8831-5.7975-5.8877h3.2001l4.1997 4.2616 4.1997-4.2616h3.2006l-5.7975 5.8877 5.7975 5.8831zm-66.2751-.9417v.9576h-2.2726v-.0031l-8.3808-8.512v8.5148h-2.2729v-11.8082h2.2729v.0071l8.3808 8.5307v-8.5381h2.2726v10.8506z"/><path d="m49.2941 8c-11.9545.23302-21.3839 2.9126-21.3839 6.1846 0 3.3401 9.8255 6.0626 22.1324 6.1958l.0722-.4617c-10.1954-.1298-18.3229-2.5483-18.3229-5.5148 0-2.8952 7.7482-5.26803 17.6036-5.4995zm3.3849 0c11.9544.23302 21.3839 2.9126 21.3839 6.1846 0 3.3401-9.8255 6.0626-22.1325 6.1958l-.0721-.4617c10.1954-.1298 18.3228-2.5483 18.3228-5.5148 0-2.8952-7.7482-5.26803-17.6036-5.4995zm-.9629 11.0728c7.6682-.1089 13.7691-1.9255 13.7691-4.1503v-.0003c0-2.1603-5.7552-3.9355-13.1114-4.1356l.102-.90967c8.61.21527 15.3658 2.28977 15.3658 4.81907 0 2.5966-7.1179 4.7152-16.0543 4.8341zm11.4476-3.8684c0-1.7926-4.7718-3.2676-10.8914-3.4487l-.102.9097c4.8773.1637 8.6604 1.3394 8.6604 2.7658 0 1.4852-4.0958 2.6983-9.259 2.7823l.0713.4539c6.4188-.0949 11.5207-1.6091 11.5207-3.463zm-26.6759-.2822c0 2.2251 6.1009 4.0417 13.7692 4.1506l-.0716.4573c-8.936-.1189-16.054-2.2375-16.054-4.8341 0-2.5293 6.7555-4.6038 15.3658-4.81907l.1021.90967c-7.3566.2001-13.1115 1.9753-13.1115 4.1356zm13.2129-3.1665c-6.1196.1811-10.8914 1.6561-10.8914 3.4487 0 1.8542 5.1019 3.3681 11.5208 3.4627l.0712-.4536c-5.1632-.084-9.2593-1.2974-9.2593-2.7823 0-1.4264 3.7834-2.6021 8.6607-2.7658z"/></g></g></svg>