<svg fill="none" height="65" viewBox="0 0 64 65" width="64" xmlns="http://www.w3.org/2000/svg" xmlns:xlink="http://www.w3.org/1999/xlink"><clipPath id="a"><path d="m-.000244.66626h64v64h-64z"/></clipPath><g clip-path="url(#a)"><path d="m21.3332 64.6663c5.8881 0 10.6668-4.7788 10.6668-10.6668v-10.6667h-10.6668c-5.888 0-10.6668 4.7787-10.6668 10.6667s4.7788 10.6668 10.6668 10.6668z" fill="#0acf83"/><path d="m10.6664 32.6661c0-5.888 4.7788-10.6667 10.6668-10.6667h10.6668v21.3332h-10.6668c-5.888.0003-10.6668-4.7785-10.6668-10.6665z" fill="#a259ff"/><path d="m10.6664 11.333c0-5.88799 4.7788-10.66674 10.6668-10.66674h10.6668v21.33324h-10.6668c-5.888 0-10.6668-4.7785-10.6668-10.6665z" fill="#f24e1e"/><path d="m31.9994.66626h10.6668c5.8881 0 10.6669 4.77875 10.6669 10.66674 0 5.888-4.7788 10.6665-10.6669 10.6665h-10.6668z" fill="#ff7262"/><path d="m53.3331 32.6661c0 5.888-4.7788 10.6668-10.6669 10.6668-5.888 0-10.6668-4.7788-10.6668-10.6668s4.7788-10.6667 10.6668-10.6667c5.8881 0 10.6669 4.7787 10.6669 10.6667z" fill="#1abcfe"/></g></svg>