<svg fill="none" height="37" viewBox="0 0 170 37" width="170" xmlns="http://www.w3.org/2000/svg" xmlns:xlink="http://www.w3.org/1999/xlink"><linearGradient id="a" gradientUnits="userSpaceOnUse" x1="18.5102" x2="18.5102" y1=".921143" y2="36.1211"><stop offset="0" stop-color="#3558ea"/><stop offset="1" stop-color="#00f"/></linearGradient><linearGradient id="b" gradientUnits="userSpaceOnUse" x1="23.193" x2="7.689" y1="6.03436" y2="52.2299"><stop offset=".215628" stop-color="#1e1983" stop-opacity="0"/><stop offset=".447191" stop-color="#1e1983" stop-opacity=".19"/><stop offset=".619792" stop-color="#1e1983"/></linearGradient><clipPath id="c"><path d="m.910156.921143h168.178v35.2h-168.178z"/></clipPath><g clip-path="url(#c)"><path d="m36.1102 18.5211c0-9.72017-7.8798-17.599957-17.6-17.599957-9.72026 0-17.600044 7.879787-17.600044 17.599957 0 9.7203 7.879784 17.6 17.600044 17.6 9.7202 0 17.6-7.8797 17.6-17.6z" fill="url(#a)"/><path d="m36.1102 18.5211c0-9.72017-7.8798-17.599957-17.6-17.599957-9.72026 0-17.600044 7.879787-17.600044 17.599957 0 9.7203 7.879784 17.6 17.600044 17.6 9.7202 0 17.6-7.8797 17.6-17.6z" fill="url(#b)" fill-opacity=".56"/><g fill="#fff"><path d="m18.7942 7.52075c2.7871 0 5.4181 1.02971 7.4541 2.90695.1128.1041.114.2809.0055.3894l-4.3096 4.3096c-.1043.1044-.272.107-.3862.0134-.7783-.6372-1.7441-.9833-2.762-.9833-2.4098-.0016-4.3691 1.9577-4.3691 4.364h-6.63784c0-6.0655 4.93794-11.00005 11.00514-11.00005z"/><path d="m14.4269 18.5208c0 2.2583 1.7255 4.1224 3.9283 4.3436.1468.0148.2637.1352.2637.2828v6.0942c0 .1535-.1265.2777-.2801.2714-5.8582-.24-10.54974-5.0789-10.54974-10.992z"/><path d="m25.3313 19.3938h-2.5953c-.152 0-.2751.1232-.2751.275v2.5936c0 .1519.1231.2751.2751.2751h2.5953c.1518 0 .275-.1232.275-.2751v-2.5936c0-.1518-.1232-.275-.275-.275z" opacity=".56"/><path d="m28.8234 19.3938h-2.5953c-.1519 0-.275.1232-.275.275v2.5936c0 .1519.1231.2751.275.2751h2.5953c.1518 0 .275-.1232.275-.2751v-2.5936c0-.1518-.1232-.275-.275-.275z" opacity=".4"/><path d="m25.3313 22.886h-2.5953c-.152 0-.2751.1231-.2751.2749v2.5937c0 .1518.1231.2749.2751.2749h2.5953c.1518 0 .275-.1231.275-.2749v-2.5937c0-.1518-.1232-.2749-.275-.2749z" opacity=".72"/><path d="m21.839 22.886h-2.5953c-.1518 0-.2749.1231-.2749.2749v2.5937c0 .1518.1231.2749.2749.2749h2.5953c.152 0 .2751-.1231.2751-.2749v-2.5937c0-.1518-.1231-.2749-.2751-.2749z" opacity=".88"/><path d="m28.8234 22.886h-2.5953c-.1519 0-.275.1231-.275.2749v2.5937c0 .1518.1231.2749.275.2749h2.5953c.1518 0 .275-.1231.275-.2749v-2.5937c0-.1518-.1232-.2749-.275-.2749z" opacity=".56"/><path d="m25.3313 26.3762h-2.5953c-.152 0-.2751.1231-.2751.275v2.5936c0 .1519.1231.275.2751.275h2.5953c.1518 0 .275-.1231.275-.275v-2.5936c0-.1519-.1232-.275-.275-.275z" opacity=".88"/><path d="m21.839 26.3762h-2.5953c-.1518 0-.2749.1231-.2749.275v2.5936c0 .1519.1231.275.2749.275h2.5953c.152 0 .2751-.1231.2751-.275v-2.5936c0-.1519-.1231-.275-.2751-.275z" opacity=".96"/><path d="m28.8234 26.3762h-2.5953c-.1519 0-.275.1231-.275.275v2.5936c0 .1519.1231.275.275.275h2.5953c.1518 0 .275-.1231.275-.275v-2.5936c0-.1519-.1232-.275-.275-.275z" opacity=".72"/></g><path d="m56.5875 10.8213h2.772v15.8928c0 1.0164-.2366 1.961-.7096 2.8336-.462.883-1.089 1.6478-1.881 2.2947-.792.6569-1.694 1.1652-2.706 1.5245-1.012.3696-2.068.5544-3.168.5544-1.144 0-2.2494-.2412-3.3165-.7237-1.0669-.4723-2.002-1.1089-2.8049-1.9097-.792-.7906-1.364-1.6786-1.716-2.6642l2.5409-1.078c.2091.7084.5831 1.345 1.122 1.9096.55.575 1.188 1.0267 1.914 1.3552.7371.3388 1.4905.5082 2.2605.5082.726 0 1.4246-.1181 2.0955-.3542.682-.2361 1.2925-.5646 1.8315-.9856.55-.4106.979-.8983 1.287-1.4629.319-.5544.4786-1.1551.4786-1.8019v-3.0646c-.5611.8829-1.3036 1.6016-2.2276 2.156-.913.5442-1.98.8162-3.201.8162-1.166 0-2.2605-.2104-3.2834-.6313-1.0231-.421-1.9196-1.0011-2.6896-1.7403-.77-.7494-1.375-1.6118-1.815-2.5872-.44-.9753-.66-2.0225-.66-3.1416 0-1.119.22-2.1662.66-3.1416.44-.9856 1.045-1.848 1.815-2.5872.77-.7494 1.6665-1.3346 2.6896-1.7556 1.0229-.4209 2.1174-.6314 3.2834-.6314 1.221 0 2.288.2721 3.201.8162.924.5442 1.6665 1.2628 2.2276 2.156zm-5.412 13.2903c1.0669 0 1.9909-.2567 2.772-.77.792-.5134 1.4024-1.1962 1.8314-2.0483s.6435-1.7761.6435-2.772c0-1.0266-.22-1.9609-.66-2.8028-.4289-.8521-1.0395-1.5297-1.8315-2.0328-.781-.5133-1.6994-.77-2.7554-.77-1.034 0-1.98.2516-2.838.7547-.858.503-1.54 1.1806-2.046 2.0328-.4951.8418-.7426 1.7812-.7426 2.8181 0 1.037.253 1.9815.7591 2.8336.5169.8419 1.1989 1.5144 2.0459 2.0175.858.4928 1.7985.7392 2.8216.7392z" fill="#1e1983"/><path d="m62.0078 26.2211v-15.4h2.772v1.925c.5831-.7186 1.32-1.2885 2.2111-1.7094.8909-.4312 1.8589-.6468 2.904-.6468.638 0 1.254.077 1.848.231l-1.122 2.5872c-.4511-.1334-.8911-.2002-1.32-.2002-.8251 0-1.584.19-2.2771.5698-.682.3696-1.2265.8727-1.6335 1.5092-.407.6366-.6105 1.345-.6105 2.1252v9.009z" fill="#1e1983"/><path d="m84.881 10.8211h2.772v15.4h-2.772l-.1155-2.6026c-.517.8932-1.232 1.617-2.145 2.1714-.902.5544-1.98.8316-3.234.8316-1.21 0-2.343-.2104-3.399-.6314-1.056-.4312-1.991-1.0215-2.805-1.771-.803-.7597-1.43-1.6324-1.881-2.618s-.6765-2.0482-.6765-3.1878c0-1.0985.22-2.1354.66-3.1108.44-.9753 1.0505-1.8274 1.8315-2.5564.792-.7392 1.705-1.3141 2.739-1.7248 1.034-.4209 2.145-.6314 3.333-.6314 1.298 0 2.4365.2875 3.4156.8624.9789.5647 1.7709 1.2988 2.376 2.2022zm-5.544 13.2902c1.0891 0 2.0295-.2464 2.8215-.7392.803-.503 1.419-1.1806 1.848-2.0328.44-.8521.66-1.7915.66-2.8182 0-1.0472-.22-1.9917-.66-2.8336-.44-.8521-1.0615-1.5246-1.8645-2.0174-.792-.503-1.727-.7546-2.805-.7546-1.0889 0-2.0789.2516-2.97.7546-.8909.5031-1.6005 1.1807-2.1285 2.0328-.517.8419-.7755 1.7813-.7755 2.8182s.2695 1.9815.8085 2.8336c.539.8419 1.254 1.5144 2.145 2.0174.891.4928 1.8645.7392 2.9205.7392z" fill="#1e1983"/><path d="m100.416 10.8215h2.937l-9.0259 23.1h-2.937l2.9865-7.7-5.9235-15.4h3.036l4.2735 11.8426z" fill="#1e1983"/><path d="m117.369 10.8213h2.772v15.8928c0 1.0164-.237 1.961-.71 2.8336-.462.883-1.089 1.6478-1.881 2.2947-.792.6569-1.694 1.1652-2.706 1.5245-1.012.3696-2.068.5544-3.168.5544-1.144 0-2.25-.2412-3.316-.7237-1.067-.4723-2.002-1.1089-2.806-1.9097-.792-.7906-1.364-1.6786-1.716-2.6642l2.542-1.078c.209.7084.582 1.345 1.122 1.9096.55.575 1.188 1.0267 1.914 1.3552.737.3388 1.49.5082 2.26.5082.726 0 1.425-.1181 2.096-.3542.682-.2361 1.292-.5646 1.831-.9856.55-.4106.979-.8983 1.287-1.4629.319-.5544.479-1.1551.479-1.8019v-3.0646c-.561.8829-1.304 1.6016-2.228 2.156-.913.5442-1.98.8162-3.201.8162-1.166 0-2.26-.2104-3.283-.6313-1.023-.421-1.92-1.0011-2.69-1.7403-.77-.7494-1.375-1.6118-1.815-2.5872-.44-.9753-.66-2.0225-.66-3.1416 0-1.119.22-2.1662.66-3.1416.44-.9856 1.045-1.848 1.815-2.5872.77-.7494 1.667-1.3346 2.69-1.7556 1.023-.4209 2.117-.6314 3.283-.6314 1.221 0 2.288.2721 3.201.8162.924.5442 1.667 1.2628 2.228 2.156zm-5.412 13.2903c1.067 0 1.991-.2567 2.772-.77.792-.5134 1.402-1.1962 1.831-2.0483s.644-1.7761.644-2.772c0-1.0266-.22-1.9609-.66-2.8028-.43-.8521-1.04-1.5297-1.832-2.0328-.781-.5133-1.699-.77-2.755-.77-1.035 0-1.98.2516-2.839.7547-.857.503-1.54 1.1806-2.045 2.0328-.495.8418-.743 1.7812-.743 2.8181 0 1.037.253 1.9815.759 2.8336.517.8419 1.199 1.5144 2.046 2.0175.858.4928 1.799.7392 2.822.7392z" fill="#1e1983"/><path d="m122.789 26.2211v-15.4h2.772v1.925c.584-.7186 1.32-1.2885 2.212-1.7094.891-.4312 1.859-.6468 2.904-.6468.637 0 1.253.077 1.848.231l-1.123 2.5872c-.45-.1334-.89-.2002-1.32-.2002-.825 0-1.584.19-2.277.5698-.681.3696-1.226.8727-1.633 1.5092-.407.6366-.611 1.345-.611 2.1252v9.009z" fill="#1e1983"/><path d="m133.234 10.8201h2.772v15.4h-2.772zm1.419-2.51022c-.44 0-.808-.13347-1.106-.4004-.297-.26693-.445-.6006-.445-1.001s.148-.73407.445-1.001c.298-.26693.66-.4004 1.09-.4004.429 0 .792.13347 1.089.4004.296.26693.445.6006.445 1.001s-.149.73407-.445 1.001c-.287.26693-.644.4004-1.073.4004z" fill="#1e1983"/><path d="m151.706 3.12036h2.772v23.10004h-2.772v-2.618c-.561.9034-1.315 1.6324-2.26 2.1868-.947.5544-2.058.8316-3.334.8316-1.198 0-2.321-.2105-3.366-.6314-1.044-.4209-1.968-1.001-2.772-1.7402-.792-.7495-1.413-1.6119-1.864-2.5872-.452-.9754-.676-2.0226-.676-3.1416 0-1.1191.224-2.1663.676-3.1416.451-.9856 1.072-1.848 1.864-2.5872.804-.7495 1.728-1.3347 2.772-1.7556 1.045-.421 2.168-.6314 3.366-.6314 1.276 0 2.387.2772 3.334.8316.945.5544 1.699 1.2833 2.26 2.1868zm-5.56 20.99024c1.088 0 2.028-.2464 2.82-.7392.804-.5031 1.42-1.1807 1.848-2.0328.44-.8521.66-1.7916.66-2.8182 0-1.0472-.22-1.9918-.66-2.8336-.44-.8522-1.06-1.5246-1.864-2.0174-.792-.5031-1.727-.7546-2.804-.7546-1.09 0-2.08.2515-2.971.7546-.88.5031-1.584 1.1807-2.112 2.0328-.528.8419-.792 1.7812-.792 2.8182 0 1.0369.27 1.9814.809 2.8336.538.8418 1.254 1.5143 2.145 2.0174.891.4928 1.865.7392 2.921.7392z" fill="#1e1983"/><path d="m162.149 26.5123c-.891-.0308-1.76-.1847-2.607-.462-.836-.2874-1.573-.6724-2.211-1.155-.627-.4928-1.084-1.0574-1.37-1.694l2.376-.9548c.165.3491.462.6776.892.9856.428.308.924.5544 1.484.7392.561.1848 1.128.2772 1.7.2772.605 0 1.172-.0872 1.7-.2617s.956-.4312 1.286-.77c.342-.3491.512-.7649.512-1.2475 0-.5133-.187-.9137-.561-1.2012-.363-.2977-.825-.5287-1.386-.693-.55-.1744-1.111-.3388-1.683-.4927-1.133-.267-2.145-.5852-3.036-.9548-.891-.3799-1.595-.8573-2.112-1.4323-.506-.5852-.759-1.3294-.759-2.2329 0-.9548.28-1.7813.841-2.4795.572-.6981 1.32-1.237 2.244-1.6169s1.914-.5699 2.97-.5699c1.332 0 2.547.267 3.647.8008 1.1.5339 1.919 1.2578 2.458 2.1715l-2.227 1.2165c-.187-.3696-.473-.6929-.858-.9701-.385-.2875-.825-.5133-1.32-.6776s-1.001-.2516-1.518-.2619c-.638-.0205-1.238.0566-1.798.2311-.551.1745-.996.4415-1.337.8007-.33.3492-.495.7854-.495 1.309 0 .5134.176.9035.528 1.1704.363.267.83.4826 1.402.6468.583.154 1.216.3338 1.898.5391 1.001.2977 1.936.6416 2.805 1.0317.869.3902 1.567.8779 2.095 1.4631.54.5852.804 1.3089.792 2.1713 0 .9446-.302 1.7711-.907 2.4795-.605.6981-1.392 1.2319-2.36 1.6015-.957.3697-1.985.5339-3.085.4928z" fill="#1e1983"/></g></svg>