<svg fill="none" height="67" viewBox="0 0 67 67" width="67" xmlns="http://www.w3.org/2000/svg" xmlns:xlink="http://www.w3.org/1999/xlink"><clipPath id="a"><path d="m.333008.332886h66.6667v66.6667h-66.6667z"/></clipPath><g clip-path="url(#a)"><path d="m14.448.332764h2.9948v2.968746h2.7604v-2.968746h2.9948v8.984376h-2.9948v-2.99479h-2.7344v2.99479h-3.0208m12.7083-5.98958h-2.6432v-2.994796h8.2943v2.994796h-2.6563v5.98958h-2.9948m6.9662-8.984376h3.138l1.9271 3.164066 1.9271-3.164066h3.138v8.984376h-2.9948v-4.45313l-2.0964 3.22917-2.0963-3.22917v4.45313h-2.9427m11.6146-8.984376h2.9948v6.015626h4.2447v2.96875h-7.2395" fill="#fff"/><path d="m14.3438 61.6609-4.2969-48.2291h47.2396l-4.2969 48.2031-19.362 5.3646" fill="#e44d26"/><path d="m33.6667 62.8979v-45.5078h19.3099l-3.6849 41.1459" fill="#f16529"/><path d="m18.823 23.2886h14.8437v5.9114h-8.3593l.5468 6.0547h7.8125v5.8985h-13.2291m.2604 2.9687h5.9375l.4167 4.7266 6.6145 1.7708v6.1719l-12.1354-3.3854" fill="#ebebeb"/><path d="m48.4583 23.2886h-14.8177v5.9114h14.2709m-.5339 6.0547h-13.737v5.9115h7.2917l-.6901 7.6823-6.6016 1.7708v6.1458l12.1094-3.3593" fill="#fff"/></g></svg>