<svg width="470" height="550" viewBox="0 0 470 550" fill="none" xmlns="http://www.w3.org/2000/svg">
<g clip-path="url(#clip0_3099_8903)">
<rect width="470" height="550" rx="16" fill="#DCD6FF"/>
<g clip-path="url(#clip1_3099_8903)">
<rect x="80" y="61.25" width="1038.68" height="593.739" rx="19.2051" fill="#F7F7FA"/>
<rect width="1055.54" height="51.3108" transform="translate(63.1406 61.25)" fill="white"/>
<path d="M190.744 99.7569C190.744 100.339 191.216 100.81 191.798 100.81C192.38 100.81 192.851 100.339 192.851 99.7569V88.7921C192.851 88.2102 192.38 87.7385 191.798 87.7385C191.216 87.7385 190.744 88.2102 190.744 88.7921V99.7569Z" fill="#343C54"/>
<path d="M196.907 99.7569C196.907 100.339 196.435 100.81 195.853 100.81C195.271 100.81 194.8 100.339 194.8 99.7569V92.1088C194.8 91.527 195.271 91.0553 195.853 91.0553C196.435 91.0553 196.907 91.527 196.907 92.1088V99.7569Z" fill="#343C54"/>
<path d="M220.159 99.7569C220.159 100.339 220.631 100.81 221.213 100.81C221.795 100.81 222.267 100.339 222.267 99.7569V92.1088C222.267 91.527 221.795 91.0553 221.213 91.0553C220.631 91.0553 220.159 91.527 220.159 92.1088V99.7569Z" fill="#343C54"/>
<path d="M228.457 101.025C227.442 101.025 226.584 100.81 225.882 100.381C225.179 99.952 224.639 99.3602 224.262 98.6058C223.898 97.8514 223.716 96.9734 223.716 95.9719C223.716 94.9703 223.905 94.0924 224.282 93.338C224.672 92.5705 225.225 91.9787 225.94 91.5625C226.656 91.1333 227.52 90.9187 228.535 90.9187C229.393 90.9187 230.148 91.0813 230.798 91.4064C231.449 91.7316 231.949 92.1868 232.301 92.7722C232.532 93.1447 232.675 93.5438 232.755 93.9582C232.866 94.5239 232.379 94.9963 231.803 94.9963C231.227 94.9963 230.809 94.5105 230.615 93.9677C230.527 93.7216 230.389 93.4974 230.174 93.3184C229.797 92.9803 229.205 92.8112 228.398 92.8112C227.462 92.8112 226.792 93.0778 226.389 93.6111C225.999 94.1314 225.804 94.9118 225.804 95.9524C225.804 97.0059 225.999 97.7993 226.389 98.3326C226.792 98.8529 227.462 99.113 228.398 99.113C229.205 99.113 229.797 98.9505 230.174 98.6253C230.384 98.4429 230.522 98.2195 230.611 97.9753C230.808 97.4334 231.227 96.9474 231.803 96.9474C232.379 96.9474 232.865 97.4201 232.75 97.985C232.667 98.3915 232.525 98.7831 232.301 99.1521C231.936 99.7374 231.423 100.199 230.759 100.537C230.109 100.862 229.341 101.025 228.457 101.025Z" fill="#343C54"/>
<path fill-rule="evenodd" clip-rule="evenodd" d="M236.401 100.381C237.13 100.797 237.988 101.006 238.977 101.006C239.965 101.006 240.811 100.797 241.513 100.381C242.228 99.952 242.775 99.3602 243.152 98.6058C243.542 97.8384 243.737 96.9539 243.737 95.9524C243.737 94.9508 243.542 94.0729 243.152 93.3184C242.775 92.564 242.228 91.9787 241.513 91.5625C240.811 91.1333 239.965 90.9187 238.977 90.9187C237.988 90.9187 237.13 91.1333 236.401 91.5625C235.673 91.9787 235.114 92.564 234.723 93.3184C234.333 94.0729 234.138 94.9508 234.138 95.9524C234.138 96.9539 234.333 97.8384 234.723 98.6058C235.114 99.3602 235.673 99.952 236.401 100.381ZM241.103 98.3716C240.7 98.8789 239.991 99.1325 238.977 99.1325C237.949 99.1325 237.234 98.8789 236.83 98.3716C236.427 97.8514 236.226 97.0449 236.226 95.9524C236.226 94.8598 236.427 94.0598 236.83 93.5526C237.234 93.0453 237.949 92.7917 238.977 92.7917C239.991 92.7917 240.7 93.0453 241.103 93.5526C241.506 94.0598 241.708 94.8598 241.708 95.9524C241.708 97.0449 241.506 97.8514 241.103 98.3716Z" fill="#343C54"/>
<path d="M254.346 99.7569C254.346 100.339 253.874 100.81 253.292 100.81C252.71 100.81 252.239 100.339 252.239 99.7569V95.1719C252.239 94.3135 252.076 93.6956 251.751 93.3184C251.426 92.9282 250.814 92.7331 249.917 92.7331C249.344 92.7331 248.876 92.8177 248.512 92.9868C248.148 93.1429 247.875 93.403 247.693 93.7672C247.51 94.1184 247.419 94.5996 247.419 95.211V99.7569C247.419 100.339 246.948 100.81 246.366 100.81C245.784 100.81 245.312 100.339 245.312 99.7569V92.0795C245.312 91.5462 245.745 91.1138 246.278 91.1138C246.811 91.1138 247.244 91.5462 247.244 92.0795V92.9282H247.341C247.484 92.5771 247.699 92.2519 247.985 91.9527C248.271 91.6536 248.636 91.4064 249.078 91.2113C249.533 91.0162 250.073 90.9187 250.697 90.9187C251.543 90.9187 252.232 91.0813 252.765 91.4064C253.299 91.7316 253.695 92.1803 253.955 92.7526C254.216 93.325 254.346 93.9818 254.346 94.7232V99.7569Z" fill="#343C54"/>
<path d="M260.384 101.006C258.966 101.006 257.893 100.726 257.164 100.167C256.619 99.7381 256.317 99.1452 256.175 98.501C256.054 97.9538 256.526 97.4937 257.086 97.4937C257.647 97.4937 258.01 97.9721 258.207 98.4967C258.231 98.5605 258.26 98.623 258.296 98.6838C258.439 98.8919 258.673 99.048 258.998 99.1521C259.337 99.2431 259.811 99.2886 260.423 99.2886C260.943 99.2886 261.333 99.2496 261.593 99.1716C261.866 99.0805 262.049 98.957 262.14 98.8009C262.231 98.6448 262.276 98.4497 262.276 98.2156C262.276 97.8254 262.14 97.5522 261.866 97.3961C261.593 97.227 261.106 97.0775 260.403 96.9474L258.881 96.6937C258.309 96.5767 257.808 96.4141 257.379 96.206C256.963 95.9849 256.638 95.6857 256.404 95.3085C256.182 94.9183 256.072 94.4305 256.072 93.8452C256.072 92.9738 256.417 92.2714 257.106 91.7381C257.795 91.1918 258.771 90.9187 260.032 90.9187C260.8 90.9187 261.483 91.0422 262.081 91.2894C262.679 91.5365 263.154 91.9072 263.505 92.4015C263.731 92.7186 263.865 93.0673 263.942 93.4316C264.056 93.9747 263.582 94.4305 263.027 94.4305C262.472 94.4305 262.104 93.953 261.887 93.4423C261.88 93.427 261.874 93.4117 261.866 93.3965C261.762 93.1624 261.567 92.9803 261.281 92.8502C260.995 92.7201 260.559 92.6551 259.974 92.6551C259.207 92.6551 258.699 92.7526 258.452 92.9478C258.205 93.1429 258.081 93.429 258.081 93.8062C258.081 94.1834 258.192 94.4501 258.413 94.6061C258.647 94.7492 259.102 94.8923 259.779 95.0354L261.437 95.3475C262.062 95.4646 262.582 95.6402 262.998 95.8743C263.414 96.1084 263.726 96.4141 263.935 96.7913C264.156 97.1685 264.266 97.6172 264.266 98.1375C264.266 99.048 263.922 99.7569 263.232 100.264C262.556 100.758 261.606 101.006 260.384 101.006Z" fill="#343C54"/>
<path fill-rule="evenodd" clip-rule="evenodd" d="M214.166 101.006C213.113 101.006 212.235 100.797 211.532 100.381C210.83 99.952 210.31 99.3602 209.971 98.6058C209.633 97.8384 209.464 96.9539 209.464 95.9524C209.464 94.9508 209.653 94.0729 210.03 93.3184C210.42 92.564 210.967 91.9787 211.669 91.5625C212.371 91.1333 213.204 90.9187 214.166 90.9187C215.038 90.9187 215.805 91.0878 216.468 91.4259C217.145 91.7511 217.665 92.2259 218.029 92.8502C218.406 93.4745 218.595 94.2289 218.595 95.1134C218.595 95.2865 218.591 95.4622 218.583 95.6381C218.559 96.1144 218.148 96.4596 217.671 96.4596H211.441C211.462 96.9765 211.538 97.4253 211.669 97.8058C211.838 98.2481 212.124 98.5798 212.527 98.8009C212.931 99.022 213.483 99.1325 214.186 99.1325C215.005 99.1325 215.584 99.0025 215.922 98.7423C216.006 98.6775 216.078 98.6075 216.138 98.5328C216.5 98.0841 216.897 97.5522 217.473 97.5522C218.05 97.5522 218.545 98.0294 218.392 98.5854C218.307 98.895 218.173 99.1901 217.971 99.4642C217.607 99.9455 217.099 100.323 216.449 100.596C215.812 100.869 215.051 101.006 214.166 101.006ZM212.001 93.455C211.698 93.8624 211.516 94.3957 211.457 95.0549H216.579C216.602 94.5448 216.533 94.122 216.371 93.7867C216.202 93.4095 215.922 93.1298 215.532 92.9478C215.155 92.7657 214.68 92.6746 214.108 92.6746C213.08 92.6746 212.378 92.9347 212.001 93.455Z" fill="#343C54"/>
<path d="M205.768 99.7569C205.768 100.339 206.24 100.81 206.821 100.81C207.403 100.81 207.875 100.339 207.875 99.7569V94.7232C207.875 93.9818 207.745 93.325 207.485 92.7526C207.225 92.1803 206.828 91.7316 206.295 91.4064C205.761 91.0813 205.072 90.9187 204.227 90.9187C203.602 90.9187 203.062 91.0162 202.607 91.2113C202.165 91.4064 201.801 91.6536 201.515 91.9527C201.228 92.2519 201.014 92.5771 200.871 92.9282H200.773V92.0795C200.773 91.5462 200.341 91.1138 199.807 91.1138C199.274 91.1138 198.842 91.5462 198.842 92.0795V99.7569C198.842 100.339 199.313 100.81 199.895 100.81C200.477 100.81 200.949 100.339 200.949 99.7569V95.211C200.949 94.5996 201.04 94.1184 201.222 93.7672C201.404 93.403 201.677 93.1429 202.041 92.9868C202.406 92.8177 202.874 92.7331 203.446 92.7331C204.344 92.7331 204.955 92.9282 205.28 93.3184C205.605 93.6956 205.768 94.3135 205.768 95.1719V99.7569Z" fill="#343C54"/>
<path d="M197.066 88.8402C197.066 89.5175 196.517 90.0665 195.84 90.0665C195.167 90.0665 194.62 89.5242 194.613 88.8514L194.613 88.7943C194.607 88.1126 195.158 87.5566 195.839 87.5566C196.517 87.5566 197.066 88.1058 197.066 88.7831V88.8402Z" fill="#343C54"/>
<path d="M222.418 88.8402C222.418 89.5175 221.869 90.0665 221.192 90.0665C220.519 90.0665 219.972 89.5242 219.966 88.8514L219.965 88.7943C219.959 88.1126 220.51 87.5566 221.192 87.5566C221.869 87.5566 222.418 88.1058 222.418 88.7831V88.8402Z" fill="#343C54"/>
<path d="M168.009 88.6271C167.766 88.3832 167.405 88.2759 167.063 88.3637C166.722 88.4418 166.449 88.6954 166.341 89.0368L162.147 102.099C162.03 102.46 162.127 102.85 162.39 103.114C162.586 103.309 162.839 103.406 163.103 103.406C163.2 103.406 163.307 103.387 163.405 103.357L176.477 99.1627C176.809 99.0554 177.062 98.7823 177.15 98.4409C177.238 98.0994 177.131 97.7385 176.887 97.4946L168.009 88.6271ZM164.654 100.86L167.746 91.2122L174.302 97.7677L164.654 100.86Z" fill="#725CFF"/>
<path d="M173.394 90.7924C173.463 91.2997 173.892 91.6704 174.389 91.6704C174.827 91.6704 175.273 91.5711 175.706 91.5143C176.965 91.3485 177.921 90.2656 177.911 88.9975V88.6853C177.911 88.539 177.97 88.4122 178.067 88.3146C178.165 88.2171 178.301 88.1585 178.438 88.1585H180.096C180.652 88.1585 181.101 87.7098 181.101 87.1537C181.101 86.5977 180.652 86.1489 180.096 86.1489H178.438C177.765 86.1489 177.131 86.4123 176.653 86.8903C176.175 87.3683 175.911 88.0122 175.911 88.6853V88.9975C175.911 89.2609 175.716 89.4852 175.453 89.5145L174.263 89.6706C173.716 89.7389 173.326 90.2461 173.394 90.7924Z" fill="#725CFF"/>
<path d="M183.217 92.1975C180.681 90.2563 177.94 91.9732 176.838 93.1536C176.457 93.5535 176.486 94.1876 176.886 94.5681C177.292 94.9536 177.925 94.9236 178.301 94.529C178.379 94.4412 180.281 92.4707 181.998 93.7876C182.437 94.1291 183.071 94.0413 183.403 93.6023C183.744 93.1633 183.656 92.5292 183.217 92.1975Z" fill="#725CFF"/>
<path d="M172.233 88.6857C173.355 87.8272 174.487 85.8177 173.014 83.8178C172.682 83.3691 172.058 83.2716 171.609 83.6032C171.16 83.9349 171.063 84.5592 171.394 85.008C172.165 86.0518 171.287 86.881 171.004 87.1053C170.565 87.4468 170.487 88.0711 170.819 88.5101C171.162 88.9562 171.793 89.0103 172.233 88.6857Z" fill="#725CFF"/>
<mask id="path-5-inside-1_3099_8903" fill="white">
<path d="M63.1406 112.561H1118.68V196.124H63.1406V112.561Z"/>
</mask>
<path d="M63.1406 112.561H1118.68V196.124H63.1406V112.561Z" fill="white"/>
<path d="M1118.68 195.391H63.1406V196.857H1118.68V195.391Z" fill="#F4F2FF" mask="url(#path-5-inside-1_3099_8903)"/>
<rect x="162.645" y="135.101" width="375.668" height="45.8132" rx="22.9066" fill="white"/>
<rect x="162.645" y="135.101" width="375.668" height="45.8132" rx="22.9066" stroke="#C4DFD6" stroke-width="1.09952"/>
<path fill-rule="evenodd" clip-rule="evenodd" d="M187.966 157.549C187.966 155.087 189.962 153.091 192.425 153.091C194.888 153.091 196.884 155.087 196.884 157.549C196.884 160.011 194.888 162.007 192.425 162.007C189.962 162.007 187.966 160.011 187.966 157.549ZM192.425 151.625C189.153 151.625 186.5 154.277 186.5 157.549C186.5 160.821 189.153 163.473 192.425 163.473C193.797 163.473 195.059 163.007 196.063 162.225L198.014 164.176C198.3 164.462 198.765 164.462 199.051 164.176C199.337 163.89 199.337 163.426 199.051 163.139L197.1 161.189C197.884 160.184 198.35 158.921 198.35 157.549C198.35 154.277 195.697 151.625 192.425 151.625Z" fill="#545E7D"/>
<path d="M214.763 161.61C214.203 161.61 213.724 161.508 213.327 161.303C212.93 161.097 212.578 160.8 212.27 160.41L212.927 159.753C213.152 160.068 213.412 160.307 213.706 160.471C214.001 160.629 214.363 160.707 214.794 160.707C215.218 160.707 215.557 160.615 215.81 160.43C216.07 160.246 216.2 159.992 216.2 159.671C216.2 159.404 216.139 159.189 216.015 159.024C215.892 158.86 215.725 158.727 215.513 158.624C215.307 158.515 215.082 158.419 214.835 158.337C214.589 158.248 214.343 158.156 214.096 158.06C213.85 157.957 213.624 157.834 213.419 157.69C213.214 157.54 213.046 157.345 212.916 157.105C212.793 156.866 212.732 156.565 212.732 156.202C212.732 155.799 212.827 155.457 213.019 155.176C213.217 154.889 213.484 154.67 213.819 154.519C214.161 154.362 214.545 154.283 214.969 154.283C215.434 154.283 215.851 154.376 216.221 154.56C216.59 154.738 216.891 154.974 217.124 155.268L216.467 155.925C216.255 155.679 216.026 155.494 215.779 155.371C215.54 155.248 215.263 155.186 214.948 155.186C214.565 155.186 214.261 155.272 214.035 155.443C213.809 155.607 213.696 155.84 213.696 156.141C213.696 156.38 213.758 156.575 213.881 156.726C214.011 156.869 214.179 156.992 214.384 157.095C214.589 157.198 214.815 157.293 215.061 157.382C215.314 157.465 215.564 157.557 215.81 157.66C216.057 157.762 216.282 157.892 216.488 158.049C216.693 158.207 216.857 158.412 216.98 158.665C217.11 158.911 217.175 159.223 217.175 159.599C217.175 160.228 216.956 160.721 216.518 161.077C216.087 161.433 215.502 161.61 214.763 161.61ZM220.499 161.61C220.013 161.61 219.575 161.501 219.185 161.282C218.795 161.056 218.487 160.752 218.261 160.369C218.036 159.986 217.923 159.551 217.923 159.065C217.923 158.587 218.032 158.156 218.251 157.772C218.477 157.389 218.778 157.088 219.154 156.869C219.537 156.644 219.965 156.531 220.437 156.531C220.888 156.531 221.285 156.633 221.627 156.839C221.976 157.044 222.247 157.328 222.438 157.69C222.636 158.053 222.736 158.463 222.736 158.922C222.736 158.99 222.732 159.065 222.725 159.148C222.719 159.223 222.705 159.312 222.684 159.414H218.569V158.645H222.192L221.853 158.942C221.853 158.614 221.795 158.337 221.679 158.111C221.562 157.878 221.398 157.701 221.186 157.577C220.974 157.447 220.717 157.382 220.416 157.382C220.102 157.382 219.825 157.451 219.585 157.588C219.346 157.724 219.161 157.916 219.031 158.162C218.901 158.409 218.836 158.699 218.836 159.035C218.836 159.377 218.904 159.678 219.041 159.938C219.178 160.191 219.373 160.389 219.626 160.533C219.879 160.67 220.17 160.738 220.499 160.738C220.772 160.738 221.022 160.69 221.248 160.594C221.48 160.499 221.679 160.355 221.843 160.163L222.438 160.769C222.205 161.043 221.918 161.251 221.576 161.395C221.241 161.539 220.882 161.61 220.499 161.61ZM225.816 161.61C225.371 161.61 224.967 161.501 224.605 161.282C224.242 161.056 223.955 160.752 223.743 160.369C223.537 159.986 223.435 159.555 223.435 159.076C223.435 158.597 223.537 158.166 223.743 157.783C223.955 157.4 224.239 157.095 224.594 156.869C224.957 156.644 225.364 156.531 225.816 156.531C226.185 156.531 226.514 156.609 226.801 156.767C227.095 156.917 227.331 157.129 227.509 157.403C227.687 157.67 227.786 157.981 227.807 158.337V159.804C227.786 160.153 227.687 160.464 227.509 160.738C227.338 161.012 227.105 161.227 226.811 161.385C226.524 161.535 226.192 161.61 225.816 161.61ZM225.97 160.738C226.428 160.738 226.797 160.584 227.078 160.276C227.358 159.962 227.499 159.561 227.499 159.076C227.499 158.74 227.434 158.45 227.304 158.203C227.181 157.95 227.003 157.755 226.77 157.618C226.537 157.475 226.267 157.403 225.959 157.403C225.651 157.403 225.378 157.475 225.138 157.618C224.906 157.762 224.721 157.961 224.584 158.214C224.454 158.46 224.389 158.744 224.389 159.065C224.389 159.394 224.454 159.685 224.584 159.938C224.721 160.184 224.909 160.379 225.149 160.523C225.388 160.666 225.662 160.738 225.97 160.738ZM227.437 161.508V160.194L227.612 159.004L227.437 157.824V156.633H228.371V161.508H227.437ZM229.716 161.508V156.633H230.639V161.508H229.716ZM230.639 158.727L230.29 158.573C230.29 157.95 230.434 157.454 230.721 157.085C231.009 156.715 231.423 156.531 231.963 156.531C232.209 156.531 232.432 156.575 232.63 156.664C232.828 156.746 233.013 156.886 233.184 157.085L232.579 157.711C232.476 157.601 232.363 157.523 232.24 157.475C232.117 157.427 231.973 157.403 231.809 157.403C231.467 157.403 231.187 157.512 230.968 157.731C230.749 157.95 230.639 158.282 230.639 158.727ZM235.901 161.61C235.422 161.61 234.988 161.498 234.598 161.272C234.215 161.046 233.91 160.742 233.684 160.358C233.465 159.968 233.356 159.537 233.356 159.065C233.356 158.587 233.465 158.156 233.684 157.772C233.91 157.389 234.215 157.088 234.598 156.869C234.988 156.644 235.422 156.531 235.901 156.531C236.277 156.531 236.626 156.603 236.948 156.746C237.269 156.883 237.546 157.085 237.779 157.352L237.163 157.967C237.013 157.789 236.828 157.656 236.609 157.567C236.397 157.471 236.161 157.423 235.901 157.423C235.593 157.423 235.32 157.495 235.08 157.639C234.841 157.776 234.652 157.967 234.516 158.214C234.379 158.46 234.31 158.744 234.31 159.065C234.31 159.387 234.379 159.671 234.516 159.917C234.652 160.163 234.841 160.358 235.08 160.502C235.32 160.646 235.593 160.718 235.901 160.718C236.161 160.718 236.397 160.673 236.609 160.584C236.828 160.488 237.016 160.352 237.174 160.174L237.779 160.789C237.553 161.049 237.276 161.251 236.948 161.395C236.626 161.539 236.277 161.61 235.901 161.61ZM242.143 161.508V158.665C242.143 158.296 242.027 157.991 241.794 157.752C241.562 157.512 241.261 157.393 240.891 157.393C240.645 157.393 240.426 157.447 240.234 157.557C240.043 157.666 239.892 157.817 239.783 158.008C239.673 158.2 239.619 158.419 239.619 158.665L239.239 158.45C239.239 158.08 239.321 157.752 239.485 157.465C239.649 157.177 239.879 156.951 240.173 156.787C240.467 156.616 240.799 156.531 241.168 156.531C241.538 156.531 241.863 156.613 242.143 156.777C242.43 156.941 242.656 157.17 242.82 157.465C242.985 157.759 243.067 158.097 243.067 158.48V161.508H242.143ZM238.695 161.508V154.181H239.619V161.508H238.695ZM246.616 161.508V154.386H247.581V161.508H246.616ZM251.324 161.61C250.845 161.61 250.411 161.498 250.021 161.272C249.638 161.046 249.333 160.742 249.108 160.358C248.889 159.968 248.779 159.537 248.779 159.065C248.779 158.587 248.889 158.156 249.108 157.772C249.333 157.389 249.638 157.088 250.021 156.869C250.411 156.644 250.845 156.531 251.324 156.531C251.701 156.531 252.05 156.603 252.371 156.746C252.693 156.883 252.97 157.085 253.202 157.352L252.587 157.967C252.436 157.789 252.251 157.656 252.032 157.567C251.82 157.471 251.584 157.423 251.324 157.423C251.016 157.423 250.743 157.495 250.503 157.639C250.264 157.776 250.076 157.967 249.939 158.214C249.802 158.46 249.734 158.744 249.734 159.065C249.734 159.387 249.802 159.671 249.939 159.917C250.076 160.163 250.264 160.358 250.503 160.502C250.743 160.646 251.016 160.718 251.324 160.718C251.584 160.718 251.82 160.673 252.032 160.584C252.251 160.488 252.439 160.352 252.597 160.174L253.202 160.789C252.977 161.049 252.699 161.251 252.371 161.395C252.05 161.539 251.701 161.61 251.324 161.61ZM256.245 161.61C255.766 161.61 255.335 161.498 254.952 161.272C254.569 161.046 254.264 160.742 254.039 160.358C253.813 159.968 253.7 159.534 253.7 159.055C253.7 158.583 253.813 158.159 254.039 157.783C254.264 157.4 254.569 157.095 254.952 156.869C255.335 156.644 255.766 156.531 256.245 156.531C256.717 156.531 257.145 156.644 257.528 156.869C257.918 157.088 258.226 157.389 258.451 157.772C258.677 158.156 258.79 158.583 258.79 159.055C258.79 159.534 258.677 159.968 258.451 160.358C258.226 160.742 257.918 161.046 257.528 161.272C257.145 161.498 256.717 161.61 256.245 161.61ZM256.245 160.718C256.553 160.718 256.826 160.646 257.066 160.502C257.305 160.358 257.494 160.163 257.63 159.917C257.767 159.664 257.836 159.377 257.836 159.055C257.836 158.74 257.764 158.46 257.62 158.214C257.483 157.967 257.295 157.776 257.056 157.639C256.823 157.495 256.553 157.423 256.245 157.423C255.937 157.423 255.663 157.495 255.424 157.639C255.185 157.776 254.996 157.967 254.86 158.214C254.723 158.46 254.654 158.74 254.654 159.055C254.654 159.377 254.723 159.664 254.86 159.917C254.996 160.163 255.185 160.358 255.424 160.502C255.663 160.646 255.937 160.718 256.245 160.718ZM263.279 161.508V158.665C263.279 158.296 263.162 157.991 262.93 157.752C262.697 157.512 262.396 157.393 262.027 157.393C261.78 157.393 261.561 157.447 261.37 157.557C261.178 157.666 261.028 157.817 260.918 158.008C260.809 158.2 260.754 158.419 260.754 158.665L260.375 158.45C260.375 158.08 260.457 157.752 260.621 157.465C260.785 157.177 261.014 156.951 261.308 156.787C261.603 156.616 261.934 156.531 262.304 156.531C262.673 156.531 262.998 156.623 263.279 156.808C263.566 156.992 263.792 157.235 263.956 157.536C264.12 157.831 264.202 158.145 264.202 158.48V161.508H263.279ZM259.831 161.508V156.633H260.754V161.508H259.831ZM267.002 161.61C266.729 161.61 266.469 161.576 266.222 161.508C265.983 161.433 265.761 161.33 265.555 161.2C265.35 161.063 265.172 160.902 265.022 160.718L265.617 160.122C265.795 160.341 266 160.506 266.233 160.615C266.465 160.718 266.725 160.769 267.013 160.769C267.3 160.769 267.522 160.721 267.68 160.625C267.837 160.523 267.916 160.382 267.916 160.205C267.916 160.027 267.851 159.89 267.721 159.794C267.598 159.691 267.437 159.609 267.238 159.548C267.04 159.479 266.828 159.414 266.602 159.353C266.383 159.284 266.175 159.199 265.976 159.096C265.778 158.994 265.614 158.853 265.484 158.675C265.36 158.498 265.299 158.262 265.299 157.967C265.299 157.673 265.371 157.42 265.514 157.208C265.658 156.989 265.856 156.821 266.11 156.705C266.37 156.589 266.681 156.531 267.043 156.531C267.427 156.531 267.765 156.599 268.059 156.736C268.36 156.866 268.607 157.064 268.798 157.331L268.203 157.926C268.066 157.748 267.895 157.612 267.69 157.516C267.491 157.42 267.266 157.372 267.013 157.372C266.746 157.372 266.541 157.42 266.397 157.516C266.26 157.605 266.192 157.731 266.192 157.896C266.192 158.06 266.253 158.186 266.376 158.275C266.499 158.364 266.66 158.439 266.859 158.501C267.064 158.563 267.276 158.628 267.495 158.696C267.714 158.758 267.923 158.843 268.121 158.953C268.319 159.062 268.48 159.209 268.603 159.394C268.733 159.579 268.798 159.821 268.798 160.122C268.798 160.581 268.634 160.943 268.306 161.21C267.984 161.477 267.55 161.61 267.002 161.61ZM270.643 161.61C270.451 161.61 270.291 161.545 270.161 161.415C270.037 161.279 269.976 161.118 269.976 160.933C269.976 160.742 270.037 160.584 270.161 160.461C270.291 160.331 270.451 160.266 270.643 160.266C270.834 160.266 270.992 160.331 271.115 160.461C271.245 160.584 271.31 160.742 271.31 160.933C271.31 161.118 271.245 161.279 271.115 161.415C270.992 161.545 270.834 161.61 270.643 161.61ZM273.619 161.61C273.428 161.61 273.267 161.545 273.137 161.415C273.014 161.279 272.952 161.118 272.952 160.933C272.952 160.742 273.014 160.584 273.137 160.461C273.267 160.331 273.428 160.266 273.619 160.266C273.811 160.266 273.968 160.331 274.091 160.461C274.221 160.584 274.286 160.742 274.286 160.933C274.286 161.118 274.221 161.279 274.091 161.415C273.968 161.545 273.811 161.61 273.619 161.61ZM276.596 161.61C276.404 161.61 276.243 161.545 276.113 161.415C275.99 161.279 275.929 161.118 275.929 160.933C275.929 160.742 275.99 160.584 276.113 160.461C276.243 160.331 276.404 160.266 276.596 160.266C276.787 160.266 276.945 160.331 277.068 160.461C277.198 160.584 277.263 160.742 277.263 160.933C277.263 161.118 277.198 161.279 277.068 161.415C276.945 161.545 276.787 161.61 276.596 161.61Z" fill="#1F2434" fill-opacity="0.3"/>
<rect x="162.096" y="223.979" width="90.1734" height="82.3998" rx="12.4377" fill="white"/>
<path fill-rule="evenodd" clip-rule="evenodd" d="M206.625 256.381C206.955 256.133 207.41 256.133 207.74 256.381L215.795 262.421C216.029 262.597 216.166 262.872 216.166 263.165V273.229C216.166 273.742 215.75 274.158 215.237 274.158H208.113V270.442C208.113 269.929 207.697 269.513 207.184 269.513C206.67 269.513 206.254 269.929 206.254 270.442V274.158H199.128C198.615 274.158 198.199 273.742 198.199 273.229V263.165C198.199 262.872 198.336 262.597 198.57 262.421L206.625 256.381ZM207.132 276.017H199.128C197.588 276.017 196.34 274.769 196.34 273.229V263.165C196.34 262.287 196.753 261.461 197.455 260.934L205.51 254.894C206.501 254.15 207.864 254.15 208.855 254.894L216.91 260.934C217.612 261.461 218.025 262.287 218.025 263.165V273.229C218.025 274.769 216.777 276.017 215.237 276.017H207.235C207.218 276.018 207.201 276.018 207.184 276.018C207.166 276.018 207.149 276.018 207.132 276.017Z" fill="#343C54"/>
<rect x="351.771" y="223.979" width="90.1734" height="82.3998" rx="12.4377" fill="white"/>
<path fill-rule="evenodd" clip-rule="evenodd" d="M389.671 254.248C388.118 254.248 386.859 255.507 386.859 257.06V267.058V267.274C386.698 267.495 386.567 267.743 386.474 268.012L384.96 272.386C384.327 274.212 385.684 276.117 387.617 276.117H406.097C408.03 276.117 409.386 274.212 408.754 272.386L407.24 268.012C407.147 267.744 407.017 267.496 406.855 267.275V267.058V257.06C406.855 255.507 405.596 254.248 404.043 254.248H389.671ZM389.082 267.995H404.632C405.011 268.015 405.343 268.263 405.468 268.625L406.983 272.999C407.193 273.608 406.741 274.243 406.097 274.243H387.617C386.973 274.243 386.52 273.608 386.731 272.999L388.245 268.625C388.371 268.263 388.703 268.015 389.082 267.995ZM404.668 266.121H404.981V257.06C404.981 256.542 404.561 256.123 404.043 256.123H389.671C389.154 256.123 388.734 256.542 388.734 257.06V266.121H389.046C389.074 266.12 389.103 266.119 389.131 266.119H404.583C404.611 266.119 404.639 266.12 404.668 266.121Z" fill="#343C54"/>
<rect x="356.434" y="228.639" width="18.6566" height="18.6566" rx="9.32828" fill="#F4F2FF"/>
<path d="M369.842 234.862C369.842 234.722 369.765 234.596 369.648 234.545C369.53 234.494 369.397 234.528 369.311 234.631L367.648 236.626L365.985 234.631C365.927 234.561 365.846 234.521 365.761 234.521C365.676 234.521 365.594 234.561 365.536 234.631L363.873 236.626L362.21 234.631C362.125 234.528 361.991 234.494 361.874 234.545C361.757 234.596 361.68 234.722 361.68 234.862V240.395C361.68 240.959 362.091 241.416 362.598 241.416H368.924C369.431 241.416 369.842 240.959 369.842 240.395V234.862Z" fill="url(#paint0_linear_3099_8903)"/>
<rect x="256.934" y="311.043" width="90.1734" height="82.3998" rx="12.4377" fill="white"/>
<path fill-rule="evenodd" clip-rule="evenodd" d="M295.458 341.615C294.941 341.615 294.521 342.035 294.521 342.552V361.923C294.521 362.441 294.941 362.861 295.458 362.861H308.581C309.099 362.861 309.518 362.441 309.518 361.923V346.453C309.518 346.204 309.419 345.966 309.244 345.79L305.343 341.889C305.167 341.714 304.929 341.615 304.68 341.615H295.458ZM292.646 342.552C292.646 340.999 293.905 339.74 295.458 339.74H304.68C305.426 339.74 306.141 340.036 306.668 340.564L310.569 344.465C311.097 344.992 311.393 345.707 311.393 346.453V361.923C311.393 363.476 310.134 364.735 308.581 364.735H295.458C293.905 364.735 292.646 363.476 292.646 361.923V342.552ZM296.397 352.234C296.397 351.716 296.816 351.296 297.334 351.296H306.707C307.225 351.296 307.644 351.716 307.644 352.234V360.045C307.644 360.563 307.225 360.982 306.707 360.982H303.111C303.061 360.99 303.01 360.995 302.958 360.995C302.906 360.995 302.855 360.99 302.805 360.982H297.334C296.816 360.982 296.397 360.563 296.397 360.045V352.234ZM305.77 359.108H303.895L303.895 357.077H305.77V359.108ZM305.77 355.202H302.02V353.171H305.77V355.202ZM300.97 357.077C301.007 357.081 301.044 357.084 301.083 357.084C301.121 357.084 301.159 357.081 301.196 357.077H302.021V359.108H298.271V357.077H300.97ZM300.145 355.202V353.171H298.271V355.202H300.145Z" fill="#343C54"/>
<rect x="351.771" y="311.041" width="90.1734" height="82.3998" rx="12.4377" fill="white"/>
<path fill-rule="evenodd" clip-rule="evenodd" d="M399.662 341.263C399.899 341.439 400.039 341.718 400.039 342.013V349.259C399.381 349.429 398.755 349.674 398.168 349.985V343.27L388.238 346.249C387.842 346.368 387.571 346.732 387.571 347.145V361.026H394.343C394.641 361.699 395.023 362.327 395.477 362.896H386.636C386.12 362.896 385.701 362.477 385.701 361.961V347.145C385.701 345.906 386.514 344.814 387.7 344.458L398.835 341.118C399.118 341.033 399.425 341.087 399.662 341.263ZM393.664 356.622C393.63 356.93 393.613 357.243 393.613 357.56C393.613 357.875 393.63 358.186 393.663 358.492H391.583C391.067 358.492 390.648 358.073 390.648 357.557C390.648 357.04 391.067 356.622 391.583 356.622H393.664ZM394.937 352.982C394.68 353.387 394.456 353.816 394.27 354.264C394.207 354.277 394.143 354.284 394.077 354.284H391.583C391.067 354.284 390.648 353.865 390.648 353.349C390.648 352.833 391.067 352.414 391.583 352.414H394.077C394.463 352.414 394.794 352.648 394.937 352.982ZM390.648 349.141C390.648 348.625 391.067 348.206 391.583 348.206H394.077C394.593 348.206 395.012 348.625 395.012 349.141C395.012 349.658 394.593 350.076 394.077 350.076H391.583C391.067 350.076 390.648 349.658 390.648 349.141Z" fill="#343C54"/>
<g clip-path="url(#clip2_3099_8903)">
<path d="M402.006 352.238C400.513 352.801 397.828 355.088 397.828 358.973C397.828 361.621 399.975 363.767 402.622 363.767C405.27 363.767 407.417 361.621 407.417 358.973C407.417 357.468 407.014 356.203 406.434 355.186L404.144 356.395L402.006 352.238Z" stroke="#343C54" stroke-width="1.87009" stroke-linejoin="round"/>
</g>
<rect x="356.434" y="315.707" width="18.6566" height="18.6566" rx="9.32828" fill="#F4F2FF"/>
<path d="M369.842 321.93C369.842 321.79 369.765 321.664 369.648 321.613C369.53 321.562 369.397 321.596 369.311 321.699L367.648 323.694L365.985 321.699C365.927 321.629 365.846 321.59 365.761 321.59C365.676 321.59 365.594 321.629 365.536 321.699L363.873 323.694L362.21 321.699C362.125 321.596 361.991 321.562 361.874 321.613C361.757 321.664 361.68 321.79 361.68 321.93V327.464C361.68 328.027 362.091 328.484 362.598 328.484H368.924C369.431 328.484 369.842 328.027 369.842 327.464V321.93Z" fill="url(#paint1_linear_3099_8903)"/>
<rect x="162.096" y="398.105" width="90.1734" height="82.3998" rx="12.4377" fill="white"/>
<path fill-rule="evenodd" clip-rule="evenodd" d="M197.811 429.615C197.811 428.062 199.07 426.803 200.623 426.803H208.122C209.674 426.803 210.933 428.062 210.933 429.615V436.193C210.279 436.316 209.652 436.512 209.059 436.773V429.615C209.059 429.097 208.639 428.677 208.122 428.677H200.623C200.105 428.677 199.686 429.097 199.686 429.615V442.735H204.141C204.005 443.338 203.932 443.965 203.93 444.609H199.686V448.361H200.552C200.575 448.359 200.598 448.359 200.621 448.359C200.643 448.359 200.666 448.359 200.689 448.361H204.776C205.103 449.04 205.516 449.67 206.002 450.236H201.558V450.858C201.558 451.376 201.138 451.795 200.621 451.795C200.103 451.795 199.683 451.376 199.683 450.858V450.236H198.748C198.231 450.236 197.811 449.816 197.811 449.298V443.74C197.809 443.718 197.809 443.695 197.809 443.672C197.809 443.649 197.809 443.626 197.811 443.604V429.615ZM206.227 438.79C205.821 439.228 205.459 439.708 205.15 440.223C204.913 440.331 204.65 440.391 204.373 440.391H204.36C203.325 440.391 202.485 439.552 202.485 438.517C202.485 437.481 203.325 436.642 204.36 436.642H204.373C205.408 436.642 206.247 437.481 206.247 438.517C206.247 438.61 206.24 438.701 206.227 438.79ZM204.36 430.862C203.325 430.862 202.485 431.701 202.485 432.737C202.485 433.772 203.325 434.611 204.36 434.611H204.373C205.408 434.611 206.247 433.772 206.247 432.737C206.247 431.701 205.408 430.862 204.373 430.862H204.36Z" fill="#343C54"/>
<path d="M216.001 443.623C216.022 443.48 216.033 443.335 216.033 443.186C216.033 441.505 214.67 440.143 212.989 440.143C211.308 440.143 209.945 441.505 209.945 443.186C209.945 443.335 209.956 443.48 209.976 443.623H209.57C208.251 443.623 207.182 444.692 207.182 446.012C207.182 447.331 208.251 448.4 209.57 448.4H216.353C217.673 448.4 218.742 447.331 218.742 446.012C218.742 444.692 217.673 443.623 216.353 443.623H216.001Z" stroke="#343C54" stroke-width="1.87463" stroke-linejoin="round"/>
<rect x="256.934" y="398.105" width="90.1734" height="82.3998" rx="12.4377" fill="white"/>
<path d="M295.785 437.367C295.785 436.686 296.156 436.058 296.752 435.729L301.103 433.331C301.664 433.021 302.344 433.021 302.906 433.329L307.282 435.73C307.88 436.058 308.252 436.687 308.252 437.369L308.252 449.283H295.785V437.367Z" stroke="#343C54" stroke-width="1.87009" stroke-linejoin="round"/>
<path fill-rule="evenodd" clip-rule="evenodd" d="M295.966 438.375C295.876 438.388 295.788 438.414 295.704 438.452L292.739 439.821C291.746 440.279 291.109 441.273 291.109 442.368V449.275C291.109 449.791 291.528 450.21 292.044 450.21H311.992C312.508 450.21 312.927 449.791 312.927 449.275V442.368C312.927 441.273 312.291 440.279 311.297 439.821L308.332 438.452C308.25 438.414 308.163 438.388 308.073 438.375V440.392L310.514 441.519C310.845 441.671 311.057 442.003 311.057 442.368V448.34H308.073V449.266H295.966V448.34H292.979V442.368C292.979 442.003 293.192 441.671 293.523 441.519L295.966 440.391V438.375Z" fill="#343C54"/>
<path d="M299.527 441.064H304.514" stroke="#343C54" stroke-width="1.87009" stroke-linecap="round"/>
<circle cx="302.021" cy="436.955" r="0.935046" fill="#343C54"/>
<path d="M302.02 427.768V432.852" stroke="#343C54" stroke-width="1.87009" stroke-linecap="round" stroke-linejoin="round"/>
<path d="M302.02 428.717H304.522C305.208 428.717 305.765 429.273 305.765 429.959V429.959C305.765 430.646 306.321 431.202 307.007 431.202H309.511" stroke="#343C54" stroke-width="1.87009" stroke-linecap="round" stroke-linejoin="round"/>
<rect x="292.691" y="453.838" width="18.6566" height="18.6566" rx="9.32828" fill="#F4F2FF"/>
<path d="M306.1 460.061C306.1 459.921 306.023 459.795 305.905 459.744C305.788 459.693 305.655 459.727 305.569 459.83L303.906 461.825L302.243 459.83C302.185 459.76 302.104 459.721 302.019 459.721C301.933 459.721 301.852 459.76 301.794 459.83L300.131 461.825L298.468 459.83C298.383 459.727 298.249 459.693 298.132 459.744C298.015 459.795 297.938 459.921 297.938 460.061V465.595C297.938 466.158 298.349 466.615 298.856 466.615H305.181C305.689 466.615 306.1 466.158 306.1 465.595V460.061Z" fill="url(#paint2_linear_3099_8903)"/>
<rect x="351.771" y="398.109" width="90.1734" height="82.3998" rx="12.4377" fill="white"/>
<path d="M406.853 439.303H386.857" stroke="#343C54" stroke-width="1.87463"/>
<path d="M391.23 434.303H392.48" stroke="#343C54" stroke-width="1.99961" stroke-linecap="round" stroke-linejoin="round"/>
<path d="M396.227 434.303H397.476" stroke="#343C54" stroke-width="1.99961" stroke-linecap="round" stroke-linejoin="round"/>
<path d="M391.23 444.314H392.48" stroke="#343C54" stroke-width="1.99961" stroke-linecap="round" stroke-linejoin="round"/>
<path d="M396.238 444.314H397.488" stroke="#343C54" stroke-width="1.99961" stroke-linecap="round" stroke-linejoin="round"/>
<rect x="386.857" y="429.311" width="19.9961" height="19.9961" rx="1.87463" stroke="#343C54" stroke-width="1.87463"/>
<rect x="356.434" y="402.771" width="18.6566" height="18.6566" rx="9.32828" fill="#F4F2FF"/>
<path d="M369.842 408.994C369.842 408.854 369.765 408.729 369.648 408.678C369.53 408.627 369.397 408.661 369.311 408.763L367.648 410.759L365.985 408.763C365.927 408.694 365.846 408.654 365.761 408.654C365.676 408.654 365.594 408.694 365.536 408.763L363.873 410.759L362.21 408.763C362.125 408.661 361.991 408.627 361.874 408.678C361.757 408.729 361.68 408.854 361.68 408.994V414.528C361.68 415.092 362.091 415.549 362.598 415.549H368.924C369.431 415.549 369.842 415.092 369.842 414.528V408.994Z" fill="url(#paint3_linear_3099_8903)"/>
<rect x="162.096" y="485.172" width="90.1734" height="82.3998" rx="12.4377" fill="white"/>
<path d="M197.811 519.81C197.811 518.775 198.651 517.936 199.686 517.936H214.747C215.783 517.936 216.622 518.775 216.622 519.81L216.622 525.925C216.622 526.217 216.69 526.505 216.822 526.766L218.542 530.191C218.673 530.452 218.742 530.74 218.742 531.032V532.933C218.742 533.968 217.902 534.807 216.867 534.807H197.496C196.46 534.807 195.621 533.968 195.621 532.933V531.046C195.621 530.745 195.693 530.449 195.832 530.182L197.601 526.775C197.739 526.508 197.811 526.212 197.811 525.911L197.811 519.81Z" stroke="#343C54" stroke-width="1.87463"/>
<circle cx="207.182" cy="524.38" r="2.89318" stroke="#343C54" stroke-width="1.87463"/>
<path d="M195.621 530.621H218.742" stroke="#343C54" stroke-width="1.87463"/>
<path d="M212.793 521.688H212.805" stroke="#343C54" stroke-width="1.99961" stroke-linecap="round"/>
<rect x="166.762" y="489.834" width="18.6566" height="18.6566" rx="9.32828" fill="#F4F2FF"/>
<path d="M180.17 496.057C180.17 495.917 180.093 495.791 179.976 495.74C179.858 495.689 179.725 495.723 179.639 495.826L177.976 497.821L176.314 495.826C176.256 495.756 176.174 495.717 176.089 495.717C176.004 495.717 175.922 495.756 175.864 495.826L174.201 497.821L172.538 495.826C172.453 495.723 172.319 495.689 172.202 495.74C172.085 495.791 172.008 495.917 172.008 496.057V501.591C172.008 502.154 172.419 502.611 172.926 502.611H179.252C179.759 502.611 180.17 502.154 180.17 501.591V496.057Z" fill="url(#paint4_linear_3099_8903)"/>
<rect x="256.934" y="485.172" width="90.1734" height="82.3998" rx="12.4377" fill="white"/>
<path fill-rule="evenodd" clip-rule="evenodd" d="M292.981 518.26C292.981 517.744 293.4 517.325 293.916 517.325H301.996H302.382V521.376C302.382 521.892 302.801 522.311 303.317 522.311C303.345 522.311 303.373 522.31 303.4 522.307H307.036C307.553 522.307 307.971 521.889 307.971 521.372C307.971 520.856 307.553 520.437 307.036 520.437H304.252V517.325H310.124C310.64 517.325 311.059 517.744 311.059 518.26V525.436H306.384C305.868 525.436 305.449 525.855 305.449 526.371C305.449 526.888 305.868 527.306 306.384 527.306H311.059V534.468C311.059 534.984 310.64 535.403 310.124 535.403H307.369L307.369 531.356C307.369 530.84 306.95 530.421 306.434 530.421C305.917 530.421 305.499 530.84 305.499 531.356L305.499 535.403H293.916C293.4 535.403 292.981 534.984 292.981 534.468V527.306H300.16V531.36C300.16 531.876 300.578 532.295 301.095 532.295C301.611 532.295 302.03 531.876 302.03 531.36V526.371C302.03 525.855 301.611 525.436 301.095 525.436H299.215V521.372C299.215 520.856 298.796 520.437 298.28 520.437C297.764 520.437 297.345 520.856 297.345 521.372V525.436H292.981V518.26ZM306.347 537.273H293.916C292.367 537.273 291.111 536.017 291.111 534.468V518.26C291.111 516.711 292.367 515.455 293.916 515.455H301.996H303.317H310.124C311.673 515.455 312.929 516.711 312.929 518.26L312.929 534.468C312.929 536.017 311.673 537.273 310.124 537.273H306.521C306.492 537.275 306.463 537.277 306.434 537.277C306.404 537.277 306.375 537.275 306.347 537.273Z" fill="#343C54"/>
<rect x="351.771" y="485.172" width="90.1734" height="82.3998" rx="12.4377" fill="white"/>
<g filter="url(#filter0_d_3099_8903)">
<rect x="256.936" y="223.979" width="90.1734" height="82.3998" rx="12.4377" fill="white" shape-rendering="crispEdges"/>
<path fill-rule="evenodd" clip-rule="evenodd" d="M301.211 256.108C301.544 255.859 302.001 255.859 302.333 256.108L310.417 262.171C311.256 262.569 312.019 263.1 312.681 263.736V262.934C312.681 262.051 312.265 261.219 311.559 260.69L303.455 254.612C302.458 253.864 301.086 253.864 300.089 254.612L291.985 260.69C291.279 261.219 290.863 262.051 290.863 262.934V273.059C290.863 274.608 292.119 275.864 293.668 275.864H300.571C300.034 275.308 299.573 274.679 299.202 273.994H293.668C293.152 273.994 292.733 273.575 292.733 273.059V262.934C292.733 262.639 292.872 262.362 293.107 262.186L301.211 256.108Z" fill="#343C54"/>
<g clip-path="url(#clip3_3099_8903)">
<path fill-rule="evenodd" clip-rule="evenodd" d="M302.958 270.947C302.958 268.279 305.121 266.116 307.789 266.116C310.457 266.116 312.62 268.279 312.62 270.947C312.62 273.615 310.457 275.778 307.789 275.778C305.121 275.778 302.958 273.615 302.958 270.947ZM307.789 264.246C304.088 264.246 301.088 267.246 301.088 270.947C301.088 274.648 304.088 277.648 307.789 277.648C311.49 277.648 314.49 274.648 314.49 270.947C314.49 267.246 311.49 264.246 307.789 264.246ZM307.79 267.987C307.274 267.987 306.855 268.406 306.855 268.922V270.013H305.764C305.248 270.013 304.829 270.432 304.829 270.948C304.829 271.465 305.248 271.883 305.764 271.883H306.855V272.974C306.855 273.491 307.274 273.909 307.79 273.909C308.306 273.909 308.725 273.491 308.725 272.974V271.883H309.816C310.332 271.883 310.751 271.465 310.751 270.948C310.751 270.432 310.332 270.013 309.816 270.013H308.725V268.922C308.725 268.406 308.306 267.987 307.79 267.987Z" fill="#343C54"/>
</g>
<rect x="261.6" y="228.639" width="18.6566" height="18.6566" rx="9.32828" fill="#F4F2FF"/>
<path d="M275.008 234.862C275.008 234.722 274.931 234.596 274.814 234.545C274.696 234.494 274.563 234.528 274.477 234.631L272.814 236.626L271.151 234.631C271.093 234.561 271.012 234.521 270.927 234.521C270.842 234.521 270.76 234.561 270.702 234.631L269.039 236.626L267.376 234.631C267.291 234.528 267.157 234.494 267.04 234.545C266.923 234.596 266.846 234.722 266.846 234.862V240.395C266.846 240.959 267.257 241.416 267.764 241.416H274.09C274.597 241.416 275.008 240.959 275.008 240.395V234.862Z" fill="url(#paint5_linear_3099_8903)"/>
</g>
<g filter="url(#filter1_d_3099_8903)">
<rect x="141.779" y="311.911" width="109.49" height="100.5" rx="14.7" fill="white" stroke="#B8ADFF" stroke-width="1.1"/>
<path fill-rule="evenodd" clip-rule="evenodd" d="M216.34 362.35V370.135C216.34 372.598 214.343 374.594 211.88 374.594H197.791L197.791 377.876H202.467C203.288 377.876 203.953 378.542 203.953 379.363C203.953 380.184 203.288 380.849 202.467 380.849H190.576C189.755 380.849 189.09 380.184 189.09 379.363C189.09 378.542 189.755 377.876 190.576 377.876H194.818V374.594H181.162C178.7 374.594 176.703 372.598 176.703 370.135V353.104C176.703 350.641 178.7 348.645 181.162 348.645H192.998C192.584 349.585 192.274 350.58 192.081 351.617H181.162C180.341 351.617 179.676 352.283 179.676 353.104V370.135C179.676 370.956 180.341 371.621 181.162 371.621H211.88C212.701 371.621 213.367 370.956 213.367 370.135V365.235C214.498 364.43 215.501 363.456 216.34 362.35Z" fill="#343C54"/>
<g clip-path="url(#clip4_3099_8903)">
<path fill-rule="evenodd" clip-rule="evenodd" d="M197.797 354.125C197.797 349.884 201.235 346.445 205.477 346.445C209.718 346.445 213.156 349.884 213.156 354.125C213.156 358.366 209.718 361.804 205.477 361.804C201.235 361.804 197.797 358.366 197.797 354.125ZM205.477 343.473C199.593 343.473 194.824 348.242 194.824 354.125C194.824 360.008 199.593 364.777 205.477 364.777C211.36 364.777 216.129 360.008 216.129 354.125C216.129 348.242 211.36 343.473 205.477 343.473ZM209.5 353.287C210.081 352.707 210.081 351.765 209.5 351.185C208.92 350.605 207.979 350.605 207.398 351.185L204.669 353.915L203.555 352.801C202.974 352.22 202.033 352.22 201.453 352.801C200.872 353.381 200.872 354.322 201.453 354.903L203.618 357.068C204.198 357.648 205.139 357.648 205.72 357.068L209.5 353.287Z" fill="#343C54"/>
</g>
</g>
<g filter="url(#filter2_f_3099_8903)">
<rect x="320.127" y="158.615" width="85.056" height="107.984" rx="42.528" fill="#725CFF" fill-opacity="0.25"/>
</g>
</g>
<rect x="305.127" y="165.543" width="85.056" height="85.056" rx="42.528" fill="#FFCFCF"/>
<mask id="mask0_3099_8903" style="mask-type:alpha" maskUnits="userSpaceOnUse" x="305" y="165" width="86" height="86">
<path d="M347.616 250.294C371.105 250.294 390.146 231.253 390.146 207.764C390.146 184.276 371.105 165.234 347.616 165.234C324.127 165.234 305.086 184.276 305.086 207.764C305.086 231.253 324.127 250.294 347.616 250.294Z" fill="#7E341F"/>
</mask>
<g mask="url(#mask0_3099_8903)">
<path d="M348.557 201.426C355.977 201.426 361.992 195.41 361.992 187.99C361.992 180.57 355.977 174.555 348.557 174.555C341.136 174.555 335.121 180.57 335.121 187.99C335.121 195.41 341.136 201.426 348.557 201.426Z" fill="#F16625"/>
<path d="M333.424 215.011C340.844 215.011 346.859 208.996 346.859 201.576C346.859 194.156 340.844 188.141 333.424 188.141C326.004 188.141 319.988 194.156 319.988 201.576C319.988 208.996 326.004 215.011 333.424 215.011Z" fill="#F16625"/>
<path d="M361.949 215.011C369.369 215.011 375.385 208.996 375.385 201.576C375.385 194.156 369.369 188.141 361.949 188.141C354.529 188.141 348.514 194.156 348.514 201.576C348.514 208.996 354.529 215.011 361.949 215.011Z" fill="#F16625"/>
<path d="M348.389 196.076H348.387C338.71 196.076 330.865 203.921 330.865 213.598V257.51C330.865 267.187 338.71 275.032 348.387 275.032H348.389C358.066 275.032 365.911 267.187 365.911 257.51V213.598C365.911 203.921 358.066 196.076 348.389 196.076Z" fill="#F9A08A"/>
<path d="M342.895 206.04L340.287 207.001C339.983 207.112 339.646 207.098 339.352 206.962C339.058 206.826 338.829 206.579 338.716 206.276C338.66 206.124 338.635 205.963 338.642 205.802C338.648 205.641 338.687 205.482 338.755 205.336C338.823 205.189 338.919 205.058 339.038 204.949C339.157 204.84 339.296 204.755 339.448 204.7L342.055 203.738C342.36 203.627 342.696 203.641 342.99 203.777C343.285 203.913 343.513 204.16 343.627 204.464C343.682 204.615 343.708 204.776 343.701 204.937C343.694 205.099 343.656 205.257 343.588 205.404C343.52 205.55 343.424 205.681 343.305 205.791C343.186 205.9 343.047 205.985 342.895 206.04Z" fill="#870000"/>
<path d="M353.882 206.04L356.488 207.001C356.793 207.112 357.129 207.098 357.423 206.962C357.717 206.826 357.945 206.579 358.058 206.276C358.171 205.971 358.159 205.633 358.023 205.338C357.888 205.042 357.64 204.813 357.336 204.699L354.726 203.738C354.422 203.627 354.086 203.641 353.792 203.777C353.498 203.913 353.269 204.16 353.156 204.464C353.1 204.615 353.075 204.775 353.081 204.936C353.087 205.098 353.125 205.256 353.192 205.402C353.26 205.549 353.355 205.68 353.474 205.79C353.592 205.899 353.731 205.984 353.882 206.04Z" fill="#870000"/>
<path d="M345.77 213.286C346.659 213.286 347.379 212.277 347.379 211.032C347.379 209.788 346.659 208.779 345.77 208.779C344.881 208.779 344.16 209.788 344.16 211.032C344.16 212.277 344.881 213.286 345.77 213.286Z" fill="#870000"/>
<path d="M351.006 213.286C351.895 213.286 352.616 212.277 352.616 211.032C352.616 209.788 351.895 208.779 351.006 208.779C350.117 208.779 349.396 209.788 349.396 211.032C349.396 212.277 350.117 213.286 351.006 213.286Z" fill="#870000"/>
<path d="M333.218 217.08C334.149 214.878 333.118 212.339 330.917 211.408C328.715 210.477 326.175 211.507 325.244 213.709C324.313 215.91 325.343 218.45 327.545 219.381C329.747 220.312 332.287 219.282 333.218 217.08Z" fill="#F9A08A"/>
<path d="M369.899 217.08C370.83 214.878 369.8 212.339 367.598 211.408C365.396 210.477 362.857 211.507 361.926 213.709C360.995 215.91 362.025 218.45 364.227 219.381C366.429 220.312 368.968 219.282 369.899 217.08Z" fill="#F9A08A"/>
<path d="M343.415 215.796C343.105 215.797 342.8 215.874 342.526 216.018C342.252 216.163 342.017 216.372 341.841 216.627C341.666 216.882 341.555 217.176 341.518 217.484C341.481 217.792 341.519 218.104 341.629 218.393C342.159 219.8 343.106 221.012 344.343 221.867C345.579 222.722 347.047 223.181 348.551 223.181C350.055 223.181 351.522 222.722 352.759 221.867C353.996 221.012 354.943 219.8 355.473 218.393C355.584 218.104 355.622 217.791 355.585 217.484C355.548 217.176 355.437 216.882 355.261 216.626C355.086 216.371 354.851 216.161 354.577 216.017C354.302 215.872 353.997 215.796 353.687 215.795L343.415 215.796Z" fill="#FFFEF9"/>
<path d="M365.891 232.258H330.865V258.312H365.891V232.258Z" fill="#396FED"/>
<path d="M365.891 237.928H330.865V241.66H365.891V237.928Z" fill="#154A87"/>
<path d="M365.891 243.723H330.865V247.455H365.891V243.723Z" fill="#154A87"/>
<path d="M326.949 270.944C325.911 270.941 324.916 270.528 324.182 269.794C323.448 269.06 323.034 268.066 323.031 267.028V236.174C323.034 235.136 323.448 234.142 324.182 233.408C324.916 232.674 325.911 232.261 326.949 232.258H330.866V267.028C330.863 268.066 330.449 269.06 329.715 269.794C328.981 270.528 327.987 270.941 326.949 270.944Z" fill="#F9A08A"/>
<path d="M369.809 270.943C368.77 270.943 367.774 270.531 367.039 269.796C366.304 269.061 365.891 268.065 365.891 267.026V232.257H369.809C370.848 232.257 371.844 232.67 372.579 233.405C373.314 234.139 373.727 235.136 373.727 236.175V267.027C373.726 268.066 373.313 269.062 372.579 269.796C371.844 270.531 370.848 270.943 369.809 270.943Z" fill="#F9A08A"/>
</g>
<circle cx="378.402" cy="177.581" r="19.47" fill="url(#paint6_linear_3099_8903)"/>
<path d="M385.004 172.977L375.794 182.187L371.801 178.193" stroke="white" stroke-width="3.20085" stroke-linecap="round" stroke-linejoin="round"/>
<g filter="url(#filter3_d_3099_8903)">
<rect x="321.131" y="464.289" width="129.882" height="59.7492" rx="29.8746" fill="white"/>
<rect x="321.664" y="464.823" width="128.815" height="58.6823" rx="29.3411" stroke="#DCD6FF" stroke-width="1.06695"/>
<path d="M352.039 501.356C350.951 501.356 350.016 501.17 349.235 500.799C348.467 500.428 347.769 499.871 347.142 499.128L348.87 497.4C349.267 497.925 349.728 498.335 350.253 498.629C350.778 498.911 351.418 499.052 352.173 499.052C352.852 499.052 353.39 498.917 353.787 498.648C354.196 498.379 354.401 498.008 354.401 497.534C354.401 497.125 354.286 496.792 354.055 496.536C353.825 496.28 353.518 496.062 353.134 495.883C352.762 495.703 352.346 495.543 351.885 495.403C351.437 495.249 350.983 495.076 350.522 494.884C350.074 494.692 349.657 494.455 349.273 494.173C348.902 493.879 348.601 493.508 348.371 493.06C348.14 492.599 348.025 492.022 348.025 491.331C348.025 490.512 348.223 489.814 348.62 489.238C349.017 488.662 349.561 488.22 350.253 487.913C350.944 487.605 351.725 487.452 352.596 487.452C353.518 487.452 354.35 487.624 355.093 487.97C355.835 488.316 356.443 488.764 356.917 489.315L355.189 491.043C354.792 490.608 354.382 490.288 353.959 490.083C353.55 489.878 353.082 489.775 352.557 489.775C351.956 489.775 351.482 489.891 351.136 490.121C350.791 490.352 350.618 490.684 350.618 491.12C350.618 491.491 350.733 491.792 350.963 492.022C351.194 492.253 351.495 492.451 351.866 492.618C352.25 492.784 352.666 492.944 353.114 493.098C353.575 493.252 354.03 493.424 354.478 493.616C354.939 493.809 355.355 494.058 355.726 494.365C356.11 494.673 356.418 495.07 356.648 495.556C356.879 496.03 356.994 496.619 356.994 497.323C356.994 498.578 356.552 499.564 355.669 500.281C354.785 500.998 353.575 501.356 352.039 501.356ZM363.095 501.164L357.775 487.663H360.598L364.708 498.591H363.614L367.762 487.663H370.547L365.169 501.164H363.095ZM377.938 501.356C376.977 501.356 376.075 501.183 375.23 500.838C374.398 500.479 373.661 499.98 373.021 499.34C372.394 498.699 371.901 497.963 371.542 497.131C371.197 496.286 371.024 495.377 371.024 494.404C371.024 493.418 371.203 492.509 371.562 491.677C371.92 490.832 372.419 490.096 373.06 489.468C373.7 488.828 374.449 488.335 375.307 487.989C376.164 487.631 377.093 487.452 378.091 487.452C379.205 487.452 380.23 487.663 381.164 488.085C382.099 488.495 382.873 489.078 383.488 489.833L381.721 491.6C381.299 491.049 380.774 490.627 380.146 490.332C379.519 490.038 378.828 489.891 378.072 489.891C377.214 489.891 376.453 490.083 375.787 490.467C375.134 490.838 374.622 491.363 374.25 492.042C373.879 492.707 373.693 493.488 373.693 494.385C373.693 495.281 373.873 496.075 374.231 496.766C374.602 497.445 375.102 497.976 375.729 498.36C376.369 498.744 377.099 498.936 377.919 498.936C378.764 498.936 379.487 498.783 380.089 498.475C380.69 498.155 381.151 497.694 381.471 497.093C381.792 496.478 381.952 495.729 381.952 494.846L383.661 496.017L377.765 495.959V493.693H384.64V494.058C384.64 495.671 384.352 497.022 383.776 498.11C383.2 499.186 382.406 499.999 381.395 500.549C380.396 501.087 379.244 501.356 377.938 501.356Z" fill="#676D7F"/>
<rect x="396.406" y="469.445" width="49.4412" height="49.4379" rx="24.719" fill="url(#paint7_linear_3099_8903)"/>
<path d="M418.458 498.438H428.06C428.944 498.438 429.661 497.722 429.661 496.838L429.661 487.233C429.661 486.349 428.944 485.633 428.06 485.633H418.458C417.574 485.633 416.857 486.349 416.857 487.233V496.838C416.857 497.722 417.574 498.438 418.458 498.438Z" stroke="white" stroke-width="2.1339"/>
<path fill-rule="evenodd" clip-rule="evenodd" d="M424.331 498.433L424.331 501.1C424.331 501.395 424.092 501.633 423.797 501.633H414.195C413.9 501.633 413.661 501.395 413.661 501.1V491.497C413.661 491.203 413.9 490.964 414.195 490.964H416.859V488.83H414.195C412.722 488.83 411.527 490.024 411.527 491.497V501.1C411.527 502.573 412.722 503.767 414.195 503.767H423.797C425.27 503.767 426.465 502.573 426.465 501.1L426.465 498.433H424.331Z" fill="white"/>
</g>
<g filter="url(#filter4_d_3099_8903)">
<circle cx="147.26" cy="319.012" r="28.83" fill="url(#paint8_linear_3099_8903)"/>
<path d="M159.873 309.409C159.873 308.976 159.635 308.588 159.272 308.43C158.91 308.272 158.498 308.377 158.233 308.694L153.094 314.862L147.954 308.694C147.775 308.48 147.523 308.357 147.26 308.357C146.996 308.357 146.745 308.48 146.566 308.694L141.426 314.862L136.287 308.694C136.022 308.377 135.61 308.272 135.247 308.43C134.885 308.588 134.646 308.976 134.646 309.409V326.512C134.646 328.254 135.917 329.665 137.485 329.665H157.035C158.603 329.665 159.873 328.254 159.873 326.512V309.409Z" fill="white"/>
</g>
</g>
<defs>
<filter id="filter0_d_3099_8903" x="250.717" y="217.76" width="139.925" height="132.151" filterUnits="userSpaceOnUse" color-interpolation-filters="sRGB">
<feFlood flood-opacity="0" result="BackgroundImageFix"/>
<feColorMatrix in="SourceAlpha" type="matrix" values="0 0 0 0 0 0 0 0 0 0 0 0 0 0 0 0 0 0 127 0" result="hardAlpha"/>
<feOffset dx="18.6566" dy="18.6566"/>
<feGaussianBlur stdDeviation="12.4377"/>
<feComposite in2="hardAlpha" operator="out"/>
<feColorMatrix type="matrix" values="0 0 0 0 0.862745 0 0 0 0 0.839216 0 0 0 0 1 0 0 0 0.3 0"/>
<feBlend mode="normal" in2="BackgroundImageFix" result="effect1_dropShadow_3099_8903"/>
<feBlend mode="normal" in="SourceGraphic" in2="effect1_dropShadow_3099_8903" result="shape"/>
</filter>
<filter id="filter1_d_3099_8903" x="133.229" y="303.361" width="174.59" height="165.6" filterUnits="userSpaceOnUse" color-interpolation-filters="sRGB">
<feFlood flood-opacity="0" result="BackgroundImageFix"/>
<feColorMatrix in="SourceAlpha" type="matrix" values="0 0 0 0 0 0 0 0 0 0 0 0 0 0 0 0 0 0 127 0" result="hardAlpha"/>
<feOffset dx="24" dy="24"/>
<feGaussianBlur stdDeviation="16"/>
<feComposite in2="hardAlpha" operator="out"/>
<feColorMatrix type="matrix" values="0 0 0 0 0.862745 0 0 0 0 0.839216 0 0 0 0 1 0 0 0 0.5 0"/>
<feBlend mode="normal" in2="BackgroundImageFix" result="effect1_dropShadow_3099_8903"/>
<feBlend mode="normal" in="SourceGraphic" in2="effect1_dropShadow_3099_8903" result="shape"/>
</filter>
<filter id="filter2_f_3099_8903" x="256.127" y="94.6152" width="213.057" height="235.984" filterUnits="userSpaceOnUse" color-interpolation-filters="sRGB">
<feFlood flood-opacity="0" result="BackgroundImageFix"/>
<feBlend mode="normal" in="SourceGraphic" in2="BackgroundImageFix" result="shape"/>
<feGaussianBlur stdDeviation="32" result="effect1_foregroundBlur_3099_8903"/>
</filter>
<filter id="filter3_d_3099_8903" x="252.846" y="417.343" width="266.451" height="196.32" filterUnits="userSpaceOnUse" color-interpolation-filters="sRGB">
<feFlood flood-opacity="0" result="BackgroundImageFix"/>
<feColorMatrix in="SourceAlpha" type="matrix" values="0 0 0 0 0 0 0 0 0 0 0 0 0 0 0 0 0 0 127 0" result="hardAlpha"/>
<feOffset dy="21.339"/>
<feGaussianBlur stdDeviation="34.1424"/>
<feComposite in2="hardAlpha" operator="out"/>
<feColorMatrix type="matrix" values="0 0 0 0 0.447059 0 0 0 0 0.360784 0 0 0 0 1 0 0 0 0.15 0"/>
<feBlend mode="normal" in2="BackgroundImageFix" result="effect1_dropShadow_3099_8903"/>
<feBlend mode="normal" in="SourceGraphic" in2="effect1_dropShadow_3099_8903" result="shape"/>
</filter>
<filter id="filter4_d_3099_8903" x="70.4297" y="250.182" width="153.66" height="153.66" filterUnits="userSpaceOnUse" color-interpolation-filters="sRGB">
<feFlood flood-opacity="0" result="BackgroundImageFix"/>
<feColorMatrix in="SourceAlpha" type="matrix" values="0 0 0 0 0 0 0 0 0 0 0 0 0 0 0 0 0 0 127 0" result="hardAlpha"/>
<feOffset dy="8"/>
<feGaussianBlur stdDeviation="24"/>
<feComposite in2="hardAlpha" operator="out"/>
<feColorMatrix type="matrix" values="0 0 0 0 0.447059 0 0 0 0 0.360784 0 0 0 0 1 0 0 0 0.5 0"/>
<feBlend mode="normal" in2="BackgroundImageFix" result="effect1_dropShadow_3099_8903"/>
<feBlend mode="normal" in="SourceGraphic" in2="effect1_dropShadow_3099_8903" result="shape"/>
</filter>
<linearGradient id="paint0_linear_3099_8903" x1="362.37" y1="235.078" x2="368.026" y2="241.898" gradientUnits="userSpaceOnUse">
<stop stop-color="#9585FF"/>
<stop offset="1" stop-color="#725CFF"/>
</linearGradient>
<linearGradient id="paint1_linear_3099_8903" x1="362.37" y1="322.147" x2="368.026" y2="328.966" gradientUnits="userSpaceOnUse">
<stop stop-color="#9585FF"/>
<stop offset="1" stop-color="#725CFF"/>
</linearGradient>
<linearGradient id="paint2_linear_3099_8903" x1="298.628" y1="460.278" x2="304.284" y2="467.097" gradientUnits="userSpaceOnUse">
<stop stop-color="#9585FF"/>
<stop offset="1" stop-color="#725CFF"/>
</linearGradient>
<linearGradient id="paint3_linear_3099_8903" x1="362.37" y1="409.211" x2="368.026" y2="416.031" gradientUnits="userSpaceOnUse">
<stop stop-color="#9585FF"/>
<stop offset="1" stop-color="#725CFF"/>
</linearGradient>
<linearGradient id="paint4_linear_3099_8903" x1="172.698" y1="496.274" x2="178.354" y2="503.093" gradientUnits="userSpaceOnUse">
<stop stop-color="#9585FF"/>
<stop offset="1" stop-color="#725CFF"/>
</linearGradient>
<linearGradient id="paint5_linear_3099_8903" x1="267.536" y1="235.078" x2="273.192" y2="241.898" gradientUnits="userSpaceOnUse">
<stop stop-color="#9585FF"/>
<stop offset="1" stop-color="#725CFF"/>
</linearGradient>
<linearGradient id="paint6_linear_3099_8903" x1="358.932" y1="158.111" x2="397.872" y2="197.051" gradientUnits="userSpaceOnUse">
<stop stop-color="#9585FF"/>
<stop offset="1" stop-color="#725CFF"/>
</linearGradient>
<linearGradient id="paint7_linear_3099_8903" x1="396.406" y1="469.445" x2="445.844" y2="518.887" gradientUnits="userSpaceOnUse">
<stop stop-color="#9585FF"/>
<stop offset="1" stop-color="#725CFF"/>
</linearGradient>
<linearGradient id="paint8_linear_3099_8903" x1="118.43" y1="290.182" x2="176.09" y2="347.842" gradientUnits="userSpaceOnUse">
<stop stop-color="#9585FF"/>
<stop offset="1" stop-color="#725CFF"/>
</linearGradient>
<clipPath id="clip0_3099_8903">
<rect width="470" height="550" rx="16" fill="white"/>
</clipPath>
<clipPath id="clip1_3099_8903">
<rect x="80" y="61.25" width="1038.68" height="593.739" rx="19.2051" fill="white"/>
</clipPath>
<clipPath id="clip2_3099_8903">
<rect width="13.4023" height="13.4023" fill="white" transform="translate(395.922 351.301)"/>
</clipPath>
<clipPath id="clip3_3099_8903">
<rect width="13.4023" height="13.4023" fill="white" transform="translate(301.088 264.246)"/>
</clipPath>
<clipPath id="clip4_3099_8903">
<rect width="21.3046" height="21.3046" fill="white" transform="translate(194.824 343.473)"/>
</clipPath>
</defs>
</svg>
