<svg fill="none" height="39" viewBox="0 0 196 39" width="196" xmlns="http://www.w3.org/2000/svg"><g fill="#343c54"><path d="m55.3686 31.3394c0 1.1056.8962 2.0018 2.0017 2.0018 1.1056 0 2.0018-.8962 2.0018-2.0018v-20.8332c0-1.10553-.8962-2.00175-2.0018-2.00175-1.1055 0-2.0017.89622-2.0017 2.00175z"/><path d="m67.0777 31.3394c0 1.1056-.8963 2.0018-2.0018 2.0018-1.1056 0-2.0018-.8962-2.0018-2.0018v-14.5313c0-1.1056.8962-2.0018 2.0018-2.0018 1.1055 0 2.0018.8962 2.0018 2.0018z"/><path d="m111.258 31.3394c0 1.1056.896 2.0018 2.001 2.0018 1.106 0 2.002-.8962 2.002-2.0018v-14.5313c0-1.1056-.896-2.0018-2.002-2.0018-1.105 0-2.001.8962-2.001 2.0018z"/><path d="m127.023 33.7489c-1.928 0-3.559-.4077-4.893-1.2233-1.335-.8155-2.36-1.94-3.077-3.3733-.692-1.4334-1.038-3.1015-1.038-5.0044 0-1.903.358-3.5711 1.075-5.0045.741-1.458 1.792-2.5825 3.151-3.3733 1.359-.8155 3.003-1.2233 4.93-1.2233 1.631 0 3.065.3089 4.3.9267 1.236.6179 2.187 1.4828 2.855 2.5949.44.7079.71 1.4662.864 2.2534.21 1.075-.714 1.9726-1.81 1.9726-1.095 0-1.888-.9232-2.257-1.9545-.167-.4675-.43-.8936-.838-1.2335-.717-.6426-1.841-.9638-3.373-.9638-1.78 0-3.052.5066-3.818 1.5198-.742.9885-1.113 2.4713-1.113 4.4484 0 2.0018.371 3.5093 1.113 4.5225.766.9885 2.038 1.4828 3.818 1.4828 1.532 0 2.656-.3089 3.373-.9267.4-.3465.662-.771.83-1.235.374-1.0296 1.17-1.953 2.265-1.953 1.096 0 2.019.8981 1.8 1.9713-.157.7724-.428 1.5165-.854 2.2175-.692 1.1121-1.668 1.9894-2.929 2.632-1.235.6178-2.694.9267-4.374.9267z"/><path clip-rule="evenodd" d="m142.117 32.5256c1.384.7909 3.015 1.1863 4.893 1.1863s3.485-.3954 4.819-1.1863c1.359-.8155 2.397-1.94 3.114-3.3733.742-1.4581 1.112-3.1386 1.112-5.0415s-.37-3.5711-1.112-5.0044c-.717-1.4334-1.755-2.5455-3.114-3.3363-1.334-.8155-2.941-1.2233-4.819-1.2233s-3.509.4078-4.893 1.2233c-1.384.7908-2.447 1.9029-3.188 3.3363-.741 1.4333-1.112 3.1015-1.112 5.0044s.371 3.5834 1.112 5.0415c.741 1.4333 1.804 2.5578 3.188 3.3733zm8.934-3.8182c-.766.9639-2.113 1.4458-4.041 1.4458-1.952 0-3.311-.4819-4.077-1.4458-.767-.9885-1.15-2.5207-1.15-4.5966s.383-3.5958 1.15-4.5596c.766-.9638 2.125-1.4457 4.077-1.4457 1.928 0 3.275.4819 4.041 1.4457s1.149 2.4837 1.149 4.5596-.383 3.6081-1.149 4.5966z" fill-rule="evenodd"/><path d="m176.211 31.3394c0 1.1055-.896 2.0018-2.001 2.0018-1.106 0-2.002-.8963-2.002-2.0018v-8.7114c0-1.6311-.309-2.8049-.927-3.5216-.618-.7414-1.779-1.1121-3.484-1.1121-1.088 0-1.978.1606-2.669.4819-.692.2965-1.211.7908-1.557 1.4828-.346.6672-.519 1.5816-.519 2.7431v8.6373c0 1.1055-.897 2.0018-2.002 2.0018-1.106 0-2.002-.8963-2.002-2.0018v-14.587c0-1.0134.822-1.8349 1.835-1.8349s1.835.8215 1.835 1.8349v1.6126h.185c.272-.6673.68-1.2851 1.224-1.8535.543-.5684 1.235-1.038 2.076-1.4087.865-.3707 1.89-.556 3.076-.556 1.607 0 2.916.3089 3.93.9267 1.013.6179 1.767 1.4705 2.261 2.5578.494 1.0874.741 2.3354.741 3.7441z"/><path d="m187.684 33.7119c-2.694 0-4.733-.5314-6.117-1.594-1.036-.8141-1.611-1.9406-1.88-3.1646-.229-1.0397.667-1.914 1.732-1.914 1.064 0 1.755.909 2.129 1.9057.046.1212.101.2399.169.3556.272.3954.717.6919 1.335.8896.642.173 1.544.2595 2.706.2595.988 0 1.73-.0741 2.224-.2224.519-.173.865-.4078 1.038-.7043.173-.2966.259-.6673.259-1.1121 0-.7414-.259-1.2604-.778-1.5569-.519-.3213-1.446-.6055-2.78-.8526l-2.892-.482c-1.087-.2224-2.039-.5313-2.854-.9267-.791-.4201-1.409-.9885-1.854-1.7052-.42-.7414-.63-1.6682-.63-2.7802 0-1.6558.655-2.9903 1.965-4.0036 1.31-1.0379 3.163-1.5569 5.56-1.5569 1.458 0 2.756.2348 3.893.7043 1.137.4696 2.039 1.1739 2.706 2.113.428.6025.683 1.2651.829 1.9573.216 1.0319-.683 1.8979-1.737 1.8979-1.055 0-1.755-.9073-2.167-1.8776-.013-.0291-.025-.0582-.039-.0871-.198-.4448-.568-.7908-1.112-1.0379s-1.372-.3707-2.484-.3707c-1.458 0-2.422.1853-2.891.556-.47.3707-.705.9144-.705 1.6311s.21 1.2233.631 1.5199c.444.2718 1.309.5437 2.594.8155l3.151.5931c1.187.2224 2.175.5561 2.966 1.0009s1.384 1.0256 1.779 1.7423c.42.7167.631 1.5693.631 2.5578 0 1.7299-.655 3.0768-1.965 4.0406-1.285.9391-3.089 1.4087-5.412 1.4087z"/><path clip-rule="evenodd" d="m99.8705 33.7119c-2.0018 0-3.6699-.3954-5.0044-1.1863-1.3345-.8155-2.3231-1.94-2.9656-3.3733-.6426-1.4581-.9638-3.1386-.9638-5.0415s.3583-3.5711 1.075-5.0044c.7414-1.4334 1.7793-2.5455 3.1139-3.3363 1.3345-.8155 2.9161-1.2233 4.7449-1.2233 1.6555 0 3.1135.3213 4.3745.9638 1.285.6178 2.273 1.5199 2.965 2.7061.717 1.1862 1.075 2.6196 1.075 4.3001 0 .3289-.007.6627-.023.9969-.046.9049-.826 1.5609-1.732 1.5609h-11.8373c.0407.9821.1849 1.8347.4329 2.5578.3212.8403.8649 1.4705 1.631 1.8906s1.8164.6302 3.151.6302c1.5564 0 2.6564-.2472 3.2994-.7414.16-.1232.296-.2562.41-.3982.688-.8526 1.442-1.8631 2.537-1.8631s2.035.9067 1.746 1.963c-.162.5883-.417 1.1489-.801 1.6698-.692.9144-1.656 1.6311-2.891 2.1501-1.211.519-2.657.7785-4.3375.7785zm-4.1148-14.346c-.5756.7741-.92 1.7873-1.0333 3.0397h9.7326c.044-.9692-.088-1.7724-.396-2.4096-.321-.7166-.852-1.248-1.594-1.594-.716-.3459-1.618-.5189-2.7057-.5189-1.9524 0-3.2869.4942-4.0036 1.4828z" fill-rule="evenodd"/><path d="m83.9137 31.3394c0 1.1055.8963 2.0018 2.0018 2.0018s2.0018-.8963 2.0018-2.0018v-9.564c0-1.4087-.2472-2.6567-.7414-3.7441-.4943-1.0873-1.248-1.9399-2.2613-2.5578-1.0132-.6178-2.323-.9267-3.9294-.9267-1.1862 0-2.2118.1853-3.0768.556-.8402.3707-1.5322.8403-2.0759 1.4087s-.9514 1.1862-1.2233 1.8535h-.1853v-1.6126c0-1.0134-.8216-1.8349-1.835-1.8349s-1.8349.8215-1.8349 1.8349v14.587c0 1.1055.8962 2.0018 2.0017 2.0018 1.1056 0 2.0018-.8963 2.0018-2.0018v-8.6373c0-1.1615.173-2.0759.519-2.7431.346-.692.8649-1.1863 1.5569-1.4828.692-.3213 1.5816-.4819 2.669-.4819 1.7052 0 2.8668.3707 3.4846 1.1121.6178.7167.9267 1.8905.9267 3.5216z"/><path d="m67.3798 10.5978c0 1.2867-1.0431 2.3298-2.3298 2.3298-1.2785 0-2.3182-1.0302-2.3298-2.3086l-.001-.1085c-.0118-1.29527 1.035-2.35156 2.3303-2.35156 1.287 0 2.3303 1.04333 2.3303 2.33036z"/><path d="m115.549 10.5978c0 1.2867-1.043 2.3298-2.33 2.3298-1.278 0-2.318-1.0302-2.329-2.3086l-.001-.1085c-.012-1.29527 1.035-2.35156 2.33-2.35156 1.287 0 2.33 1.04333 2.33 2.33036z"/></g><path d="m12.1719 10.1919c-.4633-.46341-1.1491-.6673-1.7978-.50048-.64876.14828-1.16774.63018-1.37162 1.27888l-7.97 24.8182c-.222422.6858-.037073 1.4272.46337 1.9277.3707.3707.8526.556 1.35305.556.18534 0 .38923-.0371.57458-.0927l24.83672-7.97c.6302-.2038 1.1121-.7228 1.2789-1.3715.1668-.6488-.037-1.3346-.5004-1.7979zm-6.37596 23.2427 5.87556-18.331 12.4554 12.4554z" fill="#725cff"/><path d="m22.4033 14.306c.1298.9638.9453 1.6681 1.8906 1.6681.8313 0 1.6788-.1886 2.5022-.2966 2.391-.3151 4.2074-2.3724 4.1889-4.782v-.5931c0-.278.1112-.51896.2965-.70431.1854-.18535.4449-.29656.7044-.29656h3.1509c1.0565 0 1.9091-.8526 1.9091-1.90909s-.8526-1.9091-1.9091-1.9091h-3.1509c-1.279 0-2.4837.50045-3.3919 1.40866s-1.4087 2.13151-1.4087 3.4104v.5931c0 .5005-.3707.9268-.8711.9824l-2.2613.2965c-1.0379.1298-1.7793 1.0936-1.6496 2.1316z" fill="#725cff"/><path d="m41.0671 16.9757c-4.8191-3.6885-10.0274-.4263-12.1219 1.8164-.7228.7599-.6672 1.9647.0927 2.6875.7711.7325 1.9736.6755 2.6876-.0741.1482-.1668 3.7625-3.9109 7.0247-1.4086.8341.6487 2.0388.4819 2.669-.3522.6487-.8341.4819-2.0388-.3521-2.669z" fill="#725cff"/><path d="m20.197 10.3032c2.1315-1.63112 4.2815-5.4493 1.4828-9.24896-.6302-.852602-1.8164-1.0379508-2.669-.407765-.8527.630185-1.038 1.816415-.4078 2.669025 1.4642 1.98323-.2039 3.5587-.7414 3.985-.8341.64872-.9824 1.83495-.3522 2.66902.6521.84768 1.8505.95038 2.6876.33368z" fill="#725cff"/></svg>