<svg fill="none" height="38" viewBox="0 0 135 38" width="135" xmlns="http://www.w3.org/2000/svg" xmlns:xlink="http://www.w3.org/1999/xlink"><clipPath id="a"><path d="m.511719.420898h133.76v37.1556h-133.76z"/></clipPath><g clip-path="url(#a)"><path d="m116.391 21.5011c0-.5295.46-.9669.99-.9669.529 0 .967.4374.967.9669 0 .5294-.461.9668-.967.9668-.507 0-.99-.4374-.99-.9668z" fill="#000"/><path d="m119.711 19.0379h1.311v.4834c0 .9669.53 1.6806 1.635 1.6806 1.106 0 1.612-.6907 1.612-1.7266v-7.1364h1.335v7.1824c0 1.7957-1.198 2.9007-2.97 2.9007-1.888 0-2.946-1.1971-2.946-2.9236v-.4835z" fill="#000"/><path d="m130.685 12.2004c1.888 0 3.108 1.059 3.223 2.7856h-1.358c-.069-.9899-.76-1.5655-1.887-1.5655-1.244 0-2.049.6216-2.049 1.6115 0 .8057.459 1.2661 1.381 1.4963l1.634.3914c1.611.3684 2.44 1.2431 2.44 2.6474 0 1.7956-1.381 2.9237-3.499 2.9237s-3.361-1.0591-3.453-2.7626h1.381c.024.9439.829 1.5425 2.072 1.5425 1.312 0 2.164-.6216 2.164-1.6116 0-.7826-.414-1.266-1.381-1.4963l-1.635-.3683c-1.611-.3683-2.462-1.3122-2.462-2.7395 0-1.7035 1.381-2.8546 3.429-2.8546z" fill="#000"/><path d="m63.6521 2.27832v14.29588l-9.4615-14.29588h-3.4992v20.18918h3.4762v-14.31888l9.4845 14.31888h3.4762v-20.18918z" fill="#000"/><path d="m82.2807 2.27832v3.24593h-9.0011v5.20265h8.0573v3.1079h-8.0573v5.3638h9.0011v3.2689h-12.5463v-20.18918z" fill="#000"/><path d="m104.882 2.27832-2.21 3.24593h6.399v16.94325h3.546v-16.94325h4.512l2.187-3.24593z" fill="#000"/><path d="m89.8473 14.5029 2.1641 3.1769-3.269 4.7884h-4.3049z" fill="#000"/><path d="m102.537 22.4676h-4.3282l-4.7197-6.9523-2.1636-3.1769-6.8372-10.06008h4.3048l4.696 6.88322 4.6733-6.88322h4.3056l-4.5583 6.69904-2.2795 3.36104z" fill="#000"/><g fill="#535353"><path d="m50.6914 25.1475h6.0315v.7826h-2.6014v7.62h-.8517v-7.62h-2.5784z"/><path d="m56.4492 30.6968c0-1.7726 1.105-2.9927 2.7395-2.9927s2.5783 1.082 2.5783 2.6935v.3913h-4.5351c.0691 1.3813.7828 2.187 2.0029 2.187.9208 0 1.5194-.3913 1.7495-1.1511h.7827c-.2993 1.1971-1.197 1.8417-2.5322 1.8417-1.6806 0-2.7856-1.197-2.7856-2.9697zm.8057-.4834h3.7064c0-1.082-.7137-1.8187-1.7726-1.8187s-1.7726.7137-1.9107 1.8187z"/><path d="m63.0547 33.5515v-5.6862h.7137l.092.8057c.2763-.5985.9208-.9669 1.7265-.9669.8979 0 1.5655.4605 1.8417 1.2201.2533-.7366.9439-1.2201 1.8647-1.2201 1.2431 0 2.0488.8058 2.0488 2.118v3.7294h-.7826v-3.5452c0-.9669-.5525-1.5425-1.4043-1.5425-.9439 0-1.5194.7137-1.5194 1.5884v3.4993h-.8057v-3.5683c0-.9669-.5525-1.5194-1.4043-1.5194-.9439 0-1.5193.7137-1.5193 1.5654v3.5223z"/><path d="m72.9531 27.8653h.7137l.092 1.151c.3914-.8748 1.1972-1.3122 2.164-1.3122 1.6575 0 2.6244 1.2662 2.6244 2.9698 0 1.7034-.9439 2.9926-2.6244 2.9926-.9668 0-1.7265-.4143-2.1179-1.2431v3.5682h-.8057v-8.1494zm2.8086 5.0876c1.2431 0 1.9567-.9439 1.9567-2.2561s-.7136-2.256-1.9567-2.256-1.9798.9438-1.9798 2.256.7367 2.2561 1.9798 2.2561z"/><path d="m79.8594 33.5511v-7.9883l.8057-.5755v8.5408h-.8057z"/><path d="m82.0938 32.0075c0-1.036.8058-1.7036 2.1409-1.7957l1.8877-.1611v-.1841c0-1.105-.6676-1.4734-1.4963-1.4734-.9899 0-1.5655.4374-1.5655 1.2201h-.7366c0-1.151.9439-1.8877 2.3482-1.8877 1.3121 0 2.279.6676 2.279 2.1639v3.6604h-.6906l-.1151-.9899c-.3454.7137-1.1281 1.151-2.095 1.151-1.2201 0-1.9337-.6907-1.9337-1.6805zm4.0056-1.036v-.2992l-1.6805.1381c-1.082.0921-1.4964.5525-1.4964 1.1971 0 .6906.5065 1.0359 1.2892 1.0359 1.1971 0 1.8877-.8288 1.8877-2.0719z"/><path d="m88.9322 33.5512v-4.9956h-1.151v-.6906h1.151v-1.2432l.8058-.5525v1.7957h1.151v.6906h-1.151v4.9956z"/><path d="m91.4648 30.6968c0-1.7726 1.1051-2.9927 2.7399-2.9927 1.6339 0 2.5777 1.082 2.5777 2.6935v.3913h-4.5349c.0691 1.3813.7827 2.187 2.0027 2.187.9205 0 1.5197-.3913 1.75-1.1511h.7822c-.2991 1.1971-1.1964 1.8417-2.5322 1.8417-1.6803 0-2.7854-1.197-2.7854-2.9697zm.8058-.4834h3.7064c0-1.082-.7134-1.8187-1.7723-1.8187-1.0594 0-1.773.7137-1.9111 1.8187z"/><path d="m98.3681 31.9394c0 .6677.4839 1.0591 1.2893 1.0591.8746 0 1.4046-.3684 1.4046-.99 0-.4604-.231-.7367-.898-.8978l-.9664-.2532c-.9902-.2533-1.4742-.7597-1.4742-1.5424 0-.9899.8295-1.6344 2.0491-1.6344 1.2205 0 1.9795.6676 2.0025 1.7035h-.782c0-.6676-.484-1.0359-1.2437-1.0359-.7598 0-1.2428.3452-1.2428.9438 0 .4374.2991.7366.9205.8978l.967.2532c.99.2533 1.428.7137 1.428 1.5194 0 1.0129-.875 1.6805-2.1646 1.6805-1.2893 0-2.0715-.6906-2.0715-1.7265h.7822z"/><path d="m133.089 30.829h-27.21l1.036-1.1972h27.187z"/></g><path d="m37.6903 18.9756c0 2.5553-.5065 4.9956-1.4273 7.1826-2.8085 6.722-9.4155 11.4183-17.1505 11.4183-10.26725 0-18.600781-8.3105-18.600781-18.5778 0-10.26729 8.333531-18.577802 18.600781-18.577802 5.9624 0 11.2802 2.808532 14.6873 7.182482h-15.0326l2.6244 3.93662h3.361v12.2009l-3.7524-5.6861-6.9292-10.45142h-3.9596v22.54192h3.9366v-15.9119l10.7046 16.1606h3.9136v-18.854h7.4817c.9899 2.279 1.5424 4.7883 1.5424 7.4356z" fill="#000"/></g></svg>