<svg fill="none" height="48" viewBox="0 0 135 48" width="135" xmlns="http://www.w3.org/2000/svg" xmlns:xlink="http://www.w3.org/1999/xlink"><clipPath id="a"><path d="m.5 0h134v48h-134z"/></clipPath><clipPath id="b"><path d="m.5 14h133.333v20h-133.333z"/></clipPath><g clip-path="url(#a)"><g clip-path="url(#b)" fill="#343c54"><path d="m3.91912 24.3359-3.072375 5.4554c-.565702.9987-.429934 2.2064.339425 3.0426.49782.5341 1.1314.8128 1.78761.8128.38468 0 .79199-.0928 1.15404-.2787l6.25968-3.278-3.68478-1.9297c-1.30804-.6869-2.23556-1.868-2.64909-3.2626-.05514-.186-.09992-.3735-.13451-.5618z" opacity=".5"/><path d="m11.8719 14c1.2672 0 2.4212.6736 3.0548 1.8116l7.8746 13.982c.5656.9987.4299 2.2065-.3395 3.0426-.4978.5342-1.1313.8129-1.7876.8129-.3847 0-.792-.0929-1.154-.2787l-12.19659-6.3871c-.97297-.511-1.67444-1.3936-1.99124-2.462-.31679-1.0684-.18102-2.2064.36205-3.1819l3.10006-5.5278c.6562-1.138 1.78762-1.8116 3.07742-1.8116z"/><path d="m44.0694 17.231v8.9418l-8.6426-10.2381c-.0997-.1164-.2493-.1496-.3822-.0998l-2.0278.8311c-.1329.0498-.216.1662-.216.3157v14.7423c0 .1828.1496.3324.3324.3324h2.5429c.1829 0 .3325-.1496.3325-.3324v-10.1384l8.7257 10.3545c.0664.083.1495.1163.2492.1163h1.9613c.1828 0 .3323-.1496.3323-.3324v-15.4902c0-.2327-.2326-.3989-.4486-.3158l-2.543.9973c-.133.0664-.2161.1828-.2161.3157z"/><path d="m54.7316 20.0781c-1.7285 0-3.1744.5984-4.3712 1.7784-1.1966 1.1966-1.7784 2.6426-1.7784 4.3712 0 1.7284.5984 3.1744 1.7784 4.3711 1.1968 1.1967 2.6427 1.7784 4.3712 1.7784s3.1911-.5983 4.3878-1.7784c1.1966-1.1967 1.795-2.6427 1.795-4.3711 0-1.7286-.5984-3.1746-1.795-4.3712-1.2133-1.18-2.6593-1.7784-4.3878-1.7784zm2.2604 8.4598c-.5984.5983-1.3629.9141-2.2604.9141s-1.6454-.2991-2.2437-.9141c-.5984-.5984-.8976-1.3795-.8976-2.3102 0-.9308.2992-1.6953.8976-2.3103.5983-.5983 1.3462-.9141 2.2437-.9141s1.662.2992 2.2604.9141c.5983.5983.9141 1.3795.9141 2.3103 0 .9307-.3158 1.6953-.9141 2.3102z"/><path d="m62.5551 32.0567h2.3434c.1828 0 .3324-.1495.3324-.3324v-5.1719c0-1.1136.3656-2.0716 1.0804-2.5536.6316-.4155 1.3295-.615 2.1108-.5818.1827 0 .3487-.1495.3487-.3323v-2.5792c0-.1994-.166-.349-.3487-.3324-.648.0499-1.2466.2327-1.795.5485-.6482.3656-1.1136.9308-1.3795 1.6787v-1.4959c0-.2326-.2327-.3989-.4488-.3158l-2.3601.9308c-.133.0498-.216.1662-.216.3158v9.8891c0 .1829.1495.3324.3324.3324z"/><path d="m70.0788 20.3626h1.0133.0173v-2.0319c0-.1495.0827-.2659.216-.3157l2.3434-.9308c.216-.0831.448.0831.448.3158v2.9626h3.0666c.1834 0 .3327.1496.3327.3324v2.2752c0 .1828-.1493.3324-.3327.3324h-3.0666v4.2599c0 1.2022.7653 1.7631 1.6466 1.7631.426 0 .8834-.0879 1.2374-.1927.2393-.0708.5253.109.5253.3582v2.3371c0 .1337-.082.254-.21.2942-.324.1024-.8313.2485-1.5527.2485-1.924 0-4.654-1.3624-4.654-4.568v-.9617-3.5386h-1.0306c-.1834 0-.3327-.1496-.3327-.3324v-2.2752c0-.1828.1493-.3324.3327-.3324z"/><path d="m99.3031 15.4062c-2.36 0-4.3547.8145-6 2.4599-1.6454 1.6454-2.4593 3.6398-2.4593 6.0166 0 2.3766.8139 4.3878 2.4593 6.0165 1.6453 1.6454 3.64 2.4598 6 2.4598 2.3599 0 4.3709-.8144 6.0159-2.4598 1.646-1.6454 2.477-3.6399 2.477-6.0165 0-2.3768-.831-4.3878-2.477-6.0166-1.645-1.6288-3.656-2.4599-6.0159-2.4599zm3.7559 12.3157c-1.013.9972-2.261 1.4959-3.7559 1.4959-1.496 0-2.7427-.4987-3.7567-1.4959s-1.512-2.2769-1.512-3.8392c0-1.5457.498-2.8422 1.512-3.8394 1.014-1.0138 2.2607-1.5124 3.7567-1.5124 1.4949 0 2.7429.4986 3.7559 1.5124 1.014 1.0139 1.513 2.2937 1.513 3.8394 0 1.5623-.499 2.842-1.513 3.8392z"/><path d="m115.556 20.0781c-1.578 0-2.742.5485-3.473 1.6288v-.7978c0-.2326-.233-.3988-.449-.3157l-2.344.9141c-.132.0498-.216.1662-.216.3158v9.8891c0 .1828.15.3324.333.3324h2.343c.184 0 .333-.1496.333-.3324v-5.9501c0-.964.233-1.6787.698-2.1606.465-.482 1.08-.7147 1.861-.7147.698 0 1.263.1994 1.679.6149s.631 1.0138.631 1.7784v6.4487c0 .1828.15.3324.333.3324h2.344c.182 0 .332-.1496.332-.3324v-6.8144c0-1.5124-.416-2.6925-1.247-3.5401-.83-.8642-1.878-1.2964-3.158-1.2964z"/><path d="m133.276 26.2286c0-1.7451-.549-3.2076-1.662-4.3878-1.114-1.18-2.527-1.7783-4.222-1.7783-1.795 0-3.274.5817-4.422 1.7618-1.146 1.18-1.728 2.6426-1.728 4.3877 0 1.7784.582 3.241 1.746 4.4044 1.163 1.1635 2.709 1.7452 4.636 1.7452 2.095 0 3.707-.7313 4.854-2.1939.116-.1662.083-.3989-.1-.4986l-1.862-1.0803c-.132-.0832-.298-.0499-.415.0664-.581.6482-1.397.964-2.443.964-1.796 0-2.876-.7312-3.291-2.1938h8.509c.167 0 .3-.133.333-.2826.033-.2992.067-.615.067-.9142zm-8.959-1.0968c.167-.748.515-1.3297 1.047-1.7286.532-.4155 1.197-.615 2.012-.615.681 0 1.296.1995 1.828.5818.532.3822.897.9806 1.064 1.7784h-5.951z"/><path d="m78.832 15.2682v16.4589c0 .1828.1494.3325.3327.3325h2.3433c.1827 0 .3327-.1497.3327-.3325v-5.9667c0-.964.232-1.6787.698-2.1606.4653-.482 1.08-.7147 1.8607-.7147.6986 0 1.2633.1994 1.6786.615.416.4155.632 1.0138.632 1.7784v6.4486c0 .1828.1494.3325.3327.3325h2.3427c.1833 0 .3326-.1497.3326-.3325v-6.8143c0-1.5125-.4153-2.6925-1.246-3.5402-.8306-.8476-1.8786-1.2797-3.158-1.2797-1.5786 0-2.7426.5485-3.4733 1.6288v-7.3842c0-.2327-.2333-.3989-.4493-.3158l-2.3434.9307c-.1333.0499-.216.1663-.216.3158z"/></g></g></svg>