<svg fill="none" height="48" viewBox="0 0 125 48" width="125" xmlns="http://www.w3.org/2000/svg" xmlns:xlink="http://www.w3.org/1999/xlink"><clipPath id="a"><path d="m.5 0h124v48h-124z"/></clipPath><g clip-path="url(#a)" clip-rule="evenodd" fill="#343c54" fill-rule="evenodd"><path d="m57.6933 18.0708h-2.5889c-.1679-.0009-.3294.0645-.4495.1819-.1202.1175-.1893.2775-.1925.4455v8.6123h3.2319c.0819 0 .163-.0163.2386-.0479.0755-.0316.144-.078.2015-.1364s.1029-.1277.1334-.2037c.0305-.0761.0456-.1575.0444-.2395v-7.9848c.0012-.082-.0139-.1633-.0444-.2394s-.0759-.1453-.1334-.2037-.126-.1048-.2015-.1365c-.0756-.0316-.1567-.0479-.2386-.0478zm-4.8222 14.3775v-15.4144c0-.1931.1185-.3138.2853-.3138h.8077c.1899 0 .3326.0966.3326.3138v.362c.5465-.4103.8549-.724 1.9238-.724h1.1654c1.3753 0 2.5176 1.1334 2.5176 2.5573v6.9952c0 1.423-1.1402 2.5574-2.5186 2.5574h-2.9225v3.6665c0 .1931-.1185.3138-.2843.3138h-.9986c-.1899 0-.3084-.1207-.3084-.3138zm14.4824-13.738c-.0043-.1666-.0741-.3247-.1943-.4402-.1202-.1154-.2809-.1787-.4472-.1762h-2.5899c-.0816-.0007-.162.0148-.2367.0455-.0754.0307-.1439.0761-.2012.1334s-.1028.1255-.1339.2007c-.0312.0751-.0467.1556-.0461.2368v3.4383h3.8493zm1.5915 4.458c0 .1659-.1427.2846-.3083.2846h-5.1325v3.2482c0 .355.2853.6155.6416.6155h2.5905c.3556 0 .6172-.2605.6172-.6155v-.8779c0-.1891.119-.3077.309-.3077h.9972c.1669 0 .2853.1186.2853.3077v.4274c0 1.3978-1.1399 2.489-2.5183 2.489h-2.0193c-.327.0005-.6509-.0635-.9537-.1883-.302-.1248-.5767-.308-.8084-.5391s-.4155-.5057-.5413-.8079-.1906-.6263-.1912-.9537v-7.0656c.0012-.6675.2672-1.3072.7393-1.7784.4728-.4712 1.1125-.7355 1.7796-.7347h2.0187c.6633.0045 1.2974.2713 1.7646.742.4678.4708.73 1.1075.73 1.7711v3.9823zm2.0094 5.2595v-11.3969c0-.1911.1183-.3118.2852-.3118h.8079c.19 0 .3326.0956.3326.3118v.362c.5463-.4093.8546-.721 1.9241-.721h1.1884c1.3541 0 2.494 1.1062 2.494 2.5241v9.2318c0 .1911-.1184.3118-.3083.3118h-.9985c-.1657 0-.284-.1207-.284-.3118v-9.64c0-.0837-.0162-.1666-.0486-.2438-.0324-.0771-.0804-.147-.1402-.2053-.0598-.0584-.1308-.1041-.2086-.1344-.0779-.0303-.1613-.0446-.2448-.0421h-2.5899c-.0822-.0021-.1644.0127-.2404.0435-.0766.0308-.1458.0769-.2037.1355s-.1034.1285-.1333.2053-.0436.1589-.0405.2413v9.639c0 .1931-.1183.3128-.3083.3128h-.9979c-.1669 0-.2852-.1207-.2852-.3118z"/><path d="m85.4375 22.8848h-3.2078c-.3569 0-.6422.2615-.6422.6185v3.2602c0 .3339.2853.6195.6422.6195h2.5899c.0816.0007.162-.0149.2373-.0458.0754-.0309.1439-.0766.2012-.1342.0579-.0576.1034-.1262.1339-.2017.0306-.0755.0461-.1563.0455-.2378zm1.5914 5.4978c0 .1911-.1189.3097-.2852.3097h-.8079c-.19 0-.332-.0955-.332-.3097v-.357c-.5475.4043-.8558.714-1.9253.714h-1.1878c-1.3541 0-2.4946-1.1183-2.4946-2.5231v-2.1662c0-.328.0642-.6529.19-.956.1252-.3031.3089-.5786.5406-.8107.2311-.232.5064-.4161.8091-.5418.3027-.1256.6273-.1904.9549-.1905h2.9468v-2.8087c0-.357-.2853-.6185-.6422-.6185h-2.3756c-.0822-.0025-.1638.0117-.2398.042-.076.0302-.1451.0756-.2031.1335-.0579.058-.1034.1272-.1333.2034-.0299.0761-.0442.1576-.0417.2396v.9523c0 .1911-.119.3097-.3089.3097h-.9499c-.167 0-.2853-.1197-.2853-.3097v-.5229c0-.33.0654-.6566.1925-.9611.127-.3046.3133-.581.5469-.8133.2342-.2324.512-.4161.8172-.5406.3052-.1246.6322-.1874.9617-.1851h1.7583c.3277.0002.6522.0649.9549.1906.3027.1256.5774.3097.8091.5418s.4155.5075.5407.8107c.1252.303.1899.6279.1899.956zm8.3123-9.6722c.0025-.0818-.0125-.1632-.0424-.2392-.0305-.076-.076-.145-.1339-.2027-.0573-.0578-.1265-.103-.2024-.1331-.076-.03-.1576-.0441-.2392-.0415h-2.4946c-.3569 0-.6422.2615-.6422.6165v2.5613c0 .355.2853.6165.6422.6165h2.3046c1.3772 0 2.5419.8296 2.5419 2.2757v2.0616c0 .6638-.2622 1.3007-.73 1.7717-.4671.471-1.1018.7379-1.7646.7424h-2.0193c-.6671.0008-1.3074-.2636-1.7796-.7351-.4721-.4714-.7381-1.1113-.7393-1.779v-.8527c0-.1892.119-.3078.2853-.3078h.9978c.1906 0 .3083.1186.3083.3078v1.3274c0 .3318.261.6164.6179.6164h2.6373c.1663.0025.327-.0607.4472-.1759s.19-.2731.1949-.4395v-2.7987c0-.355-.2852-.6155-.6421-.6155h-2.3047c-1.3541 0-2.5419-.8548-2.5419-2.2998v-1.8263c.0006-.3274.0654-.6515.1912-.9537.1258-.3023.3096-.5768.5413-.8079s.5064-.4143.8091-.5391c.3021-.1248.626-.1888.953-.1883h1.8057c1.3778 0 2.5183 1.0902 2.5183 2.489v.6637c0 .1911-.1184.3087-.2853.3087h-.9262c-.19 0-.3083-.1186-.3083-.3087z" opacity=".6"/><path d="m104.524 22.8847h-3.208c-.357 0-.642.2615-.642.6185v3.2603c0 .3338.285.6194.642.6194h2.59c.082.0007.162-.0148.237-.0458.076-.0309.144-.0765.202-.1342.058-.0576.103-.1262.134-.2016.03-.0755.046-.1564.045-.2378zm1.591 5.4979c0 .191-.118.3096-.285.3096h-.808c-.19 0-.331-.0955-.331-.3096v-.3571c-.548.4043-.856.7141-1.925.7141h-1.189c-1.354 0-2.4944-1.1183-2.4944-2.5232v-2.1661c0-.3281.0648-.653.19-.956.1252-.3032.309-.5787.5407-.8107.2317-.2321.5067-.4162.8087-.5418.303-.1257.628-.1905.955-.1906h2.947v-2.8087c0-.357-.285-.6185-.642-.6185h-2.376c-.082-.0025-.163.0118-.24.042-.076.0302-.145.0756-.203.1336-.058.0579-.102.1271-.133.2033-.03.0761-.044.1577-.042.2396v.9523c0 .1911-.119.3098-.308.3098h-.9505c-.1669 0-.2852-.1197-.2852-.3098v-.5229c0-1.4049 1.1397-2.5 2.5187-2.5h1.758c.328.0001.652.0649.955.1905.302.1256.578.3098.809.5418.232.2321.415.5076.541.8107.125.3031.189.6279.189.956zm6.832-10.3119h-2.589c-.168-.0008-.33.0646-.45.182-.12.1175-.189.2775-.192.4455v8.6123h3.232c.082 0 .163-.0163.238-.0479.076-.0316.144-.078.202-.1364.057-.0584.103-.1276.133-.2037.031-.0761.046-.1575.045-.2395v-7.9848c.001-.082-.014-.1633-.045-.2394-.03-.0761-.076-.1453-.133-.2037-.058-.0584-.126-.1048-.202-.1365-.075-.0316-.156-.0479-.238-.0479zm-4.822 14.3776v-15.4144c0-.1931.118-.3138.285-.3138h.807c.19 0 .333.0966.333.3138v.362c.547-.4103.855-.724 1.925-.724h1.163c1.379 0 2.519 1.1334 2.519 2.5573v6.9952c0 1.423-1.14 2.5574-2.519 2.5574h-2.922v3.6665c0 .1931-.119.3138-.284.3138h-.999c-.19 0-.308-.1207-.308-.3138zm13.864-14.3776h-2.59c-.167-.0008-.329.0646-.449.182-.12.1175-.189.2775-.192.4455v8.6123h3.231c.083 0 .164-.0163.239-.0479.076-.0316.144-.078.202-.1364.057-.0584.103-.1276.133-.2037.031-.0761.046-.1575.044-.2395v-7.9848c.002-.082-.013-.1633-.044-.2394-.03-.0761-.076-.1453-.133-.2037-.058-.0584-.126-.1048-.202-.1365-.075-.0316-.156-.0479-.239-.0479zm-4.823 14.3776v-15.4144c0-.1931.119-.3138.286-.3138h.808c.189 0 .332.0966.332.3138v.362c.546-.4103.855-.724 1.924-.724h1.165c1.377 0 2.518 1.1334 2.518 2.5573v6.9952c0 1.423-1.141 2.5574-2.519 2.5574h-2.922v3.6665c0 .1931-.119.3138-.285.3138h-.998c-.19 0-.309-.1207-.309-.3138zm-67.9681-12.7344v6.9772c0 .3288-.2501.54-.6088.54h-2.608c-.3587 0-.6189-.2112-.6189-.54v-7.9275c0-.352.2602-.7089.6189-.7089h2.0494l1.2538-1.2068c-.3094-.1298-.65-.176-1.0066-.176h-2.0334c-1.3643 0-2.4162 1.1273-2.4162 2.5151v7.0334c0 1.3878 1.0519 2.5192 2.4162 2.5192h2.0334c1.3884 0 2.5829-1.1314 2.5829-2.5192v-7.0334c0-.3128-.0904-.6104-.198-.884z"/><path d="m20.448 25.5993c-2.6221 0-4.7499-2.1038-4.7499-4.6963 0-2.5946 2.1268-4.6963 4.7499-4.6963s4.7499 2.1017 4.7499 4.6963c0 2.5925-2.1268 4.6963-4.7499 4.6963zm-16.16858 6.416c1.12017-2.3673 3.48308-2.9013 5.40794-1.2913l.10345.0905.0844.0936c1.59739 1.8554 1.14829 4.109-1.07495 5.2464l-.18985.0925-8.11041 3.753zm8.60968-3.7762-.4742-.4696.2211.2282-.2241-.2011c-2.70648-2.3461-6.74508-3.3276-9.44251-2.2677l-.24112.1026-.07836-.0845c-1.44164-1.6643-.2612-7.4668 5.73845-10.0926l16.06304-7.02837c2.0294-.88697 4.9649-.34493 6.5442 1.21682l.208.20716c1.5732 1.55669 2.1227 4.47509 1.2125 6.50249l-7.0665 15.7633c-2.7306 6.0882-7.3539 8.6244-10.3337 5.6768l.0834-.192c.9172-2.314 0-7.1742-2.6844-9.8311l.2391.2444c.0804.0744.1577.1488.2351.2252z"/></g></svg>