<svg width="481" height="116" viewBox="0 0 481 116" fill="none" xmlns="http://www.w3.org/2000/svg">
<path fill-rule="evenodd" clip-rule="evenodd" d="M90.1435 45.9004C90.1435 70.7636 69.988 90.9191 45.1249 90.9191C39.4736 90.9191 34.0655 89.8778 29.0821 87.9766L6.23293 113.924C4.10073 116.346 0.106201 114.838 0.106201 111.611V45.9007C0.106201 21.0376 20.2617 0.88179 45.1249 0.88179C69.988 0.88179 90.1435 21.0373 90.1435 45.9004ZM66.2392 45.9004C66.2392 57.5616 56.786 67.0148 45.1249 67.0148C33.4637 67.0148 24.0105 57.5616 24.0105 45.9004C24.0105 34.2393 33.4637 24.7861 45.1249 24.7861C56.786 24.7861 66.2392 34.2393 66.2392 45.9004Z" fill="#B5B1FF"/>
<path fill-rule="evenodd" clip-rule="evenodd" d="M480.108 55.849C480.108 81.8418 459.036 102.913 433.043 102.913C407.051 102.913 385.979 81.8418 385.979 55.849C385.979 29.8562 407.051 8.78493 433.043 8.78493C459.036 8.78493 480.108 29.8562 480.108 55.849ZM463.698 55.849C463.698 72.779 449.974 86.5036 433.043 86.5036C416.113 86.5036 402.389 72.779 402.389 55.849C402.389 38.9189 416.113 25.1944 433.043 25.1944C449.974 25.1944 463.698 38.9189 463.698 55.849Z" fill="white"/>
<path fill-rule="evenodd" clip-rule="evenodd" d="M121.952 100.849V10.8483H155.536C161.657 10.8483 167.053 11.9758 171.724 14.2308C176.476 16.4053 180.18 19.6268 182.838 23.8953C185.496 28.0833 186.825 33.1974 186.825 39.2377C186.825 45.1975 185.456 50.3116 182.717 54.5801C180.06 58.768 176.395 61.9895 171.724 64.2446C167.053 66.4996 161.657 67.6272 155.536 67.6272H138.382V100.849H121.952ZM138.382 53.1304H155.778C158.758 53.1304 161.335 52.5667 163.509 51.4391C165.684 50.2311 167.375 48.5801 168.583 46.4861C169.791 44.3921 170.395 41.976 170.395 39.2377C170.395 36.4189 169.791 34.0028 168.583 31.9893C167.375 29.8954 165.684 28.2846 163.509 27.1571C161.335 25.949 158.758 25.345 155.778 25.345H138.382V53.1304Z" fill="white"/>
<path d="M200.287 10.8483V100.849H216.717V10.8483H200.287Z" fill="white"/>
<path d="M279.652 51.4912L249.733 10.8483H234.028V100.849H250.458V38.5693L278.364 76.6876H280.297L308.082 39.6731V100.849H324.633V10.8483H308.928L279.652 51.4912Z" fill="white"/>
<path d="M338.091 100.849V85.7481H343.286C347.152 85.7481 350.212 84.6608 352.467 82.4863C354.803 80.2313 355.971 77.2514 355.971 73.5467V10.8483H372.521V72.9426C372.521 78.4997 371.313 83.3722 368.897 87.5602C366.561 91.7481 363.179 95.0099 358.749 97.3455C354.4 99.6811 349.246 100.849 343.286 100.849H338.091Z" fill="white"/>
</svg>
