<svg fill="none" height="65" viewBox="0 0 64 65" width="64" xmlns="http://www.w3.org/2000/svg"><path clip-rule="evenodd" d="m24.0033 18.2673c.0008 1.326-1.074 2.4013-2.4 2.4013h-16.11425c.18944-.2467.39567-.4822.61794-.7046l17.17661-17.18732c.2242-.22436.4617-.4324.7106-.62334zm4.7901-17.60104.0099 17.59834c.0022 3.978-3.222 7.204-7.2 7.204h-17.60354v31.9977c0 3.9764 3.22354 7.2 7.20004 7.2h33.6c3.9764 0 7.2-3.2236 7.2-7.2v-49.60004c0-3.97646-3.2236-7.2-7.2-7.2z" fill="#676d7f" fill-rule="evenodd"/><path d="m18.3994 34.432h41.6v18.0003h-41.6z" fill="#fff"/><path clip-rule="evenodd" d="m19.5361 31.8665c-2.651 0-4.8 2.149-4.8 4.8v13.6186c0 2.6509 2.149 4.8 4.8 4.8h39.3265c2.651 0 4.8-2.1491 4.8-4.8v-13.6186c0-2.651-2.149-4.8-4.8-4.8zm29.0355 17.8933c.8126.4257 1.7478.6385 2.8055.6385 1.0449 0 1.9672-.2063 2.7669-.6191.8127-.4128 1.4383-.9933 1.8769-1.7414.4514-.7482.6772-1.5995.6772-2.5541v-2.6507c0-.0903-.0258-.1613-.0774-.2129s-.1226-.0774-.2129-.0774h-5.05c-.0903 0-.1613.0258-.2129.0774-.0515.0516-.0773.1226-.0773.2129v2.3218c0 .0903.0258.1613.0773.2129.0516.0515.1226.0773.2129.0773h1.7027c.0645 0 .0967.0323.0967.0968v.2515c0 .4644-.1548.832-.4643 1.1029-.2967.258-.6837.387-1.161.387-.5288 0-.9739-.1742-1.335-.5224-.3483-.3483-.5225-.7998-.5225-1.3545v-3.8697c0-.5676.1548-1.0191.4644-1.3544.3096-.3483.7224-.5225 1.2383-.5225.5289 0 .9417.1548 1.2384.4644.3095.3096.4643.6772.4643 1.1029 0 .1161.0968.1741.2903.1741h3.0377c.0903 0 .1613-.0258.2129-.0774s.0774-.1225.0774-.2128v-.0193c0-.8256-.2258-1.5866-.6772-2.2832-.4386-.6966-1.0642-1.2448-1.8769-1.6447-.8126-.4127-1.7349-.6191-2.7669-.6191-1.0577 0-1.9929.2128-2.8055.6385-.7998.4257-1.4254 1.0255-1.8769 1.7994-.4386.7611-.6578 1.6447-.6578 2.6508v3.657c0 1.0061.2192 1.8961.6578 2.6701.4515.7739 1.0771 1.3738 1.8769 1.7994zm-7.5125-12.7703c0-.0903.0258-.1612.0774-.2128s.1225-.0774.2128-.0774h3.0571c.0903 0 .1613.0258.2129.0774s.0774.1225.0774.2128v12.9637c0 .0903-.0258.1613-.0774.2129s-.1226.0774-.2129.0774h-2.9216c-.1548 0-.2709-.0645-.3483-.1935l-3.9472-6.5786c-.0258-.0387-.0516-.0516-.0774-.0387-.0258 0-.0387.0258-.0387.0774l.0387 6.4431c0 .0903-.0258.1613-.0774.2129s-.1225.0774-.2128.0774h-3.0571c-.0903 0-.1613-.0258-.2128-.0774-.0516-.0516-.0774-.1226-.0774-.2129v-12.9637c0-.0903.0258-.1612.0774-.2128.0515-.0516.1225-.0774.2128-.0774h2.9217c.1548 0 .2708.0645.3482.1935l3.9279 6.5786c.0258.0387.0516.058.0774.058.0257-.0129.0386-.0451.0386-.0967zm-10.8692.2709c-.6966-.3741-1.5028-.5611-2.4186-.5611h-5.6692c-.0903 0-.1613.0258-.2129.0774s-.0774.1225-.0774.2128v12.9637c0 .0903.0258.1613.0774.2129s.1226.0774.2129.0774h3.0571c.0903 0 .1612-.0258.2128-.0774s.0774-.1226.0774-.2129v-4.3535c0-.0645.0323-.0967.0968-.0967h2.0509c.9417 0 1.7737-.1806 2.496-.5418.7224-.3612 1.2835-.8707 1.6834-1.5285.3999-.6579.5998-1.419.5998-2.2832 0-.8771-.1935-1.6511-.5805-2.3219-.374-.6836-.9094-1.206-1.6059-1.5672zm-1.8769 4.9726c-.2837.2451-.6643.3677-1.1415.3677h-1.6253c-.0645 0-.0968-.0323-.0968-.0968v-2.5927c0-.0645.0323-.0968.0968-.0968h1.6253c.4772 0 .8578.129 1.1415.387.2967.258.4451.5998.4451 1.0255 0 .4128-.1484.7481-.4451 1.0061z" fill="#ff5656" fill-rule="evenodd"/></svg>