<svg fill="none" height="48" viewBox="0 0 147 48" width="147" xmlns="http://www.w3.org/2000/svg" xmlns:xlink="http://www.w3.org/1999/xlink"><clipPath id="a"><path d="m.5 0h146v48h-146z"/></clipPath><clipPath id="b"><path d="m.902344 12h145.455v24h-145.455z"/></clipPath><g clip-path="url(#a)"><g clip-path="url(#b)" fill="#343c54"><path d="m55.2288 32.5913-2.7706-3.9711c-.1847.0231-.3464.0231-.531.0231h-3.0707v3.948h-2.5167v-13.5757h5.5874c3.5786 0 5.795 1.824 5.795 4.8254 0 2.0549-1.0389 3.5786-2.8859 4.2944l3.1399 4.4559zm-3.4171-11.4516h-2.9552v5.4257h2.9552c2.2165 0 3.3478-1.0159 3.3478-2.7244s-1.1313-2.7013-3.3478-2.7013z"/><path d="m68.8695 26.5199v6.0721h-2.2857v-1.2699c-.5772.9004-1.7085 1.4084-3.2554 1.4084-2.355 0-3.8557-1.2929-3.8557-3.0938 0-1.7316 1.1775-3.0938 4.3174-3.0938h2.6783v-.1616c0-1.4084-.8543-2.2626-2.5859-2.2626-1.1544 0-2.355.3925-3.14 1.0389l-.9466-1.7547c1.1082-.8543 2.7244-1.2698 4.3867-1.2698 2.9553-.0231 4.6869 1.4084 4.6869 4.3868zm-2.4243 2.8397v-1.2006h-2.4934c-1.6393 0-2.101.6235-2.101 1.3854 0 .8773.7387 1.4314 1.9855 1.4314 1.1775-.0231 2.1934-.5541 2.6089-1.6162z"/><path d="m82.1934 26.6577v5.9336h-2.4248v-5.6334c0-1.8471-.9229-2.7475-2.4698-2.7475-1.7316 0-2.8865 1.0389-2.8865 3.1169v5.2409h-2.424v-10.3434h2.3091v1.3391c.808-.9466 2.0545-1.4545 3.5782-1.4545 2.4705 0 4.3178 1.4314 4.3178 4.5483z"/><path d="m89.5138 28.1615-1.8007 1.7085v2.7244h-2.424v-14.4069h2.424v8.7042l5.0334-4.6638h2.9091l-4.3411 4.3405 4.7331 6.0029h-2.9549z"/><path d="m110.315 32.5914-.023-9.0044-4.456 7.4575h-1.132l-4.456-7.342v8.8889h-2.4003v-13.5758h2.0778l5.4025 9.0044 5.31-9.0044h2.078l.023 13.5758z"/><path d="m124.815 26.5199v6.0721h-2.286v-1.2699c-.577.9004-1.708 1.4084-3.255 1.4084-2.355 0-3.856-1.2929-3.856-3.0938 0-1.7316 1.177-3.0707 4.318-3.0707h2.678v-.1616c0-1.4084-.854-2.2627-2.586-2.2627-1.154 0-2.355.3925-3.14 1.039l-.946-1.7778c1.108-.8543 2.724-1.2698 4.387-1.2698 2.954-.0231 4.686 1.4084 4.686 4.3868zm-2.424 2.8397v-1.2006h-2.494c-1.639 0-2.101.6235-2.101 1.3854 0 .8773.739 1.4314 1.986 1.4314 1.177-.0231 2.193-.5541 2.609-1.6162z"/><path d="m134.146 32.0356c-.576.4618-1.454.6927-2.331.6927-2.263 0-3.579-1.2006-3.579-3.4863v-4.987h-1.709v-1.9394h1.709v-2.3781h2.424v2.355h2.771v1.9394h-2.771v4.9408c0 1.0159.508 1.5469 1.432 1.5469.485.0231.969-.1385 1.362-.4156z"/><path d="m146.357 26.6608v5.9336h-2.424v-5.6335c0-1.847-.923-2.7474-2.47-2.7474-1.732 0-2.886 1.0389-2.886 3.1168v5.241h-2.425v-14.3838h2.425v5.241c.808-.8542 2.031-1.3161 3.463-1.3161 2.47 0 4.317 1.4315 4.317 4.5484z"/><path d="m39.2284 24.0781-6.3261.2771 1.1083 1.7316-10.5282 6.7417-10.4358-4.3867-12.144256 5.0563.831166 2.0317 11.29009-4.7099 10.6666 4.479 11.4978-7.3419 1.1083 1.7547z"/><path d="m5.37891 30.5397 7.64209-3.1862.3695.1616v-4.5252h-8.01159zm17.50069-18.5397v19.4863l.6003.254 7.4113-4.7331v-15.0072zm-8.7504 15.8153 8.0116 3.3709v-13.6913h-8.0116z"/></g></g></svg>