<svg fill="none" height="65" viewBox="0 0 72 65" width="72" xmlns="http://www.w3.org/2000/svg" xmlns:xlink="http://www.w3.org/1999/xlink"><clipPath id="a"><path d="m.033203.66626h71.933v64h-71.933z"/></clipPath><g clip-path="url(#a)"><path d="m35.9997 39.0777c3.5409 0 6.4114-2.8705 6.4114-6.4114s-2.8705-6.4114-6.4114-6.4114c-3.541 0-6.4114 2.8705-6.4114 6.4114s2.8704 6.4114 6.4114 6.4114z" fill="#61dafb"/><g stroke="#61dafb" stroke-width="3.12752"><path d="m35.9993 45.8017c19.0001 0 34.4028-5.881 34.4028-13.1356s-15.4027-13.1356-34.4028-13.1356-34.40274 5.881-34.40274 13.1356 15.40264 13.1356 34.40274 13.1356z"/><path d="m24.623 39.2341c9.5 16.4545 22.2944 26.8531 28.5771 23.2258 6.2826-3.6273 3.6744-19.9068-5.8256-36.3614-9.5001-16.45462-22.2945-26.853188-28.5772-23.22589-6.2826 3.62729-3.6744 19.90689 5.8257 36.36149z"/><path d="m24.6235 26.0984c-9.5 16.4546-12.1083 32.7341-5.8256 36.3614s19.0771-6.7713 28.5771-23.2258c9.5001-16.4546 12.1083-32.7342 5.8257-36.36149-6.2827-3.627295-19.0771 6.77128-28.5772 23.22589z"/></g></g></svg>