<svg fill="none" height="41" viewBox="0 0 169 41" width="169" xmlns="http://www.w3.org/2000/svg" xmlns:xlink="http://www.w3.org/1999/xlink"><radialGradient id="a" cx="0" cy="0" gradientTransform="matrix(0 19.5556 -19.5556 0 20.1553 20.5021)" gradientUnits="userSpaceOnUse" r="1"><stop offset="0" stop-color="#9893ff"/><stop offset="1" stop-color="#635bff"/></radialGradient><clipPath id="b"><path d="m.511719.966064h168.178v39.1111h-168.178z"/></clipPath><g clip-path="url(#b)"><g fill="#0e0b3d"><path d="m58.931 30.5049c-4.0324 0-6.7115-2.1819-6.7943-5.6896h4.3638c0 1.1325.6905 1.8506 2.4305 1.8506 1.7401 0 2.4305-.7181 2.4305-1.8506 0-1.1876-1.3809-1.4638-3.0381-1.7676-2.5686-.4695-5.8552-1.0771-5.8552-5.4685 0-3.4249 2.5962-5.8553 6.4905-5.8553 3.7838 0 6.3523 2.2924 6.4905 5.7171h-4.1981c-.0277-1.0495-.6905-1.8781-2.2372-1.8781-1.602 0-2.2371.9115-2.2371 1.8506 0 1.1876 1.3809 1.4638 3.0657 1.7676 2.5962.4695 5.8829 1.0771 5.8829 5.4685 0 3.5905-2.7067 5.8553-6.7944 5.8553z"/><path d="m73.3158 30.5058c-3.038 0-6.601-2.2648-6.601-7.0153 0-4.3915 3.0382-7.3467 7.3743-7.3467 4.281 0 7.264 2.8447 7.264 7.3191v6.6839h-3.8115v-2.2649c-.7181 1.6848-2.2648 2.6239-4.2258 2.6239zm.7458-3.8667c1.8781 0 3.1485-1.3534 3.1485-3.3143s-1.2704-3.3143-3.1485-3.3143-3.1487 1.3534-3.1487 3.3143 1.2706 3.3143 3.1487 3.3143z"/><path d="m89.4369 30.5058c-3.0381 0-6.601-2.2648-6.601-7.0153 0-4.3915 3.0381-7.3467 7.3743-7.3467 4.2809 0 7.2639 2.8447 7.2639 7.3191v6.6839h-3.8115v-2.2649c-.7181 1.6848-2.2648 2.6239-4.2257 2.6239zm.7457-3.8667c1.8781 0 3.1486-1.3534 3.1486-3.3143s-1.2705-3.3143-3.1486-3.3143-3.1486 1.3534-3.1486 3.3143 1.2705 3.3143 3.1486 3.3143z"/><path d="m105.83 30.5049c-4.033 0-6.7117-2.1819-6.7948-5.6896h4.3638c0 1.1325.691 1.8506 2.431 1.8506s2.43-.7181 2.43-1.8506c0-1.1876-1.381-1.4638-3.037-1.7676-2.569-.4695-5.8564-1.0771-5.8564-5.4685 0-3.4249 2.5974-5.8553 6.4904-5.8553 3.784 0 6.353 2.2924 6.491 5.7171h-4.198c-.027-1.0495-.69-1.8781-2.237-1.8781-1.602 0-2.237.9115-2.237 1.8506 0 1.1876 1.38 1.4638 3.065 1.7676 2.596.4695 5.883 1.0771 5.883 5.4685 0 3.5905-2.706 5.8553-6.794 5.8553z"/></g><path d="m116.855 30.1461v-18.0628h8.672c3.398 0 5.193 1.9609 5.193 4.6676 0 1.8505-.884 3.259-2.43 4.0048v.0552c2.043.6353 3.259 2.2924 3.259 4.4743 0 2.7895-1.823 4.8609-5.303 4.8609zm3.204-10.6333h5.082c1.574 0 2.375-.9666 2.375-2.2372 0-1.2704-.635-2.2094-2.402-2.2094h-5.055zm0 7.6781h5.635c1.822 0 2.54-1.0495 2.54-2.3476 0-1.381-.911-2.4305-2.486-2.4305h-5.689z" fill="#635bff"/><path d="m139.733 30.5058c-4.308 0-7.346-3.0382-7.346-7.181 0-4.1429 3.038-7.181 7.346-7.181 4.309 0 7.347 3.0381 7.347 7.181 0 4.1428-3.038 7.181-7.347 7.181zm0-2.7619c2.597 0 4.309-1.8506 4.309-4.4191 0-2.5686-1.712-4.4191-4.309-4.4191-2.596 0-4.336 1.8505-4.336 4.4191 0 2.5685 1.74 4.4191 4.336 4.4191z" fill="#635bff"/><path d="m149.016 30.1459v-19.6095h2.983v19.6095z" fill="#635bff"/><path d="m161.347 30.5051c-4.336 0-7.374-2.9829-7.374-7.2915 0-4.6124 3.425-7.0705 6.85-7.0705 2.071 0 3.839.9114 4.806 2.5409v-8.1476h2.982v12.6772c0 4.4191-3.011 7.2915-7.264 7.2915zm-.027-2.762c2.568 0 4.309-1.8505 4.309-4.419 0-2.5686-1.741-4.4191-4.309-4.4191-2.596 0-4.337 1.8505-4.337 4.4191 0 2.5685 1.741 4.419 4.337 4.419z" fill="#635bff"/><path clip-rule="evenodd" d="m20.0673 40.0772c10.8044 0 19.5555-8.7511 19.5555-19.5556 0-10.80442-8.7511-19.555536-19.5555-19.555536-10.80447 0-19.555581 8.751116-19.555581 19.555536 0 1.8871.264 3.7156.772441 5.4462 6.69778 3.7645 13.03374-.3715 15.83024-3.3831l-8.3209 9.4454 9.064-8.5263c-2.9138 2.8845-6.8347 9.3476-2.8747 15.9085 1.6231.44 3.3343.6649 5.0943.6649zm-2.2196-16.5831.4889-.4596c-.1564.1369-.3227.2933-.4889.4596zm-.7431-.9094.44-.4986c-.1369.1662-.2835.3324-.44.4986z" fill="url(#a)" fill-rule="evenodd"/><path d="m17.7985 15.9928-1.9458 1.8969c-.3618.352-.6845.6747-.9387.9582-.1662.1858-.3324.3911-.4693.616l-.0196-.0195s-.0586-.0489-.0684-.0685c-.3422-.3226-.7334-.5769-1.1734-.7529-.0195 0-.0488-.0195-.0977-.0391l-.2934-.1075c-.3911-.1565-.4986-.6454-.1955-.9387.8604-.8409 1.8871-1.8382 2.376-2.0436.44-.176.9093-.2346 1.3689-.176.4204.0587.8115.2738 1.4569.6747z" fill="#fff"/><path d="m21.125 26.0053c.1564.1565.264.264.352.3813.1271.1565.2347.3227.3324.4889.1076.1956.1956.4009.3618.8214.1369.3422.5965.4302.8605.1662l.0684-.0587c.8605-.8409 1.8871-1.8382 2.0925-2.3271.1857-.4302.2444-.8898.176-1.3395-.0587-.4107-.2738-.792-.6845-1.4276l-1.9458 1.9067c-.3617.3617-.704.6844-1.0071.9386-.1858.1565-.3813.3031-.5964.44z" fill="#fff"/><path clip-rule="evenodd" d="m21.9556 23.8252 4.4489-4.3903c.6454-.6257.968-.9484 1.1343-1.3395.1662-.4009.1662-.8409.1662-1.7307v-.4204c0-1.3689 0-2.0534-.4302-2.4738-.4303-.4205-1.1343-.4205-2.5325-.4205h-.4302c-.9093 0-1.3689 0-1.7698.1663-.4107.1662-.7333.4791-1.3689 1.1146l-4.4684 4.3707c-.7529.7333-1.2222 1.1929-1.3982 1.6329-.0587.1369-.088.2738-.088.4204 0 .5965.4986 1.0854 1.4862 2.0534l.1369.1271 1.5546-1.5547c.2249-.2249.5867-.2249.8116 0 .2249.2151.2249.5769 0 .792l-1.5645 1.5547.1076.0978c.9876.968 1.4862 1.4471 2.1022 1.4471.1369 0 .264-.0196.4009-.0685.4596-.1662.9289-.6258 1.7013-1.3786zm2.0827-5.1529c-.5769.5671-1.5155.5671-2.1022 0-.5769-.5671-.5769-1.4863 0-2.0534s1.5155-.5671 2.1022 0c.5769.5671.5769 1.4863 0 2.0534z" fill="#fff" fill-rule="evenodd"/></g></svg>