<svg fill="none" height="48" viewBox="0 0 104 48" width="104" xmlns="http://www.w3.org/2000/svg" xmlns:xlink="http://www.w3.org/1999/xlink"><clipPath id="a"><path d="m.5 0h103v48h-103z"/></clipPath><g clip-path="url(#a)"><path d="m36.9685 32.9998c-3.7082 0-7.1504-1.1107-9.4481-3.1704-1.7359-1.5562-2.57-3.6699-2.57-5.8454 0-2.1491.8701-4.2774 2.5698-5.8253 2.1338-1.9423 5.9012-3.1587 9.4483-3.1587 3.9252 0 7.0669.9875 9.4686 3.164 1.7087 1.5488 2.5348 3.6676 2.5348 5.8202 0 2.0864-.8766 4.3083-2.5348 5.8452-2.2365 2.0731-5.751 3.1704-9.4686 3.1704v-2.3741c1.9681 0 3.7939-.6787 5.0689-1.9458 1.2662-1.2584 1.8561-2.8053 1.8561-4.6959 0-1.8111-.6363-3.5044-1.8561-4.7054-1.258-1.2375-3.1273-1.9339-5.0689-1.9339-1.9477 0-3.8182.6892-5.0772 1.9339-1.2132 1.2006-1.8512 2.8988-1.8512 4.7054 0 1.801.6454 3.4982 1.8512 4.6961 1.26 1.2519 3.124 1.9458 5.0772 1.9458v2.3741zm-27.10309-17.9912c-1.98359 0-4.23707.3706-6.15179 1.2246-1.76714.7875-3.21362 2.0612-3.21362 4.1727-.000822 1.9016 1.20927 3.0154 1.17639 2.9846.5147.4732 1.34329 1.279 3.50961 1.7522.96815.2114 3.03807.5362 5.0994.7514 2.046.2155 4.0596.4204 4.8798.6278.6516.1656 1.7462.3913 1.7462 1.6177 0 1.2215-1.1532 1.5943-1.3536 1.6752-.2002.0791-1.5836.713-4.0704.713-1.83597 0-4.0432-.5514-4.84774-.8388-.92745-.3297-1.90032-.7658-2.80784-1.8729-.2257-.2745-.58172-1.0294-.58172-1.7769h-2.250602v6.2985h2.501582v-.8509c0-.0969.12128-.4954.54122-.3059.52252.2371 2.05635.847 3.66007 1.1814 1.31493.2747 2.16284.4716 3.79763.4716 2.6672 0 4.1001-.434 5.0907-.7165.9332-.2669 2.0864-.746 3.0231-1.4921.5073-.4034 1.6197-1.4375 1.6197-3.3145 0-1.8017-.9681-2.9199-1.3087-3.2601-.4639-.4636-1.0307-.8228-1.6212-1.0998-.5145-.2418-1.3265-.5323-1.9908-.6947-1.2894-.3162-4.205-.7062-5.5993-.852-1.46208-.1525-3.9984-.3623-5.01137-.6754-.30708-.0951-.93319-.3929-.93319-1.1189 0-.5163.28633-.954.8522-1.3077.89827-.5621 2.71269-.9115 4.60396-.9115 2.236-.0082 4.1296.5023 5.3341 1.0402.4097.1827.8891.4451 1.2697.7555.4297.3498 1.0327 1.0768 1.2508 2.0907h2.0206v-5.4826h-2.2561v.6372c0 .2057-.2128.473-.615.2521-1.0097-.529-3.8644-1.6705-7.3642-1.6752zm49.44239.9963 11.0058 9.92-.113-6.679c-.0108-.8757-.1727-1.2414-1.1208-1.2414h-2.0694v-1.9979h9.4102v1.9979h-2.0185c-.9677 0-1.0283.309-1.0401 1.2414l.1706 12.7619h-3.2226l-12.6764-11.2995.0025 8.0193c.0108.8717.0519 1.2823.9512 1.2823h2.2601v1.9971h-9.2417v-1.9969h2.1604c.8068 0 .7749-.7685.7749-1.3279v-9.3603c0-.6042-.0848-1.3159-1.352-1.3159h-1.7529v-2.0011zm27.8658 14.0013c.0884 0 .481-.0113.5571-.0345.2174-.0678.3648-.2226.4327-.3839.0288-.0678.0431-.3675.0431-.4326l.0021-3.1575c0-.0759-.0057-.1088-.1346-.2779-.1419-.1848-5.7648-6.549-6.0222-6.8292-.3197-.348-.8808-.8859-1.7334-.8859h-1.9558v-1.9987h11.0356v1.9963h-1.3304c-.3073 0-.5118.2915-.2492.6154 0 0 3.7128 4.4359 3.7482 4.4823.0345.0472.0643.0585.1115.0154.0463-.0442 3.8059-4.457 3.8357-4.4919.1788-.2139.0575-.619-.3279-.619h-1.3649v-1.9985h9.0448v1.9985h-2.021c-.733 0-1.0314.1355-1.5828.7582-.2523.2849-5.9353 6.7635-6.0895 6.939-.0812.0918-.074.2197-.074.2956v3.1571c0 .064.0144.3642.0432.4315.0683.1622.2163.317.4337.3839.0761.0234.463.0349.5514.0349h2.0668v1.9984h-10.9786v-1.9986l1.959.0017z" fill="#343c54"/></g></svg>