<svg fill="none" height="65" viewBox="0 0 54 65" width="54" xmlns="http://www.w3.org/2000/svg" xmlns:xlink="http://www.w3.org/1999/xlink"><clipPath id="a"><path d="m-.000244.66626h53.3333v64h-53.3333z"/></clipPath><g clip-path="url(#a)"><path d="m49.908 9.12732c-5.9259-8.515252-17.7234-11.01017-26.2045-5.64068l-14.95077 9.54576c-4.07747 2.5492-6.90452 6.7254-7.72001 11.4441-.706766 3.9593-.108737 8.0271 1.79408 11.5525-1.30479 1.9526-2.174648 4.1221-2.555212 6.4-.869861 4.8271.271831 9.817 3.098882 13.7763 5.98029 8.5152 17.72343 11.0102 26.20453 5.6407l14.9508-9.4916c4.0774-2.5491 6.9045-6.7254 7.72-11.444.7067-3.9594.1087-8.0271-1.7941-11.5526 1.3048-1.9525 2.1746-4.122 2.5552-6.4.9242-4.8813-.2175-9.8712-3.0989-13.83048z" fill="#ff3e00"/><path d="m22.2356 57.0188c-4.8386 1.2474-9.8947-.6509-12.72172-4.7187-1.73972-2.3864-2.39212-5.3695-1.90282-8.2983.10873-.4881.21747-.922.3262-1.4101l.27183-.8678.76113.5423c1.79408 1.3017 3.75128 2.278 5.87158 2.9288l.5436.1628-.0543.5423c-.0544.7594.1631 1.5729.598 2.2238.8699 1.2474 2.3921 1.844 3.86 1.4644.3262-.1085.6524-.217.9242-.3797l14.8964-9.4915c.7611-.4882 1.2504-1.1932 1.4135-2.061s-.0543-1.7899-.5436-2.495c-.8699-1.2474-2.3922-1.7898-3.86-1.4101-.3262.1085-.6524.2169-.9243.3796l-5.7084 3.6339c-.9243.5966-1.9572 1.0305-3.0445 1.3017-4.8386 1.2475-9.8947-.6508-12.7218-4.7186-1.68531-2.3865-2.39207-5.3695-1.84841-8.2983.48929-2.8204 2.22901-5.3695 4.67551-6.8882l14.9507-9.49148c.9242-.59661 1.9572-1.03051 3.0445-1.35593 4.8386-1.24746 9.8947.65084 12.7217 4.71861 1.7398 2.3865 2.3922 5.3695 1.9029 8.2983-.1088.4882-.2175.9221-.3806 1.4102l-.2718.8678-.7612-.5424c-1.794-1.3017-3.7512-2.2779-5.8715-2.9288l-.5437-.1627.0544-.5424c.0543-.7593-.1631-1.5728-.598-2.2237-.8699-1.2475-2.3922-1.7898-3.8601-1.4102-.3262.1085-.6523.217-.9242.3797l-14.8963 9.4915c-.7612.4882-1.2505 1.1932-1.4136 2.061s.0544 1.7899.5437 2.495c.8699 1.2474 2.3921 1.7898 3.86 1.4101.3262-.1085.6524-.2169.9242-.3796l5.7085-3.6339c.9242-.5966 1.9572-1.0305 3.0445-1.356 4.8386-1.2474 9.8947.6509 12.7217 4.7187 1.7397 2.3864 2.3921 5.3695 1.9028 8.2983-.4893 2.8203-2.229 5.3695-4.6755 6.8881l-14.9507 9.4915c-.9242.5966-1.9572 1.0305-3.0445 1.356z" fill="#fff"/></g></svg>