<svg fill="none" height="67" viewBox="0 0 67 67" width="67" xmlns="http://www.w3.org/2000/svg"><path d="m1.88867 33.6663h62.88893v22.2222c0 5.2222-4 9.2222-9.2223 9.2222h-44.4444c-5.22223 0-9.22223-4-9.22223-9.2222z" fill="#000"/><g fill="#ffb13b"><path d="m14.6331 30.1438c-.6967-.6967-1.5843-1.1712-2.5506-1.3634-.9664-.1922-1.968-.0935-2.87826.2835-.91027.377-1.68828 1.0155-2.23566 1.8348-.54739.8192-.83955 1.7823-.83955 2.7676 0 .9852.29216 1.9484.83955 2.7676.54738.8192 1.32539 1.4577 2.23566 1.8347.91026.3771 1.91186.4757 2.87826.2835.9663-.1922 1.8539-.6666 2.5506-1.3633h37.3994c.6967.6967 1.5844 1.1711 2.5507 1.3633s1.9679.0936 2.8782-.2835c.9103-.377 1.6883-1.0155 2.2357-1.8347s.8395-1.7824.8395-2.7676c0-.9853-.2921-1.9484-.8395-2.7676-.5474-.8193-1.3254-1.4578-2.2357-1.8348s-1.9119-.4757-2.8782-.2835-1.854.6667-2.5507 1.3634z" stroke="#000" stroke-width="8.44636"/><path d="m22.601 17.9526c0-.9853-.2922-1.9484-.8396-2.7676s-1.3254-1.4577-2.2357-1.8348c-.9102-.377-1.9118-.4757-2.8782-.2834-.9663.1922-1.8539.6666-2.5506 1.3633s-1.1712 1.5843-1.3634 2.5507c-.1922.9663-.0935 1.9679.2835 2.8782.377.9102 1.0155 1.6883 1.8348 2.2356.8192.5474 1.7823.8396 2.7676.8396l26.4454 26.4454c0 .9852.2921 1.9484.8395 2.7676s1.3254 1.4577 2.2357 1.8347c.9102.3771 1.9119.4757 2.8782.2835s1.854-.6666 2.5507-1.3633c.6966-.6967 1.1711-1.5843 1.3633-2.5507.1922-.9663.0936-1.9679-.2835-2.8782-.377-.9103-1.0155-1.6883-1.8347-2.2357-.8193-.5473-1.7824-.8395-2.7677-.8395z" stroke="#000" stroke-width="8.44636"/><path d="m36.8547 14.9664c.6966-.6967 1.1711-1.5844 1.3633-2.5507s.0936-1.9679-.2835-2.87821c-.377-.91026-1.0155-1.68828-1.8347-2.23566-.8193-.54739-1.7824-.83955-2.7677-.83955-.9852 0-1.9484.29216-2.7676.83955-.8192.54738-1.4577 1.3254-1.8347 2.23566-.3771.91031-.4757 1.91191-.2835 2.87821s.6666 1.854 1.3633 2.5507v37.3994c-.6967.6967-1.1711 1.5843-1.3633 2.5506-.1922.9664-.0936 1.968.2835 2.8783.377.9102 1.0155 1.6882 1.8347 2.2356s1.7824.8396 2.7676.8396c.9853 0 1.9484-.2922 2.7677-.8396.8192-.5474 1.4577-1.3254 1.8347-2.2356.3771-.9103.4757-1.9119.2835-2.8783-.1922-.9663-.6667-1.8539-1.3633-2.5506z" stroke="#000" stroke-width="8.44636"/><path d="m49.0446 22.9342c.9853 0 1.9484-.2922 2.7676-.8395.8192-.5474 1.4577-1.3254 1.8348-2.2357.377-.9103.4757-1.9119.2834-2.8782-.1922-.9664-.6666-1.854-1.3633-2.5507s-1.5843-1.1711-2.5507-1.3633c-.9663-.1922-1.9679-.0936-2.8782.2835-.9102.377-1.6883 1.0155-2.2356 1.8347-.5474.8192-.8396 1.7824-.8396 2.7676l-26.4454 26.4454c-.9852 0-1.9484.2922-2.7676.8396s-1.4577 1.3254-1.8348 2.2356c-.377.9103-.4757 1.9119-.2834 2.8783.1922.9663.6666 1.8539 1.3633 2.5506s1.5843 1.1711 2.5507 1.3634c.9663.1922 1.9679.0935 2.8782-.2835.9103-.3771 1.6883-1.0156 2.2357-1.8348.5473-.8192.8395-1.7823.8395-2.7676z" stroke="#000" stroke-width="8.44636"/><path d="m14.6334 30.1439c-.6967-.6967-1.5844-1.1711-2.5507-1.3634-.9663-.1922-1.968-.0935-2.87822.2835-.91026.3771-1.68828 1.0156-2.23566 1.8348s-.83955 1.7823-.83955 2.7676.29217 1.9484.83955 2.7676 1.3254 1.4577 2.23566 1.8348c.91022.377 1.91192.4757 2.87822.2835.9663-.1923 1.854-.6667 2.5507-1.3634h37.3994c.6967.6967 1.5843 1.1711 2.5506 1.3634.9664.1922 1.968.0935 2.8783-.2835.9102-.3771 1.6882-1.0156 2.2356-1.8348s.8396-1.7823.8396-2.7676-.2922-1.9484-.8396-2.7676-1.3254-1.4577-2.2356-1.8348c-.9103-.377-1.9119-.4757-2.8783-.2835-.9663.1923-1.8539.6667-2.5506 1.3634z"/><path d="m22.6012 17.9527c0-.9852-.2922-1.9484-.8395-2.7676-.5474-.8192-1.3254-1.4577-2.2357-1.8347-.9103-.3771-1.9119-.4757-2.8782-.2835-.9664.1922-1.854.6666-2.5507 1.3633s-1.1711 1.5843-1.3633 2.5507c-.1922.9663-.0936 1.9679.2834 2.8782.3771.9103 1.0156 1.6883 1.8348 2.2357.8192.5473 1.7824.8395 2.7676.8395l26.4454 26.4454c0 .9853.2922 1.9484.8396 2.7676.5473.8192 1.3254 1.4577 2.2356 1.8348.9103.377 1.9119.4757 2.8782.2834.9664-.1922 1.854-.6666 2.5507-1.3633s1.1711-1.5843 1.3633-2.5507c.1923-.9663.0936-1.9679-.2834-2.8782-.3771-.9102-1.0156-1.6883-1.8348-2.2356-.8192-.5474-1.7823-.8396-2.7676-.8396z"/><path d="m36.8549 14.9665c.6967-.6967 1.1711-1.5843 1.3633-2.5507.1923-.9663.0936-1.9679-.2834-2.87819-.3771-.91026-1.0156-1.68828-1.8348-2.23566s-1.7824-.83955-2.7676-.83955c-.9853 0-1.9484.29217-2.7676.83955s-1.4577 1.3254-1.8348 2.23566c-.377.91029-.4757 1.91189-.2835 2.87819.1922.9664.6667 1.854 1.3634 2.5507v37.3994c-.6967.6967-1.1712 1.5843-1.3634 2.5507-.1922.9663-.0935 1.9679.2835 2.8782.3771.9102 1.0156 1.6883 1.8348 2.2356.8192.5474 1.7823.8396 2.7676.8396.9852 0 1.9484-.2922 2.7676-.8396.8192-.5473 1.4577-1.3254 1.8348-2.2356.377-.9103.4757-1.9119.2834-2.8782-.1922-.9664-.6666-1.854-1.3633-2.5507z"/><path d="m49.0448 22.9343c.9853 0 1.9484-.2921 2.7676-.8395.8193-.5474 1.4578-1.3254 1.8348-2.2357.377-.9102.4757-1.9119.2835-2.8782s-.6667-1.854-1.3634-2.5507c-.6967-.6966-1.5843-1.1711-2.5506-1.3633s-1.968-.0936-2.8782.2835c-.9103.377-1.6883 1.0155-2.2357 1.8347-.5474.8193-.8396 1.7824-.8396 2.7677l-26.4453 26.4453c-.9853 0-1.9484.2922-2.7677.8396-.8192.5474-1.4577 1.3254-1.8347 2.2357-.3771.9102-.4757 1.9118-.2835 2.8782.1922.9663.6667 1.8539 1.3634 2.5506.6966.6967 1.5843 1.1712 2.5506 1.3634s1.968.0935 2.8782-.2835c.9103-.377 1.6883-1.0155 2.2357-1.8348.5474-.8192.8395-1.7823.8395-2.7676z"/></g><path d="m1.88867 33.6663h62.88893v22.2222c0 5.2222-4 9.2222-9.2223 9.2222h-44.4444c-5.22223 0-9.22223-4-9.22223-9.2222z" fill="#000"/><path d="m54.7539 46.2589c-.2993-.493-.7131-.8716-1.2413-1.1357-.5106-.2641-1.118-.3961-1.8223-.3961-1.3029 0-2.3329.4225-3.09 1.2677-.7395.8451-1.1093 1.9807-1.1093 3.4069 0 1.6022.3962 2.8259 1.1885 3.6711.8099.8275 1.9808 1.2412 3.5126 1.2412 1.8135 0 3.1076-.8187 3.8823-2.4561h-5.2028v-3.7239h9.6662v5.018c-.405.986-1.0036 1.9103-1.7959 2.7731-.7747.8627-1.7607 1.5758-2.958 2.1392-1.1973.5458-2.5618.8187-4.0936.8187-1.8664 0-3.5214-.3961-4.9652-1.1884-1.4261-.8099-2.5354-1.928-3.3277-3.3542-.7747-1.4437-1.162-3.09-1.162-4.9387 0-1.8311.3873-3.4598 1.162-4.8859.7923-1.4438 1.9016-2.5618 3.3277-3.3541 1.4262-.81 3.0724-1.2149 4.9388-1.2149 2.3417 0 4.2785.5634 5.8103 1.6902 1.5318 1.1269 2.4825 2.6675 2.8523 4.6219z" fill="#fff"/><path d="m41.2555 40.1313-6.4177 18.6194h-6.629l-6.4442-18.6194h5.5462l4.2257 13.4429 4.1993-13.4429z" fill="#fff"/><path d="m13.7856 58.9358c-2.1657 0-3.94396-.5106-5.3349-1.5318-1.39095-1.0388-2.13925-2.5178-2.24489-4.437h5.51979c.0528.6515.2465 1.1269.581 1.4262s.7659.449 1.2941.449c.4754 0 .8628-.1145 1.1621-.3434.3169-.2465.4754-.581.4754-1.0036 0-.5458-.2553-.9683-.7659-1.2677-.5106-.2993-1.3382-.6338-2.4826-1.0036-1.2149-.4049-2.20088-.7923-2.95798-1.162-.73949-.3874-1.39094-.942-1.95437-1.6639-.54581-.7395-.81872-1.699-.81872-2.8787 0-1.1973.29932-2.2185.89796-3.0636.59863-.8627 1.42616-1.5142 2.48257-1.9544 1.05644-.4401 2.25374-.6602 3.59184-.6602 2.1656 0 3.8911.5106 5.1764 1.5318 1.3029 1.0036 1.9984 2.4209 2.0864 4.252h-5.6254c-.0176-.5634-.1937-.9859-.5282-1.2677-.3169-.2817-.7307-.4225-1.2413-.4225-.3873 0-.7042.1144-.9507.3433s-.3698.5546-.3698.9772c0 .3521.1321.6603.3962.9244.2817.2465.625.4665 1.03.6602.4049.1761 1.0036.405 1.7959.6867 1.1796.405 2.148.8099 2.9051 1.2149.7747.3873 1.435.9419 1.9808 1.6638.5634.7043.8451 1.6023.8451 2.6939 0 1.1092-.2817 2.104-.8451 2.9844-.5458.8803-1.3469 1.5758-2.4033 2.0864-1.0389.5106-2.2713.7659-3.6975.7659z" fill="#fff"/></svg>