<svg fill="none" height="37" viewBox="0 0 194 37" width="194" xmlns="http://www.w3.org/2000/svg" xmlns:xlink="http://www.w3.org/1999/xlink"><filter id="a" color-interpolation-filters="sRGB" filterUnits="userSpaceOnUse" height="22.3345" width="5.66082" x="8.48707" y="7.84241"><feFlood flood-opacity="0" result="BackgroundImageFix"/><feColorMatrix in="SourceAlpha" result="hardAlpha" type="matrix" values="0 0 0 0 0 0 0 0 0 0 0 0 0 0 0 0 0 0 127 0"/><feOffset dy=".488889"/><feGaussianBlur stdDeviation=".488889"/><feComposite in2="hardAlpha" operator="out"/><feColorMatrix type="matrix" values="0 0 0 0 0 0 0 0 0 0 0 0 0 0 0 0 0 0 0.12 0"/><feBlend in2="BackgroundImageFix" mode="normal" result="effect1_dropShadow_1956_72137"/><feBlend in="SourceGraphic" in2="effect1_dropShadow_1956_72137" mode="normal" result="shape"/></filter><filter id="b" color-interpolation-filters="sRGB" filterUnits="userSpaceOnUse" height="14.9241" width="5.66082" x="15.4324" y="15.2526"><feFlood flood-opacity="0" result="BackgroundImageFix"/><feColorMatrix in="SourceAlpha" result="hardAlpha" type="matrix" values="0 0 0 0 0 0 0 0 0 0 0 0 0 0 0 0 0 0 127 0"/><feOffset dy=".488889"/><feGaussianBlur stdDeviation=".488889"/><feComposite in2="hardAlpha" operator="out"/><feColorMatrix type="matrix" values="0 0 0 0 0 0 0 0 0 0 0 0 0 0 0 0 0 0 0.12 0"/><feBlend in2="BackgroundImageFix" mode="normal" result="effect1_dropShadow_1956_72137"/><feBlend in="SourceGraphic" in2="effect1_dropShadow_1956_72137" mode="normal" result="shape"/></filter><filter id="c" color-interpolation-filters="sRGB" filterUnits="userSpaceOnUse" height="19.5557" width="5.66088" x="22.3777" y="10.6217"><feFlood flood-opacity="0" result="BackgroundImageFix"/><feColorMatrix in="SourceAlpha" result="hardAlpha" type="matrix" values="0 0 0 0 0 0 0 0 0 0 0 0 0 0 0 0 0 0 127 0"/><feOffset dy=".488889"/><feGaussianBlur stdDeviation=".488889"/><feComposite in2="hardAlpha" operator="out"/><feColorMatrix type="matrix" values="0 0 0 0 0 0 0 0 0 0 0 0 0 0 0 0 0 0 0.12 0"/><feBlend in2="BackgroundImageFix" mode="normal" result="effect1_dropShadow_1956_72137"/><feBlend in="SourceGraphic" in2="effect1_dropShadow_1956_72137" mode="normal" result="shape"/></filter><clipPath id="d"><path d="m.199219.921143h193.6v35.2h-193.6z"/></clipPath><g clip-path="url(#d)"><g fill="#1c2434"><path d="m48.6016 11.0138h6.905v19.7794h4.1302v-19.7794h6.905v-3.8075h-17.9402z"/><path d="m71.1485 31.2136c2.4844 0 4.6464-1.1294 5.324-2.775l.2903 2.3554h3.4525v-9.68c0-4.4204-2.6458-6.7436-6.9372-6.7436-4.3238 0-7.1632 2.2586-7.1632 5.7112h3.3556c0-1.6779 1.2908-2.6459 3.614-2.6459 2.0004 0 3.2912.8712 3.2912 3.0331v.3548l-4.7756.355c-3.7752.2904-5.9048 2.1296-5.9048 5.0659 0 3.0007 2.0652 4.9691 5.4532 4.9691zm1.2906-2.9686c-1.7746 0-2.7426-.7098-2.7426-2.1618 0-1.2908.9356-2.0974 3.388-2.3232l3.3234-.2582v.839c0 2.4522-1.5488 3.9042-3.9688 3.9042z"/><path d="m86.0528 11.6604c1.2907 0 2.3556-1.0648 2.3556-2.3877 0-1.32294-1.0649-2.35546-2.3556-2.35546-1.3552 0-2.42 1.03252-2.42 2.35546 0 1.3229 1.0648 2.3877 2.42 2.3877zm-1.9682 19.1341h3.9365v-15.9397h-3.9365z"/><path d="m96.0566 30.7947v-24.00637h-3.9043v24.00637z"/><path d="m102.799 30.7932 1.904-5.4531h8.809l1.904 5.4531h4.356l-8.518-23.5869h-4.228l-8.5182 23.5869zm5.808-16.5527c.226-.6454.42-1.3552.516-1.807.065.484.291 1.1938.484 1.807l2.711 7.6148h-6.389z"/><path d="m127.974 31.2142c2.42 0 4.486-1.0648 5.454-2.904l.257 2.4845h3.615v-24.00637h-3.905v10.09947c-1-1.581-2.968-2.5168-5.195-2.5168-4.808 0-7.712 3.5494-7.712 8.5184 0 4.9368 2.872 8.3248 7.486 8.3248zm.871-3.6139c-2.742 0-4.42-2.0005-4.42-4.8399 0-2.8396 1.678-4.8724 4.42-4.8724 2.743 0 4.518 2.0006 4.518 4.8724 0 2.8716-1.775 4.8399-4.518 4.8399z"/><path d="m145.335 30.794v-9.0346c0-2.5813 1.516-3.8074 3.388-3.8074 1.871 0 3.065 1.1938 3.065 3.4202v9.4218h3.937v-9.0346c0-2.6136 1.452-3.8397 3.356-3.8397 1.871 0 3.098 1.1939 3.098 3.4848v9.3895h3.903v-10.422c0-3.6784-2.129-6.0016-6.001-6.0016-2.42 0-4.291 1.1938-5.099 3.033-.838-1.8392-2.516-3.033-4.936-3.033-2.291 0-3.904 1.0325-4.711 2.3554l-.323-1.8714h-3.614v15.9396z"/><path d="m171.916 11.6604c1.291 0 2.356-1.0648 2.356-2.3877 0-1.32294-1.065-2.35546-2.356-2.35546-1.355 0-2.42 1.03252-2.42 2.35546 0 1.3229 1.065 2.3877 2.42 2.3877zm-1.968 19.1341h3.937v-15.9397h-3.937z"/><path d="m181.89 30.7943v-8.5829c0-2.5814 1.484-4.2592 3.904-4.2592 2.033 0 3.356 1.2906 3.356 3.9688v8.8733h3.936v-9.8091c0-4.13-2.065-6.6146-6.066-6.6146-2.162 0-4.098.9358-5.098 2.549l-.322-2.065h-3.647v15.9397z"/></g><path d="m.199219 10.1843c0-5.1159 4.147251-9.263157 9.263151-9.263157h16.67363c5.116 0 9.2632 4.147257 9.2632 9.263157v16.6736c0 5.116-4.1472 9.2632-9.2632 9.2632h-16.67363c-5.1159 0-9.263151-4.1472-9.263151-9.2632z" fill="#3c50e0"/><g filter="url(#a)"><path d="m9.46484 10.1839c0-1.02315.82946-1.8526 1.85266-1.8526s1.8526.82945 1.8526 1.8526v16.6738c0 1.0231-.8294 1.8526-1.8526 1.8526s-1.85266-.8295-1.85266-1.8526z" fill="#fff"/></g><g filter="url(#b)" opacity=".9"><path d="m16.4102 17.5941c0-1.0232.8295-1.8526 1.8526-1.8526 1.0232 0 1.8526.8294 1.8526 1.8526v9.2631c0 1.0232-.8294 1.8527-1.8526 1.8527-1.0231 0-1.8526-.8295-1.8526-1.8527z" fill="#fff"/></g><g filter="url(#c)" opacity=".7"><path d="m23.3555 12.9632c0-1.0232.8295-1.8526 1.8527-1.8526 1.0231 0 1.8526.8294 1.8526 1.8526v13.8948c0 1.0231-.8295 1.8526-1.8526 1.8526-1.0232 0-1.8527-.8295-1.8527-1.8526z" fill="#fff"/></g></g></svg>