<svg fill="none" height="42" viewBox="0 0 164 42" width="164" xmlns="http://www.w3.org/2000/svg" xmlns:xlink="http://www.w3.org/1999/xlink"><clipPath id="a"><path d="m.398438.655518h163.2v40.8h-163.2z"/></clipPath><mask id="b" height="42" maskUnits="userSpaceOnUse" width="42" x="0" y="0"><path d="m41.354.655518h-40.955562v40.799982h40.955562z" fill="#fff"/></mask><g clip-path="url(#a)"><g fill="#3758f9" mask="url(#b)"><path d="m41.2865 19.3747c-.0201-.2034-.1146-.3926-.2657-.531-.1511-.1385-.3481-.2166-.5533-.2197h-20.4123c-.5543.0135-1.0954.1712-1.5696.4575s-.8649.6912-1.1335 1.1745c-.2486.4322-.3793.9217-.3793 1.4199 0 .4981.1307.9875.3793 1.4198.071.1359.1764.251.3056.3341.1293.083.278.1309.4316.1392h22.4273c.2053-.0031.4023-.0813.5534-.2197.151-.1385.2457-.3275.2658-.531 0-.6365 0-1.1751 0-1.632 0-.457-.0001-1.1914-.0493-1.8116z" opacity=".72"/><path d="m41.2719 19.3747c-.0162-.2021-.1074-.3909-.2557-.5297-.1484-.1388-.3435-.2176-.547-.221h-3.2765c-.1148.0013-.2283.0266-.3327.0745-.1045.0478-.1976.117-.2734.203-.0764.0827-.1336.1811-.1676.2882-.0339.1072-.0438.2205-.0289.3319v1.632c-.0042 2.6042-.6667 5.1654-1.9265 7.4472-1.2597 2.2818-3.0763 4.2108-5.2818 5.6088-.2294.1469-.4421.3264-.688.457-1.202.682-2.4918 1.1981-3.8335 1.5341l2.1462 3.8025c.0728.1258.1781.2298.3047.3015.1267.0717.2702.1086.416.1065.0867.0156.1755.0156.2621 0l.5242-.2121.4751-.1959c.7247-.2999 1.4305-.6432 2.1135-1.0281 3.194-1.7925 5.8479-4.4043 7.6859-7.5641s2.7931-6.7524 2.7659-10.4043c0-.6038-.0328-1.0771-.082-1.632z"/><path d="m29.6759 34.8645c-.11-.1862-.2851-.3255-.4915-.3917h-.2294c-.1422.0011-.2822.0347-.4095.0979-2.336 1.3242-4.9792 2.0163-7.6668 2.0074-4.125-.0086-8.0785-1.6449-10.99521-4.5505-2.91677-2.9057-4.55925-6.8442-4.56791-10.9535.00866-4.1093 1.65114-8.0477 4.56791-10.9534 2.91671-2.90574 6.87021-4.54196 10.99521-4.55059 2.6864.00086 5.3271.69225 7.6668 2.00736.1223.07733.2646.11707.4095.11423h.1802c.1123-.02469.2183-.07223.3113-.13962.093-.0674.1713-.15321.2294-.25205l1.6382-2.83968c.1084-.18886.1382-.41246.0831-.62291-.0552-.21047-.1909-.39107-.378-.50317-3.0836-1.73593-6.5658-2.646768-10.1077-2.643833-5.4284.008632-10.632 2.160683-14.47044 5.984553-3.83844 3.82391-5.99868 9.00771-6.007344 14.41541.008664 5.4078 2.168904 10.5916 6.007344 14.4155 3.83844 3.8238 9.04204 5.9759 14.47044 5.9845 3.5419.003 7.0241-.9079 10.1077-2.6438.0937-.0524.1759-.1231.2418-.2076.0658-.0847.1138-.1817.1414-.2851.0274-.1035.0339-.2114.0187-.3174-.0152-.1061-.0516-.2079-.107-.2997z"/><path d="m23.2141 23.5022h-5.1766c-.1468-.0105-.2891-.056-.4146-.1327-.1254-.0767-.2305-.1823-.3064-.308l9.5183 16.7933c.0728.1257.1779.2298.3046.3015.1268.0717.2703.1084.416.1065.0922.0155.1864.0155.2787 0 1.0824-.3883 2.1293-.8688 3.129-1.4363.0936-.0523.1758-.123.2415-.2075.0658-.0847.1139-.1817.1414-.2851.0276-.1036.034-.2115.0188-.3174-.0151-.106-.0515-.2079-.107-.2997z" opacity=".56"/></g><g fill="#000"><path d="m64.4131 14.5855v17.29h-3.0521v-17.29h-4.6501v-2.8577h12.3391v2.8577z"/><path d="m79.4919 19.1641h2.9602v12.7098h-2.9602v-1.331c-1.2139 1.1309-2.5194 1.6964-3.9166 1.6964-1.764 0-3.2223-.6351-4.375-1.9052-1.1439-1.2962-1.7159-2.9143-1.7159-4.8543 0-1.9051.572-3.4928 1.7159-4.7629 1.144-1.2701 2.5761-1.9051 4.2965-1.9051 1.4845 0 2.8162.6089 3.9951 1.8269zm-6.9947 6.3157c0 1.2179.3274 2.2096.9823 2.9753.6724.7741 1.5195 1.1613 2.5411 1.1613 1.0916 0 1.9736-.3741 2.646-1.1223.6724-.7742 1.0087-1.7572 1.0087-2.949 0-1.1919-.3363-2.1749-1.0087-2.9491-.6724-.7569-1.5456-1.1353-2.6197-1.1353-1.013 0-1.86.3828-2.5412 1.1483-.6724.7743-1.0085 1.7312-1.0085 2.8708z"/><path d="m89.1192 19.1645v12.7098h-2.9472v-12.7098zm-3.3926-5.2849c0-.5132.1877-.9569.5632-1.3309.3756-.3742.8253-.5612 1.3493-.5612.5326 0 .9867.187 1.3622.5612.3755.3653.5632.8133.5632 1.344 0 .5306-.1877.983-.5632 1.3571-.3668.374-.8165.5611-1.3492.5611-.5326 0-.9867-.1871-1.3623-.5611-.3755-.3741-.5632-.8308-.5632-1.3702z"/><path d="m95.7987 9.83521v22.03989h-2.9471v-22.03989z"/><path d="m110.495 21.383h8.357v.6655c0 1.5136-.179 2.8534-.537 4.0191-.349 1.0787-.939 2.0878-1.768 3.0273-1.878 2.1053-4.266 3.158-7.166 3.158-2.829 0-5.252-1.0179-7.269-3.0535-2.017-2.0444-3.0261-4.4976-3.0261-7.3597 0-2.9229 1.0261-5.4024 3.0781-7.438 2.052-2.0444 4.55-3.0665 7.493-3.0665 1.58 0 3.056.3219 4.427.9656 1.31.6438 2.598 1.6877 3.864 3.1318l-2.174 2.0748c-1.66-2.2009-3.681-3.3014-6.065-3.3014-2.139 0-3.934.7351-5.384 2.2053-1.449 1.4441-2.174 3.2535-2.174 5.4284 0 2.2444.807 4.093 2.423 5.5458 1.511 1.3485 3.149 2.0227 4.912 2.0227 1.502 0 2.851-.5046 4.048-1.5137 1.196-1.0179 1.864-2.2357 2.004-3.6537h-5.043z"/><path d="m122.141 19.1641h2.947v1.1352c.541-.5654 1.021-.9525 1.441-1.1613.428-.2175.934-.3262 1.519-.3262.778 0 1.59.2522 2.437.7568l-1.349 2.6881c-.559-.4001-1.105-.6003-1.637-.6003-1.608 0-2.411 1.2093-2.411 3.6277v6.5898h-2.947z"/><path d="m135.542 19.1645v12.7098h-2.948v-12.7098zm-3.394-5.2849c0-.5132.189-.9569.564-1.3309.376-.3742.826-.5612 1.349-.5612.533 0 .987.187 1.363.5612.375.3653.563.8133.563 1.344 0 .5306-.188.983-.563 1.3571-.368.374-.817.5611-1.35.5611-.532 0-.986-.1871-1.362-.5611-.375-.3741-.564-.8308-.564-1.3702z"/><path d="m148.679 9.83521h2.96v22.03989h-2.96v-1.331c-1.162 1.1308-2.475 1.6963-3.942 1.6963-1.747 0-3.197-.635-4.349-1.9051-1.144-1.2962-1.716-2.9144-1.716-4.8543 0-1.8965.572-3.4797 1.716-4.7498 1.135-1.2788 2.563-1.9183 4.282-1.9183 1.494 0 2.83.609 4.009 1.827zm-6.995 15.64579c0 1.2179.327 2.2096.983 2.9752.672.7742 1.519 1.1614 2.541 1.1614 1.091 0 1.974-.3741 2.646-1.1223.672-.7742 1.009-1.7573 1.009-2.949 0-1.1919-.337-2.1749-1.009-2.9492-.672-.7568-1.545-1.1352-2.619-1.1352-1.014 0-1.861.3828-2.542 1.1483-.672.7743-1.009 1.7311-1.009 2.8708z"/><path d="m162.771 21.3302-2.437 1.2919c-.384-.783-.86-1.1744-1.427-1.1744-.272 0-.503.0913-.695.274-.192.174-.289.4002-.289.6785 0 .4872.569.97 1.704 1.4485 1.563.6699 2.615 1.2875 3.157 1.853.541.5655.812 1.3266.812 2.2835 0 1.2267-.454 2.2532-1.363 3.0796-.881.783-1.947 1.1745-3.196 1.1745-2.139 0-3.654-1.0396-4.545-3.1188l2.516-1.1614c.348.609.615.9962.798 1.1614.358.3306.786.4959 1.283.4959.996 0 1.494-.4523 1.494-1.3571 0-.522-.384-1.0092-1.153-1.4615-.297-.1479-.594-.2915-.89-.4306-.297-.1392-.598-.2827-.904-.4306-.856-.4176-1.459-.8352-1.808-1.2528-.445-.5306-.668-1.2135-.668-2.0487 0-1.1047.38-2.0182 1.14-2.7403.777-.722 1.72-1.083 2.829-1.083 1.633 0 2.847.8394 3.642 2.5184z"/></g></g></svg>