<svg fill="none" height="41" viewBox="0 0 167 41" width="167" xmlns="http://www.w3.org/2000/svg" xmlns:xlink="http://www.w3.org/1999/xlink"><clipPath id="a"><path d="m.492188.966064h165.708v39.1111h-165.708z"/></clipPath><g clip-path="url(#a)"><path d="m33.895 15.3728v12.2926c0 2.4978-1.2837 4.8184-3.3957 6.1463l-9.8835 6.2159c-.2086.1328-.4869-.019-.4869-.2656v-4.3504c0-.7146.3542-1.3786.9486-1.7769l6.3044-4.2051c.8789-.5881 1.4101-1.5745 1.4101-2.6305v-8.4733c0-.6767.3605-1.3026.9485-1.6441l3.2059-1.8465c.4237-.2402.9486.0633.9486.5501z" fill="#625df5"/><path d="m33.1335 11.6936-13.9621 8.0624c-.9801.5628-1.5808 1.6061-1.5808 2.7381v16.9845c0 .2466-.2656.3984-.4742.2719l-12.93768-7.5248c-2.28274-1.3279-3.686532-3.7625-3.686532-6.4056v-10.2819c0-3.0984 1.650402-5.96285 4.337832-7.51209l11.77408-6.80395c.5881-.341461 1.309-.341461 1.8971 0l2.9466 1.70099c.6324.36675.6324 1.27732 0 1.64408l-14.0568 8.11297c-.98013.5627-1.58085 1.6061-1.58085 2.7379v9.776c0 1.1319.60072 2.1753 1.58085 2.738l4.6604 2.6875c.1011.0568.2213-.0127.2213-.1265v-9.7127c0-1.9729 1.0496-3.7877 2.757-4.7742l13.5067-7.79671c.6323-.36676 1.4164-.33514 2.0171.07589l2.6369 1.80212c.5754.3921.5438 1.2521-.0633 1.6061z" fill="#625df5"/><g fill="#101828"><path d="m49.1055 9.93872h4.5091v12.24708c0 1.0051.1375 1.9013.4125 2.6884.275.7775.6828 1.4367 1.2232 1.9771.5501.5406 1.2281.9531 2.0341 1.2376.8061.275 1.7449.4125 2.8164.4125 1.0621 0 1.9961-.1375 2.8022-.4125.8155-.2845 1.4936-.697 2.0341-1.2376.55-.5404.9625-1.1996 1.2375-1.9771.275-.7871.4125-1.6833.4125-2.6884v-12.24708h4.5091v12.78758c0 1.4604-.2466 2.7879-.7397 3.9828-.4931 1.1948-1.2091 2.219-2.1478 3.0725-.9388.8534-2.091 1.5124-3.4565 1.9771-1.356.4646-2.9065.697-4.6514.697-1.7448 0-3.3-.2324-4.6655-.697-1.356-.4647-2.5035-1.1237-3.4423-1.9771-.9388-.8535-1.6547-1.8777-2.1478-3.0725-.4931-1.1949-.7397-2.5224-.7397-3.9828z"/><path d="m74.207 9.93872h4.5375v22.23258h-4.5375z"/><path d="m80.8672 23.8484c0-1.3371.2513-2.5414.7539-3.6129.5026-1.0812 1.1949-2.001 2.0767-2.7595.8914-.7682 1.944-1.3562 3.1578-1.7638 1.2233-.4173 2.5461-.6259 3.9686-.6259.6069 0 1.2043.0378 1.7923.1137.5973.0759 1.1663.1802 1.7069.313.55.1328 1.062.2939 1.5362.4836.4837.1802.9104.3793 1.2802.5974v-8.02247h4.2102v23.59807h-4.2102v-1.579c-.3698.2561-.8061.4979-1.3087.7255s-1.0431.4268-1.6216.5974c-.5784.1707-1.1805.3034-1.8064.3983-.6164.1043-1.2281.1565-1.8349.1565-1.4224 0-2.7311-.2086-3.9259-.6259-1.1854-.4173-2.2048-1.0052-3.0582-1.7638-.8535-.7587-1.5221-1.6643-2.0057-2.7168-.4741-1.0621-.7112-2.2332-.7112-3.5134zm4.4238 0c0 .6732.1327 1.3086.3983 1.906.2749.5974.6637 1.1238 1.1663 1.5789.5121.4457 1.1237.8014 1.8349 1.0668.7207.2561 1.5268.3841 2.4181.3841.569 0 1.138-.0522 1.707-.1564.569-.1139 1.1142-.2703 1.6358-.4695.531-.1991 1.0241-.4409 1.4793-.7254.4646-.2845.8677-.6022 1.2091-.953v-5.8177c-.4267-.3414-.8772-.6306-1.3513-.8678-.4742-.237-.9578-.4314-1.4509-.5831-.4931-.1518-.991-.2609-1.4936-.3272-.5025-.0759-.9909-.1138-1.4651-.1138-.9673 0-1.8302.1328-2.5888.3982-.7491.2561-1.3845.6117-1.9061 1.067-.512.4551-.9055.9909-1.1805 1.6072-.275.6164-.4125 1.285-.4125 2.0057z"/><path d="m103.895 23.7212c0-1.1379.231-2.2237.696-3.2573.465-1.0431 1.134-1.963 2.005-2.7595.873-.7966 1.94-1.432 3.201-1.906 1.271-.4742 2.712-.7112 4.324-.7112 1.603 0 3.045.2417 4.325.7254 1.29.4741 2.38 1.1284 3.271 1.9629.901.8345 1.589 1.8159 2.062 2.9444.484 1.1284.726 2.3376.726 3.6272 0 .1612-.005.3367-.014.5263 0 .1802-.01.3461-.028.4978h-15.875c.18.5026.469.9626.868 1.3798.408.4173.915.7776 1.522 1.081.607.3036 1.309.5406 2.105.7112.796.1613 1.678.2419 2.646.2419.967 0 1.93-.0996 2.888-.2988.957-.2085 1.872-.4693 2.745-.7823l1.422 3.2147c-.55.2561-1.109.4837-1.679.6828-.559.1896-1.147.3509-1.764.4836-.606.1233-1.246.2182-1.919.2845-.664.0663-1.366.0996-2.106.0996-1.887 0-3.542-.2276-4.964-.6828s-2.612-1.0763-3.57-1.8634c-.958-.787-1.679-1.7116-2.163-2.7737-.483-1.062-.724-2.2048-.724-3.4281zm16.144-1.6357c-.152-.4647-.389-.8962-.711-1.2945-.314-.4077-.707-.7586-1.182-1.0525-.473-.3035-1.024-.5406-1.649-.7113-.626-.1707-1.314-.256-2.063-.256-.797 0-1.521.0901-2.176.2703-.654.1801-1.228.422-1.721.7254s-.905.6543-1.238 1.0526c-.322.3983-.559.8202-.711 1.266z"/><path d="m126.211 23.8208c0-1.2327.223-2.3801.669-3.4422.455-1.0717 1.115-1.9962 1.977-2.7738.873-.7871 1.935-1.4035 3.187-1.8492 1.26-.4456 2.697-.6684 4.309-.6684.702 0 1.408.0426 2.119.1279.711.0854 1.395.2086 2.049.3699.663.1517 1.285.3366 1.863.5548.579.2086 1.081.4409 1.508.6969l-1.948 3.172c-.92-.4267-1.793-.7396-2.617-.9388-.817-.1992-1.646-.2987-2.49-.2987-.968 0-1.835.1281-2.603.384-.768.2466-1.423.5975-1.963 1.0526-.531.4458-.939.9768-1.224 1.5932-.274.6068-.411 1.2707-.411 1.9914 0 .7206.146 1.3892.44 2.0055.304.607.726 1.1332 1.266 1.579.55.4362 1.209.7823 1.977 1.0383.777.2466 1.641.3699 2.589.3699 1.043 0 2.024-.147 2.944-.441.93-.294 1.792-.6875 2.589-1.1806l1.949 3.1721c-.503.3034-1.047.5879-1.636.8534-.588.256-1.219.4789-1.892.6685-.664.1897-1.366.3367-2.105.441-.73.1137-1.489.1707-2.275.1707-1.603 0-3.04-.2181-4.311-.6543-1.27-.4363-2.346-1.0384-3.228-1.8065-.883-.7776-1.561-1.6927-2.034-2.7453-.465-1.0526-.698-2.2-.698-3.4423z"/><path d="m147.121 8.57153h4.211v13.93977l7.852-7.1263h6.443l-8.776 7.8517 9.331 8.9329h-6.316l-6.244-6.0453-2.29 2.0482v3.9971h-4.211z"/></g></g></svg>