<svg fill="none" height="48" viewBox="0 0 112 48" width="112" xmlns="http://www.w3.org/2000/svg" xmlns:xlink="http://www.w3.org/1999/xlink"><clipPath id="a"><path d="m.5 0h111v48h-111z"/></clipPath><clipPath id="b"><path d="m.5 11h110.158v26h-110.158z"/></clipPath><g clip-path="url(#a)"><g clip-path="url(#b)" fill="#343c54"><path d="m22.706 20.5773v8.1718c0 1.6604-.8533 3.2031-2.2573 4.0859l-6.5703 4.1321c-.1387.0883-.3237-.0126-.3237-.1766v-2.892c0-.4751.2354-.9164.6306-1.1812l4.191-2.7954c.5843-.391.9374-1.0467.9374-1.7487v-5.6329c0-.4498.2396-.8659.6305-1.0929l2.1312-1.2275c.2817-.1597.6306.0421.6306.3657z"/><path d="m22.1991 18.1314-9.2816 5.3596c-.6516.3741-1.0509 1.0677-1.0509 1.8202v11.2909c0 .1639-.1766.2648-.3153.1807l-8.60059-5.0022c-1.51751-.8828-2.45071-2.5012-2.45071-4.2583v-6.8351c0-2.0598 1.09715-3.964 2.88367-4.9939l7.82713-4.5231c.3909-.2269.8701-.2269 1.2611 0l1.9588 1.1308c.4204.2438.4204.8491 0 1.093l-9.34456 5.3932c-.65156.3741-1.05091 1.0677-1.05091 1.8201v6.4988c0 .7525.39935 1.4461 1.05091 1.8202l3.09809 1.7866c.06726.0377.14711-.0085.14711-.0841v-6.4568c0-1.3115.69776-2.518 1.83276-3.1737l8.9789-5.1831c.4203-.2438.9416-.2228 1.3409.0505l1.753 1.198c.3825.2606.3615.8323-.0421 1.0677z"/><path d="m32.8164 16.9688h2.9975v8.1415c0 .6682.0914 1.2639.2743 1.7871.1828.5169.4539.9551.8131 1.3144.3657.3593.8164.6336 1.3523.8227.5358.1828 1.1599.2742 1.8722.2742.7061 0 1.327-.0914 1.8629-.2742.5421-.1891.9928-.4634 1.3522-.8227.3655-.3593.6398-.7975.8226-1.3144.1828-.5232.2742-1.1189.2742-1.7871v-8.1415h2.9975v8.5008c0 .9708-.1639 1.8533-.4917 2.6476s-.8037 1.4752-1.4278 2.0425c-.6241.5674-1.39 1.0055-2.2978 1.3144-.9014.3089-1.9321.4634-3.0921.4634-1.1599 0-2.1938-.1545-3.1015-.4634-.9014-.3089-1.6643-.747-2.2883-1.3144-.6241-.5673-1.1-1.2482-1.4279-2.0425-.3278-.7943-.4917-1.6768-.4917-2.6476z"/><path d="m49.5078 16.9688h3.0164v14.7795h-3.0164z"/><path d="m53.9297 26.2103c0-.8888.1671-1.6894.5012-2.4018.3341-.7187.7943-1.3301 1.3805-1.8344.5926-.5106 1.2923-.9015 2.0992-1.1725.8132-.2774 1.6926-.4161 2.6382-.4161.4035 0 .8006.0252 1.1915.0756.3971.0504.7753.1198 1.1347.2081.3656.0882.706.1954 1.0212.3215.3216.1197.6052.2521.8511.3971v-5.3331h2.7989v15.6873h-2.7989v-1.0496c-.2459.1702-.5359.3309-.87.4823-.3341.1513-.6935.2837-1.078.3971s-.7848.2017-1.2008.2648c-.4098.0693-.8164.104-1.2198.104-.9456 0-1.8156-.1387-2.6099-.4161-.788-.2774-1.4657-.6682-2.033-1.1725s-1.0118-1.1064-1.3333-1.8061c-.3152-.706-.4728-1.4846-.4728-2.3356zm2.9408 0c0 .4476.0883.8699.2648 1.2671.1827.3971.4412.747.7753 1.0496.3404.2963.7471.5327 1.2198.7092.4791.1702 1.015.2553 1.6075.2553.3783 0 .7565-.0347 1.1348-.104.3782-.0756.7406-.1796 1.0874-.312.353-.1324.6808-.2932.9834-.4823.3089-.1891.5768-.4003.8038-.6336v-3.8674c-.2837-.2269-.5832-.4192-.8983-.5768-.3152-.1576-.6368-.2869-.9646-.3877-.3278-.1009-.6587-.1734-.9928-.2175-.3341-.0505-.6588-.0756-.974-.0756-.643 0-1.2167.0882-1.721.2647-.498.1702-.9203.4066-1.2671.7092-.3404.3026-.602.6588-.7848 1.0685-.1828.4098-.2742.8542-.2742 1.3333z"/><path d="m69.2422 26.1303c0-.7564.1539-1.4783.4632-2.1654.3086-.6934.7533-1.3049 1.3328-1.8344.5803-.5296 1.2898-.9519 2.1279-1.2671.845-.3152 1.8029-.4728 2.8744-.4728 1.0653 0 2.0239.1607 2.8751.4823.8573.3152 1.5818.7501 2.1744 1.3049.5993.5547 1.0564 1.2071 1.3711 1.9573.3216.7502.4824 1.554.4824 2.4113 0 .1071-.0034.2238-.0096.3498 0 .1198-.0061.2301-.0184.331h-10.5533c.1197.3341.312.6399.5768.9172.2716.2774.6082.517 1.0119.7187s.8703.3593 1.3992.4728c.5296.1072 1.116.1607 1.7591.1607.6432 0 1.2829-.0662 1.9199-.1986.6364-.1386 1.2446-.312 1.8248-.52l.9456 2.137c-.366.1702-.7376.3215-1.1159.4539-.3723.126-.7629.2333-1.1728.3215-.403.0819-.8286.145-1.276.1891-.4413.0441-.908.0662-1.3999.0662-1.2542 0-2.3544-.1513-3.3-.4539s-1.7365-.7155-2.3735-1.2387c-.6363-.5232-1.116-1.1378-1.4375-1.8439-.3209-.706-.4817-1.4657-.4817-2.2789zm10.7325-1.0874c-.1012-.3089-.2586-.5957-.4728-.8605-.2087-.271-.47-.5043-.7854-.6997-.3148-.2018-.6808-.3593-1.0968-.4728s-.8731-.1702-1.3712-.1702c-.5296 0-1.0113.0599-1.4464.1797-.4352.1197-.8163.2805-1.144.4822-.3278.2017-.6021.4349-.8231.6997-.2142.2648-.3716.5453-.4728.8416z"/><path d="m84.0781 26.1965c0-.8195.1485-1.5822.4448-2.2883.3024-.7124.741-1.327 1.3143-1.8439.5802-.5232 1.2863-.933 2.1183-1.2293.8382-.2962 1.7934-.4444 2.8648-.4444.4667 0 .936.0284 1.4088.0851.4728.0568.9271.1387 1.3623.2459.4406.1008.8539.2237 1.2384.3688.3845.1387.7184.2931 1.0024.4632l-1.2952 2.1087c-.6117-.2837-1.1919-.4917-1.74-.6241-.5426-.1323-1.094-.1985-1.6551-.1985-.6431 0-1.2199.0851-1.7304.2553-.5104.1639-.9455.3972-1.3047.6997-.3531.2963-.624.6493-.8136 1.0591-.1827.4034-.2737.8447-.2737 1.3238s.0972.9236.2929 1.3333c.2018.4034.4824.7533.8416 1.0496.3653.29.8039.5201 1.3143.6902.5166.164 1.0907.2459 1.7208.2459.6938 0 1.3459-.0977 1.9575-.2931.6179-.1955 1.1913-.457 1.7208-.7848l1.2959 2.1086c-.3345.2017-.6965.3909-1.0879.5674-.3906.1702-.8101.3183-1.2575.4444-.4414.1261-.908.2238-1.3992.2932-.4858.0756-.9901.1134-1.5128.1134-1.0654 0-2.0205-.145-2.8655-.4349-.8443-.2901-1.56-.6903-2.1464-1.201-.5863-.5169-1.0372-1.1252-1.352-1.825-.3092-.6997-.4639-1.4625-.4639-2.2883z"/><path d="m97.9766 16.0547h2.7994v9.2668l5.22-4.7374h4.283l-5.835 5.2196 6.203 5.9383h-4.198l-4.151-4.0187-1.522 1.3616v2.6571h-2.7994z"/></g></g></svg>